STARTFONT 2.1
COMMENT
COMMENT Converted from OpenType font "TimesB.otf" by "otf2bdf 3.0".
COMMENT
FONT -FreeType-Times New Roman-Bold-R-Normal--44-320-100-100-P-222-ISO10646-1
SIZE 32 100 100
FONTBOUNDINGBOX 74 60 -25 -14
STARTPROPERTIES 19
FOUNDRY "FreeType"
FAMILY_NAME "Times New Roman"
WEIGHT_NAME "Bold"
SLANT "R"
SETWIDTH_NAME "Normal"
ADD_STYLE_NAME ""
PIXEL_SIZE 44
POINT_SIZE 320
RESOLUTION_X 100
RESOLUTION_Y 100
SPACING "P"
AVERAGE_WIDTH 222
CHARSET_REGISTRY "ISO10646"
CHARSET_ENCODING "1"
FONT_ASCENT 39
FONT_DESCENT 9
COPYRIGHT "© 2006 The Monotype Corporation. All Rights Reserved."
_OTF_FONTFILE "TimesB.otf"
_OTF_PSNAME "TimesNewRomanPS-BoldMT"
ENDPROPERTIES
CHARS 1425
STARTCHAR 0020
ENCODING 32
SWIDTH 247 0
DWIDTH 11 0
BBX 0 0 0 0
BITMAP
ENDCHAR
STARTCHAR 0021
ENCODING 33
SWIDTH 337 0
DWIDTH 15 0
BBX 7 31 4 -1
BITMAP
7C
FC
FE
FE
FE
FE
FE
FC
7C
7C
7C
7C
78
38
38
38
30
10
10
10
00
00
00
00
7C
FE
FE
FE
FE
7C
10
ENDCHAR
STARTCHAR 0022
ENCODING 34
SWIDTH 562 0
DWIDTH 25 0
BBX 17 14 4 16
BITMAP
780E00
FC1F00
FC3F80
FC3F80
FC3F00
FC1F00
FC1F00
781F00
781F00
780E00
780E00
300E00
300E00
300400
ENDCHAR
STARTCHAR 0023
ENCODING 35
SWIDTH 495 0
DWIDTH 22 0
BBX 20 31 1 -1
BITMAP
01C0E0
01C0E0
0180E0
0380C0
0381C0
0381C0
0381C0
0301C0
070180
FFFFF0
FFFFF0
FFFFF0
060380
0E0300
0E0700
0E0700
0E0700
0C0700
1C0600
FFFFF0
FFFFF0
1C0E00
180E00
380C00
381C00
381C00
381C00
301C00
701800
703800
703800
ENDCHAR
STARTCHAR 0024
ENCODING 36
SWIDTH 495 0
DWIDTH 22 0
BBX 19 33 2 -3
BITMAP
00C000
07FC00
1EDF80
38C7C0
78C3C0
F0C1C0
F0C0C0
F8C0C0
FCC040
FEC000
FFC000
FFC000
7FE000
3FF800
1FFC00
0FFF00
03FF80
01FF80
00FFC0
00FFC0
00DFE0
00CFE0
80C7E0
C0C3E0
C0C3C0
C0C3C0
E0C3C0
F0C780
FCCF00
3FFC00
01C000
00C000
00C000
ENDCHAR
STARTCHAR 0025
ENCODING 37
SWIDTH 990 0
DWIDTH 44 0
BBX 38 31 3 -1
BITMAP
0FC0000E00
1CF0001C00
3C78003800
7C7C003800
7C7C007000
FC7C00E000
FC7E00E000
FC7E01C000
FC7E038000
FC7E038000
FC7C070000
7C7C0E0000
7C780E0000
3C781C0000
1EE0380000
0380380300
0000701FE0
0000E03CF0
0000E07C78
0001C0787C
000380F87C
000380F87C
000700F87C
000E00F87C
000E00F87C
001C00F87C
003800F87C
0038007878
0070007CF8
00E0003CF0
00E0000FC0
ENDCHAR
STARTCHAR 0026
ENCODING 38
SWIDTH 832 0
DWIDTH 37 0
BBX 33 31 2 -1
BITMAP
0007F00000
001FF80000
00387C0000
00783E0000
00783E0000
00F83E0000
00F83E0000
00F83C0000
00FC3C0000
00FC380000
00FCE00000
00FFC00000
007E01FF00
007F00FE00
03FF807C00
073F803800
1E3FC03000
3C1FE07000
7C0FF06000
7C0FF8C000
FC07FCC000
FC03FD8000
FE03FF0000
FE01FF0000
FF00FFC080
FF807FE180
7FE0FFFF00
7FFFDFFE00
3FFF8FFC00
0FFE03F800
01E000E000
ENDCHAR
STARTCHAR 0027
ENCODING 39
SWIDTH 270 0
DWIDTH 12 0
BBX 6 14 3 16
BITMAP
78
7C
FC
FC
FC
FC
7C
7C
78
78
38
38
30
30
ENDCHAR
STARTCHAR 0028
ENCODING 40
SWIDTH 337 0
DWIDTH 15 0
BBX 12 39 2 -9
BITMAP
0010
0060
00C0
0380
0700
0700
0E00
1E00
3E00
3E00
3C00
7C00
7C00
7C00
FC00
FC00
FC00
FC00
FC00
FC00
FC00
FC00
FC00
FC00
FC00
7C00
7C00
7C00
3C00
3E00
1E00
1E00
0F00
0700
0380
0180
00C0
0070
0010
ENDCHAR
STARTCHAR 0029
ENCODING 41
SWIDTH 337 0
DWIDTH 15 0
BBX 12 39 1 -9
BITMAP
8000
E000
3000
1800
1C00
0E00
0F00
0780
0780
07C0
07C0
03E0
03E0
03E0
03F0
03F0
03F0
03F0
03F0
03F0
03F0
03F0
03F0
03F0
03F0
03E0
03E0
03E0
03C0
07C0
0780
0780
0F00
0E00
1C00
3800
7000
E000
8000
ENDCHAR
STARTCHAR 002A
ENCODING 42
SWIDTH 495 0
DWIDTH 22 0
BBX 17 17 3 13
BITMAP
01C000
03C000
03C000
03C000
01C000
F18700
F98F80
FCBF80
FFFF00
018000
034000
0E7000
1E7800
3E7C00
3E3C00
3C3C00
181800
ENDCHAR
STARTCHAR 002B
ENCODING 43
SWIDTH 562 0
DWIDTH 25 0
BBX 24 24 1 3
BITMAP
003800
003800
003800
003800
003800
003800
003800
003800
003800
003800
003800
FFFFFF
FFFFFF
FFFFFF
003800
003800
003800
003800
003800
003800
003800
003800
003800
003800
ENDCHAR
STARTCHAR 002C
ENCODING 44
SWIDTH 247 0
DWIDTH 11 0
BBX 9 15 1 -8
BITMAP
1800
7E00
7F00
FF00
FF80
7F80
3F80
0300
0300
0300
0600
0600
0C00
3000
4000
ENDCHAR
STARTCHAR 002D
ENCODING 45
SWIDTH 337 0
DWIDTH 15 0
BBX 13 4 1 8
BITMAP
FFF8
FFF8
FFF8
FFF8
ENDCHAR
STARTCHAR 002E
ENCODING 46
SWIDTH 247 0
DWIDTH 11 0
BBX 7 8 2 -1
BITMAP
18
7C
FE
FE
FE
FE
7C
10
ENDCHAR
STARTCHAR 002F
ENCODING 47
SWIDTH 270 0
DWIDTH 12 0
BBX 12 31 0 -1
BITMAP
0030
0070
0070
0060
00E0
00E0
00C0
01C0
01C0
0180
0380
0380
0380
0700
0700
0700
0600
0E00
0E00
0C00
1C00
1C00
1800
3800
3800
3000
7000
7000
7000
E000
E000
ENDCHAR
STARTCHAR 0030
ENCODING 48
SWIDTH 495 0
DWIDTH 22 0
BBX 19 31 2 -1
BITMAP
03F000
07FC00
0E1E00
1E1F00
3C0F00
7C0F80
7C0F80
7C0FC0
FC0FC0
FC0FC0
FC0FC0
FC0FC0
FC0FE0
FC0FE0
FC0FE0
FC0FE0
FC0FE0
FC0FE0
FC0FC0
FC0FC0
FC0FC0
FC0FC0
7C0FC0
7C0F80
7C0F80
3E0F80
3E0F00
1E1E00
0F1C00
07F800
00C000
ENDCHAR
STARTCHAR 0031
ENCODING 49
SWIDTH 495 0
DWIDTH 22 0
BBX 16 30 3 0
BITMAP
0020
01E0
07E0
1FE0
7FE0
8FE0
07E0
07E0
07E0
07E0
07E0
07E0
07E0
07E0
07E0
07E0
07E0
07E0
07E0
07E0
07E0
07E0
07E0
07E0
07F0
07F0
07F0
07F0
0FF0
FFFF
ENDCHAR
STARTCHAR 0032
ENCODING 50
SWIDTH 495 0
DWIDTH 22 0
BBX 19 30 1 0
BITMAP
01F800
07FE00
0FFF00
1FFF00
3FFF80
307F80
603FC0
401FC0
001FC0
001F80
001F80
001F80
001F00
001F00
001E00
003E00
003C00
007800
007000
00E000
01C000
018020
030020
060060
0FFFC0
1FFFC0
1FFFC0
3FFFC0
7FFFC0
FFFF80
ENDCHAR
STARTCHAR 0033
ENCODING 51
SWIDTH 495 0
DWIDTH 22 0
BBX 19 31 1 -1
BITMAP
01F800
07FE00
0FFF00
1FFF80
38FF80
203F80
401F80
401F80
001F80
001F00
001E00
001C00
003C00
00FF00
03FF80
03FFC0
007FC0
003FC0
001FE0
000FE0
0007E0
0007E0
0003C0
0003C0
0003C0
F00380
F80700
FE0600
FF9C00
7FF000
070000
ENDCHAR
STARTCHAR 0034
ENCODING 52
SWIDTH 495 0
DWIDTH 22 0
BBX 19 30 1 0
BITMAP
000380
000780
000F80
001F80
001F80
003F80
007F80
007F80
00DF80
019F80
031F80
031F80
061F80
0C1F80
181F80
181F80
301F80
601F80
E01F80
FFFFE0
FFFFE0
FFFFE0
FFFFE0
001F80
001F80
001F80
001F80
001F80
001F80
001F80
ENDCHAR
STARTCHAR 0035
ENCODING 53
SWIDTH 495 0
DWIDTH 22 0
BBX 19 30 2 -1
BITMAP
0FFFC0
0FFFC0
0FFF80
1FFF80
1FFF80
180000
300000
300000
3F0000
7FE000
7FF800
7FFE00
FFFF00
FFFF80
1FFF80
00FFC0
003FC0
000FC0
0007E0
0003C0
0003C0
0001C0
0001C0
000180
F80380
FC0300
FF0600
FFFC00
7FF000
060000
ENDCHAR
STARTCHAR 0036
ENCODING 54
SWIDTH 495 0
DWIDTH 22 0
BBX 19 31 2 -1
BITMAP
0003E0
001F00
007C00
01F000
03E000
07C000
0F8000
1F8000
1F0000
3F0000
7E0000
7E3800
7FFE00
FFFF00
FC1F80
FC1FC0
FC0FC0
FC0FE0
FC0FE0
FC0FE0
FC07E0
FC07E0
FE07E0
FE07C0
7E07C0
7E07C0
3E0F80
1F0F00
0F0E00
07FC00
004000
ENDCHAR
STARTCHAR 0037
ENCODING 55
SWIDTH 495 0
DWIDTH 22 0
BBX 19 30 2 -1
BITMAP
7FFFE0
7FFFE0
7FFFC0
7FFFC0
FFFFC0
F80380
C00780
800780
000700
000F00
000F00
000E00
000E00
001E00
001C00
001C00
003C00
003800
003800
007800
007000
007000
00F000
00E000
00E000
01E000
01C000
01C000
03C000
038000
ENDCHAR
STARTCHAR 0038
ENCODING 56
SWIDTH 495 0
DWIDTH 22 0
BBX 19 31 2 -1
BITMAP
03F800
0FBE00
3E0F00
7C0F80
7C07C0
FC07C0
FC07C0
FE07C0
FE07C0
FF07C0
7F8F80
7FCF00
3FFE00
1FF800
0FFE00
07FF00
0FFF80
1EFF80
7C7FC0
7C3FC0
F81FE0
F80FE0
F80FE0
F807E0
F807C0
F807C0
FC0780
7C0F80
3E1F00
1FFC00
01C000
ENDCHAR
STARTCHAR 0039
ENCODING 57
SWIDTH 495 0
DWIDTH 22 0
BBX 20 31 1 -1
BITMAP
01F800
07FE00
0E1F00
1E0F80
3E0FC0
7E0FC0
7E07E0
7E07E0
7E07E0
FE07E0
FE07F0
FE07F0
7E07F0
7E07F0
7F07F0
3F07E0
3F87E0
1FFFE0
07FFE0
000FC0
000FC0
000F80
001F80
001F00
003E00
007C00
00F800
01E000
078000
3E0000
C00000
ENDCHAR
STARTCHAR 003A
ENCODING 58
SWIDTH 337 0
DWIDTH 15 0
BBX 7 22 4 -1
BITMAP
38
7C
FE
FE
FE
FE
7C
00
00
00
00
00
00
00
10
7C
FE
FE
FE
FE
7C
10
ENDCHAR
STARTCHAR 003B
ENCODING 59
SWIDTH 337 0
DWIDTH 15 0
BBX 9 29 3 -8
BITMAP
1C00
3E00
7F00
7F00
7F00
7F00
3E00
0000
0000
0000
0000
0000
0000
0000
1800
7E00
7F00
FF00
FF00
7F80
7F80
0300
0300
0300
0600
0C00
1800
3000
4000
ENDCHAR
STARTCHAR 003C
ENCODING 60
SWIDTH 562 0
DWIDTH 25 0
BBX 24 21 1 4
BITMAP
000003
00001F
00007F
0001FC
000FE0
003F80
01FE00
07F000
3FC000
FE0000
F80000
FF0000
1FC000
07F800
00FE00
003FC0
0007F0
0001FC
00007F
00000F
000003
ENDCHAR
STARTCHAR 003D
ENCODING 61
SWIDTH 562 0
DWIDTH 25 0
BBX 24 10 1 10
BITMAP
FFFFFF
FFFFFF
FFFFFF
000000
000000
000000
000000
FFFFFF
FFFFFF
FFFFFF
ENDCHAR
STARTCHAR 003E
ENCODING 62
SWIDTH 562 0
DWIDTH 25 0
BBX 24 21 1 4
BITMAP
C00000
F00000
FE0000
3F8000
0FF000
03FC00
007F00
001FE0
0003F8
0000FF
00003F
0001FE
0007F0
001FC0
00FF00
03F800
1FE000
7F0000
FC0000
E00000
800000
ENDCHAR
STARTCHAR 003F
ENCODING 63
SWIDTH 495 0
DWIDTH 22 0
BBX 17 31 3 -1
BITMAP
0FF000
3DFC00
707E00
707F00
F03F00
F83F80
F83F80
F83F80
F83F80
003F00
003F00
007E00
007C00
00F800
00E000
01C000
018000
010000
010000
010000
000000
000000
000000
000000
07C000
0FC000
0FE000
0FE000
0FE000
07C000
010000
ENDCHAR
STARTCHAR 0040
ENCODING 64
SWIDTH 922 0
DWIDTH 41 0
BBX 38 40 2 -10
BITMAP
0000FFC000
0007C0F800
003C000E00
0070000700
01E0000180
03800000C0
0700000040
0E00000060
0C00000020
1C00380030
3800FDF810
3801E7F010
3003C3F010
700783F018
600F83E018
600F03E018
E01F03E018
E03F07E010
C03E07C010
C03E07C010
C07E0FC030
C07C0F8020
C07C1F8060
C07C2F8040
E07C3F80C0
607EDF0180
607F9F0304
607F9F0604
307F0FF808
303C07E008
1800000010
1800000030
0C00000060
06000000C0
0300000180
0180000300
00E0000C00
0038007800
000FFFC000
0000380000
ENDCHAR
STARTCHAR 0041
ENCODING 65
SWIDTH 720 0
DWIDTH 32 0
BBX 32 30 0 0
BITMAP
00008000
00018000
0001C000
0003C000
0003C000
0003E000
0007E000
0007F000
000FF000
000FF800
001BF800
001BF800
0033FC00
0031FC00
0061FE00
0060FE00
0040FF00
00C07F00
00C07F80
01807F80
01FFFF80
03FFFFC0
03001FC0
06001FE0
06000FE0
04000FF0
0C0007F0
1C0007F8
3E0007FC
FFC07FFF
ENDCHAR
STARTCHAR 0042
ENCODING 66
SWIDTH 675 0
DWIDTH 30 0
BBX 27 29 1 0
BITMAP
FFFFF800
0FE3FE00
0FE0FF00
0FE07F80
0FE03F80
0FE03FC0
0FE03FC0
0FE03FC0
0FE03FC0
0FE03F80
0FE07F00
0FE0FE00
0FE3F800
0FFFE000
0FFFFC00
0FE07F00
0FE03F80
0FE01FC0
0FE01FE0
0FE01FE0
0FE01FE0
0FE01FE0
0FE01FE0
0FE01FE0
0FE01FC0
0FE03F80
0FE07F00
1FFFFE00
FFFFF000
ENDCHAR
STARTCHAR 0043
ENCODING 67
SWIDTH 720 0
DWIDTH 32 0
BBX 28 31 2 -1
BITMAP
000FF010
007FFE30
01FC07F0
03F001F0
07E000F0
0FC00070
1F800070
3F800030
3F800030
7F000010
7F000000
FF000000
FF000000
FF000000
FF000000
FF000000
FF000000
FF000000
FF000000
FF000000
FF000000
7F000000
7F800000
3F800000
3FC00020
1FC00060
0FE000C0
07F80380
01FF3F00
007FFC00
0003C000
ENDCHAR
STARTCHAR 0044
ENCODING 68
SWIDTH 720 0
DWIDTH 32 0
BBX 29 29 1 0
BITMAP
FFFFF000
1FE3FC00
0FE07F00
0FE03F80
0FE01FC0
0FE00FE0
0FE00FE0
0FE00FF0
0FE007F0
0FE007F8
0FE007F8
0FE007F8
0FE007F8
0FE007F8
0FE007F8
0FE007F8
0FE007F8
0FE007F8
0FE007F8
0FE007F0
0FE007F0
0FE007F0
0FE00FE0
0FE00FC0
0FE01FC0
0FE03F00
0FE07E00
1FFFF800
FFFFC000
ENDCHAR
STARTCHAR 0045
ENCODING 69
SWIDTH 675 0
DWIDTH 30 0
BBX 27 29 1 0
BITMAP
FFFFFF80
0FE07F80
0FE00780
0FE00380
0FE00380
0FE00180
0FE04180
0FE04080
0FE04000
0FE04000
0FE0C000
0FE0C000
0FE1C000
0FFFC000
0FFFC000
0FE3C000
0FE0C000
0FE0C000
0FE04000
0FE04000
0FE04020
0FE04040
0FE00040
0FE000C0
0FE001C0
0FE003C0
0FF007C0
1FFFFFC0
FFFFFF80
ENDCHAR
STARTCHAR 0046
ENCODING 70
SWIDTH 607 0
DWIDTH 27 0
BBX 25 29 1 0
BITMAP
FFFFFF80
0FE07F80
0FE00780
0FE00380
0FE00180
0FE00180
0FE00080
0FE02080
0FE02000
0FE02000
0FE02000
0FE06000
0FE0E000
0FFFE000
0FFFE000
0FE1E000
0FE0E000
0FE06000
0FE02000
0FE02000
0FE02000
0FE02000
0FE00000
0FE00000
0FE00000
0FE00000
0FE00000
1FF00000
FFFE0000
ENDCHAR
STARTCHAR 0047
ENCODING 71
SWIDTH 787 0
DWIDTH 35 0
BBX 32 31 2 -1
BITMAP
000FF808
007FFF18
01F807F8
03F001F8
0FE000F8
0FC00078
1F800038
3F800018
3F800018
7F000008
7F000000
FF000000
FF000000
FF000000
FF000000
FF000000
FF000000
FF000000
FF003FFF
FF0007F8
7F0003F8
7F0003F8
7F8003F8
3F8003F8
1F8003F8
0FC003F8
07E003F8
03F003F8
01FC07F0
007FFF80
0003F000
ENDCHAR
STARTCHAR 0048
ENCODING 72
SWIDTH 787 0
DWIDTH 35 0
BBX 33 29 1 0
BITMAP
FFFE3FFF00
0FF007F800
0FE007F800
0FE003F800
0FE003F800
0FE003F800
0FE003F800
0FE003F800
0FE003F800
0FE003F800
0FE003F800
0FE003F800
0FE003F800
0FFFFFF800
0FFFFFF800
0FE003F800
0FE003F800
0FE003F800
0FE003F800
0FE003F800
0FE003F800
0FE003F800
0FE003F800
0FE003F800
0FE003F800
0FE003F800
0FE007F800
1FF007F800
FFFE7FFF80
ENDCHAR
STARTCHAR 0049
ENCODING 73
SWIDTH 382 0
DWIDTH 17 0
BBX 15 29 1 0
BITMAP
FFFE
0FF0
0FE0
0FE0
0FE0
0FE0
0FE0
0FE0
0FE0
0FE0
0FE0
0FE0
0FE0
0FE0
0FE0
0FE0
0FE0
0FE0
0FE0
0FE0
0FE0
0FE0
0FE0
0FE0
0FE0
0FE0
0FE0
1FF0
FFFE
ENDCHAR
STARTCHAR 004A
ENCODING 74
SWIDTH 495 0
DWIDTH 22 0
BBX 21 30 0 -1
BITMAP
01FFF8
003FC0
001FC0
001FC0
001FC0
001FC0
001FC0
001FC0
001FC0
001FC0
001FC0
001FC0
001FC0
001FC0
001FC0
001FC0
001FC0
001FC0
001FC0
001FC0
3C1FC0
7C1FC0
7E1FC0
FE1F80
7C1F80
7C1F80
383F00
1C7E00
0FFC00
01C000
ENDCHAR
STARTCHAR 004B
ENCODING 75
SWIDTH 787 0
DWIDTH 35 0
BBX 34 29 1 0
BITMAP
FFFC03FF00
0FF000F800
0FE000F000
0FE000E000
0FE0018000
0FE0070000
0FE00E0000
0FE01C0000
0FE0300000
0FE0E00000
0FE1C00000
0FE3C00000
0FE7E00000
0FEFF00000
0FFFF00000
0FF7F80000
0FE7FC0000
0FE3FE0000
0FE1FF0000
0FE0FF0000
0FE07F8000
0FE07FC000
0FE03FE000
0FE01FF000
0FE00FF000
0FE00FF800
0FE007FC00
1FF007FF00
FFFE1FFFC0
ENDCHAR
STARTCHAR 004C
ENCODING 76
SWIDTH 675 0
DWIDTH 30 0
BBX 27 29 1 0
BITMAP
FFFE0000
0FE00000
0FE00000
0FE00000
0FE00000
0FE00000
0FE00000
0FE00000
0FE00000
0FE00000
0FE00000
0FE00000
0FE00000
0FE00000
0FE00000
0FE00000
0FE00000
0FE00000
0FE00000
0FE00020
0FE00020
0FE00060
0FE00060
0FE000E0
0FE000C0
0FE001C0
0FE007C0
1FFFFFC0
FFFFFFC0
ENDCHAR
STARTCHAR 004D
ENCODING 77
SWIDTH 945 0
DWIDTH 42 0
BBX 40 29 1 0
BITMAP
FFF0000FFF
0FF8001FF0
0FF8001FF0
0FFC0017F0
0DFC0037F0
0DFC0027F0
0DFE0067F0
0CFE0067F0
0CFF00C7F0
0C7F00C7F0
0C7F8087F0
0C3F8187F0
0C3F8187F0
0C3FC307F0
0C1FC307F0
0C1FE207F0
0C0FE607F0
0C0FF407F0
0C07FC07F0
0C07FC07F0
0C07F807F0
0C03F807F0
0C03F007F0
0C01F007F0
0C01F007F0
0C00E007F0
0C00E007F0
1E00C00FF8
FFC0407FFF
ENDCHAR
STARTCHAR 004E
ENCODING 78
SWIDTH 720 0
DWIDTH 32 0
BBX 30 30 1 -1
BITMAP
FFE007FC
1FF000E0
1FF000C0
0FF800C0
0FFC0040
0FFE0040
0DFF0040
0DFF0040
0CFF8040
0C7FC040
0C3FE040
0C1FF040
0C1FF040
0C0FF840
0C07FC40
0C03FE40
0C01FF40
0C00FF40
0C00FFC0
0C007FC0
0C003FC0
0C001FC0
0C000FC0
0C000FC0
0C0007C0
0C0003C0
0C0001C0
1E0000C0
FFC000C0
00000040
ENDCHAR
STARTCHAR 004F
ENCODING 79
SWIDTH 787 0
DWIDTH 35 0
BBX 31 31 2 -1
BITMAP
001FF000
00FFFE00
03F01F00
07E00FC0
0FC007E0
1F8007F0
3F8003F8
3F8003F8
7F0001FC
7F0001FC
FF0001FC
FF0001FE
FF0001FE
FF0001FE
FF0001FE
FF0001FE
FF0001FE
FF0001FE
FF0001FE
FF0001FC
7F0001FC
7F0001FC
7F0003F8
3F8003F8
1F8003F0
1FC007E0
0FC007C0
07E00F80
01F83F00
007FFC00
00078000
ENDCHAR
STARTCHAR 0050
ENCODING 80
SWIDTH 607 0
DWIDTH 27 0
BBX 25 29 1 0
BITMAP
7FFFF000
0FE7FC00
0FE0FE00
0FE07F00
0FE07F00
0FE07F80
0FE03F80
0FE03F80
0FE03F80
0FE07F80
0FE07F00
0FE07F00
0FE0FE00
0FE1FC00
0FFFF000
0FFF0000
0FE00000
0FE00000
0FE00000
0FE00000
0FE00000
0FE00000
0FE00000
0FE00000
0FE00000
0FE00000
0FE00000
1FF00000
FFFE0000
ENDCHAR
STARTCHAR 0051
ENCODING 81
SWIDTH 787 0
DWIDTH 35 0
BBX 31 38 2 -8
BITMAP
001FF000
00FFFE00
03F01F00
07E00FC0
0FC007E0
1F8007F0
3F8003F8
3F8003F8
7F0001FC
7F0001FC
FF0001FC
FF0001FE
FF0001FE
FF0001FE
FF0001FE
FF0001FE
FF0001FE
FF0001FE
FF0001FE
FF0001FC
7F0001FC
7F0001FC
7F0003F8
3F8003F8
1F8003F0
1FC007E0
0FC007C0
07E00F80
01F83F00
007FFC00
000FE000
000FF000
0007F000
0007F800
0003FC00
0000FF00
00007FF8
00000FF0
ENDCHAR
STARTCHAR 0052
ENCODING 82
SWIDTH 720 0
DWIDTH 32 0
BBX 31 29 1 0
BITMAP
FFFFFC00
1FE0FF00
0FE03F80
0FE01FC0
0FE01FC0
0FE00FE0
0FE00FE0
0FE00FE0
0FE00FE0
0FE00FE0
0FE01FC0
0FE01FC0
0FE03F80
0FE07F00
0FFFFC00
0FFFF800
0FE7F800
0FE3FC00
0FE1FE00
0FE1FE00
0FE0FF00
0FE07F80
0FE03FC0
0FE03FC0
0FE01FE0
0FE00FF0
0FE00FF8
1FF007F8
FFFE03FE
ENDCHAR
STARTCHAR 0053
ENCODING 83
SWIDTH 562 0
DWIDTH 25 0
BBX 21 31 2 -1
BITMAP
03F820
0FFE20
1E07E0
3C01E0
7800E0
780060
780060
FC0020
FE0020
FF0020
7FC000
7FF000
7FFC00
3FFF00
1FFF80
0FFFC0
03FFE0
00FFF0
007FF0
001FF8
8007F8
C003F8
C001F8
C000F8
E000F0
F000F0
F800E0
FC01E0
FF03C0
C7FF00
807800
ENDCHAR
STARTCHAR 0054
ENCODING 84
SWIDTH 675 0
DWIDTH 30 0
BBX 26 29 2 0
BITMAP
FFFFFFC0
F87F0FC0
E07F01C0
C07F00C0
807F00C0
807F0040
807F0040
007F0040
007F0000
007F0000
007F0000
007F0000
007F0000
007F0000
007F0000
007F0000
007F0000
007F0000
007F0000
007F0000
007F0000
007F0000
007F0000
007F0000
007F0000
007F0000
007F8000
00FF8000
07FFF800
ENDCHAR
STARTCHAR 0055
ENCODING 85
SWIDTH 720 0
DWIDTH 32 0
BBX 29 30 2 -1
BITMAP
FFFC0FF8
3FC001C0
1FC00180
1FC00180
1FC00180
1FC00180
1FC00180
1FC00180
1FC00180
1FC00180
1FC00180
1FC00180
1FC00180
1FC00180
1FC00180
1FC00180
1FC00180
1FC00180
1FC00180
1FC00180
1FC00180
1FC00180
1FC00180
1FC00380
0FE00300
0FE00700
07F00E00
03FFF800
00FFF000
001F0000
ENDCHAR
STARTCHAR 0056
ENCODING 86
SWIDTH 720 0
DWIDTH 32 0
BBX 30 30 1 -1
BITMAP
FFF807FC
3FC000F0
3FC00060
1FC00060
1FE000C0
0FE000C0
0FF00080
07F00180
07F00100
07F80300
03F80300
03FC0600
01FC0600
01FE0C00
00FE0C00
00FE0800
007F1800
007F1000
007FB000
003FB000
003FE000
001FE000
001FC000
000FC000
000F8000
000F8000
00070000
00070000
00020000
00020000
ENDCHAR
STARTCHAR 0057
ENCODING 87
SWIDTH 990 0
DWIDTH 44 0
BBX 43 30 1 -1
BITMAP
FFF1FFF80FE0
3FC03FC00380
3FC01FC00300
1FC01FE00300
1FC01FE00300
1FE00FE00200
0FE00FF00600
0FF007F00400
07F007F00C00
07F007F80C00
07F80FF80800
03F80FFC1800
03FC19FC1800
01FC19FC3000
01FC11FE3000
01FE30FE2000
00FE20FE6000
00FF607F6000
007F607F4000
007FC07FC000
007FC03FC000
003F803F8000
003F803F8000
001F801F0000
001F001F0000
001F000F0000
000E000E0000
000E000E0000
000400060000
000400040000
ENDCHAR
STARTCHAR 0058
ENCODING 88
SWIDTH 720 0
DWIDTH 32 0
BBX 32 29 0 0
BITMAP
7FFE07FC
1FF801F0
0FF801C0
07F801C0
07FC0180
03FE0300
01FE0600
00FF0C00
00FF9800
007F9800
003FF000
003FE000
001FE000
000FF000
000FF800
0007F800
0007FC00
000FFE00
0019FE00
0030FF00
0070FF80
00607F80
00C03FC0
01803FE0
03001FE0
07000FF0
0F000FF8
1F800FFC
FFF07FFF
ENDCHAR
STARTCHAR 0059
ENCODING 89
SWIDTH 720 0
DWIDTH 32 0
BBX 30 29 1 0
BITMAP
FFF803FC
3FE00070
1FE00060
1FE000E0
0FF000C0
07F00180
07F80180
03F80300
03FC0300
01FE0600
01FE0C00
00FF0C00
00FF1800
007F9800
007FB000
003FE000
001FE000
001FE000
001FE000
001FE000
001FE000
001FE000
001FE000
001FE000
001FE000
001FE000
001FE000
001FE000
01FFFE00
ENDCHAR
STARTCHAR 005A
ENCODING 90
SWIDTH 675 0
DWIDTH 30 0
BBX 28 29 1 0
BITMAP
1FFFFFC0
1F807F80
1C00FF00
1800FF00
3001FE00
3003FC00
2003FC00
2007F800
000FF800
000FF000
001FE000
001FE000
003FC000
007F8000
007F8000
00FF0000
01FF0000
01FE0000
03FC0010
03FC0010
07F80030
0FF00030
0FF00020
1FE00060
1FE000E0
3FC001E0
7F8007E0
7FFFFFE0
FFFFFFE0
ENDCHAR
STARTCHAR 005B
ENCODING 91
SWIDTH 337 0
DWIDTH 15 0
BBX 8 37 5 -8
BITMAP
FF
F8
F8
F8
F0
F0
F0
F0
F0
F0
F0
F0
F0
F0
F0
F0
F0
F0
F0
F0
F0
F0
F0
F0
F0
F0
F0
F0
F0
F0
F0
F0
F0
F8
F8
F8
FF
ENDCHAR
STARTCHAR 005C
ENCODING 92
SWIDTH 270 0
DWIDTH 12 0
BBX 12 31 0 -1
BITMAP
E000
6000
7000
7000
7000
3800
3800
3800
1800
1C00
1C00
0C00
0E00
0E00
0600
0700
0700
0300
0380
0380
0380
01C0
01C0
01C0
00E0
00E0
00E0
0060
0070
0070
0030
ENDCHAR
STARTCHAR 005D
ENCODING 93
SWIDTH 337 0
DWIDTH 15 0
BBX 9 37 1 -8
BITMAP
7F80
0F80
0F80
0F80
0F80
0F80
0F80
0F80
0F80
0F80
0F80
0F80
0F80
0F80
0F80
0F80
0F80
0F80
0F80
0F80
0F80
0F80
0F80
0F80
0F80
0F80
0F80
0F80
0F80
0F80
0F80
0F80
0F80
0F80
0F80
0F80
FF80
ENDCHAR
STARTCHAR 005E
ENCODING 94
SWIDTH 585 0
DWIDTH 26 0
BBX 20 16 3 14
BITMAP
006000
00F000
00F000
01F800
01F800
03BC00
079E00
070E00
0E0F00
0E0700
1C0780
1C0380
3803C0
7801C0
7000E0
F000F0
ENDCHAR
STARTCHAR 005F
ENCODING 95
SWIDTH 495 0
DWIDTH 22 0
BBX 23 3 0 -10
BITMAP
FFFFFE
FFFFFE
FFFFFE
ENDCHAR
STARTCHAR 0060
ENCODING 96
SWIDTH 337 0
DWIDTH 15 0
BBX 9 7 1 23
BITMAP
FE00
3E00
1E00
0F00
0700
0700
0380
ENDCHAR
STARTCHAR 0061
ENCODING 97
SWIDTH 495 0
DWIDTH 22 0
BBX 19 21 2 0
BITMAP
03F800
0FFC00
383F00
783F00
7C1F80
FC1F80
FC1F80
7C1F80
383F80
00FF80
039F80
0F1F80
1E1F80
3C1F80
7C1F80
FC1F80
FC1F80
FE7F80
FFDFE0
7F9FC0
3E0F80
ENDCHAR
STARTCHAR 0062
ENCODING 98
SWIDTH 562 0
DWIDTH 25 0
BBX 22 30 1 -1
BITMAP
FF0000
3F0000
3F0000
3F0000
3F0000
3F0000
3F0000
3F0000
3F0F00
3F3FC0
3F7FE0
3FC3F0
3F81F8
3F01F8
3F01F8
3F01FC
3F01FC
3F01FC
3F01FC
3F01FC
3F01FC
3F01F8
3F01F8
3F01F8
3F01F0
3F81F0
3F83E0
3DC7C0
38FF00
203800
ENDCHAR
STARTCHAR 0063
ENCODING 99
SWIDTH 450 0
DWIDTH 20 0
BBX 17 22 2 -1
BITMAP
01F000
0FFC00
1E3E00
3C3F00
3C3F00
7C3F00
7C1F00
FC0E00
FC0000
FC0000
FC0000
FC0000
FC0000
FE0000
FE0000
FF0000
7F0180
7F8300
3FFE00
1FFC00
0FF800
018000
ENDCHAR
STARTCHAR 0064
ENCODING 100
SWIDTH 562 0
DWIDTH 25 0
BBX 22 30 2 -1
BITMAP
003FE0
0007E0
0007E0
0007E0
0007E0
0007E0
0007E0
0007E0
03C7E0
0FF7E0
1F3FE0
3E0FE0
7E07E0
7C07E0
FC07E0
FC07E0
FC07E0
FC07E0
FC07E0
FC07E0
FC07E0
FC07E0
FC07E0
FE07E0
7E07E0
7E0FE0
3F1FF0
1FF7FC
0FE7E0
018400
ENDCHAR
STARTCHAR 0065
ENCODING 101
SWIDTH 450 0
DWIDTH 20 0
BBX 17 22 2 -1
BITMAP
03E000
0FF800
1E3C00
3C1E00
7C1F00
7C1F00
FC1F00
F81F00
F81F80
FFFF80
FC0000
FC0000
FC0000
FC0000
FE0000
FE0080
7F0100
7F8300
3FFE00
1FFC00
0FF800
018000
ENDCHAR
STARTCHAR 0066
ENCODING 102
SWIDTH 337 0
DWIDTH 15 0
BBX 17 30 1 0
BITMAP
00FE00
03CF00
078F80
0F8F80
0F8F80
0F8000
1F8000
1F8000
1F8000
1F8000
FFF000
FFF000
1F8000
1F8000
1F8000
1F8000
1F8000
1F8000
1F8000
1F8000
1F8000
1F8000
1F8000
1F8000
1F8000
1F8000
1F8000
1FC000
1FC000
FFF000
ENDCHAR
STARTCHAR 0067
ENCODING 103
SWIDTH 495 0
DWIDTH 22 0
BBX 19 31 2 -10
BITMAP
03E000
1FFFE0
3E1FE0
7C1F00
FC1F00
FC0F80
FC0F80
FC0F80
FC0F80
FC0F80
FC0F80
7C1F00
3E1E00
1F7C00
07F000
180000
300000
780000
7C0000
FFFF80
FFFFC0
7FFFE0
3FFFE0
1FFFE0
7003E0
E000E0
E000E0
F001C0
780380
3FFE00
01C000
ENDCHAR
STARTCHAR 0068
ENCODING 104
SWIDTH 562 0
DWIDTH 25 0
BBX 21 29 2 0
BITMAP
FF0000
7F0000
3F0000
3F0000
3F0000
3F0000
3F0000
3F0000
3F0F00
3F3F80
3F7FC0
3FCFE0
3F87E0
3F07E0
3F07E0
3F07E0
3F07E0
3F07E0
3F07E0
3F07E0
3F07E0
3F07E0
3F07E0
3F07E0
3F07E0
3F07E0
3F07E0
7F07F0
FFDFF8
ENDCHAR
STARTCHAR 0069
ENCODING 105
SWIDTH 270 0
DWIDTH 12 0
BBX 11 30 1 0
BITMAP
1E00
1F00
3F80
3F80
3F80
1F00
0400
0000
0000
0000
FF00
3F00
3F00
3F00
3F00
3F00
3F00
3F00
3F00
3F00
3F00
3F00
3F00
3F00
3F00
3F00
3F00
3F80
3F80
FFE0
ENDCHAR
STARTCHAR 006A
ENCODING 106
SWIDTH 337 0
DWIDTH 15 0
BBX 12 40 -1 -10
BITMAP
01E0
03F0
07F0
07F0
03F0
03E0
0080
0000
0000
0000
1FF0
07F0
03F0
03F0
03F0
03F0
03F0
03F0
03F0
03F0
03F0
03F0
03F0
03F0
03F0
03F0
03F0
03F0
03F0
03F0
03F0
03F0
03F0
03F0
F3F0
F3E0
F3E0
F3C0
7F80
0C00
ENDCHAR
STARTCHAR 006B
ENCODING 107
SWIDTH 562 0
DWIDTH 25 0
BBX 24 29 1 0
BITMAP
7F8000
3F8000
1F8000
1F8000
1F8000
1F8000
1F8000
1F8000
1F8000
1F87FC
1F81F0
1F80C0
1F8180
1F8300
1F8600
1F8C00
1F9E00
1FBE00
1FFF00
1FFF80
1F9F80
1F9FC0
1F8FE0
1F87E0
1F87F0
1F83F8
1F81FC
3F81FC
FFE3FF
ENDCHAR
STARTCHAR 006C
ENCODING 108
SWIDTH 270 0
DWIDTH 12 0
BBX 11 29 1 0
BITMAP
FF00
3F00
3F00
3F00
3F00
3F00
3F00
3F00
3F00
3F00
3F00
3F00
3F00
3F00
3F00
3F00
3F00
3F00
3F00
3F00
3F00
3F00
3F00
3F00
3F00
3F00
3F80
3F80
FFE0
ENDCHAR
STARTCHAR 006D
ENCODING 109
SWIDTH 832 0
DWIDTH 37 0
BBX 34 21 2 0
BITMAP
000F00F000
FF3FC3FC00
3F7FE7FE00
3FC7EC7E00
3F87F87E00
3F03F03F00
3F03F03F00
3F03F03F00
3F03F03F00
3F03F03F00
3F03F03F00
3F03F03F00
3F03F03F00
3F03F03F00
3F03F03F00
3F03F03F00
3F03F03F00
3F03F03F00
3F03F07F00
7F07F07F00
FFCFFDFFC0
ENDCHAR
STARTCHAR 006E
ENCODING 110
SWIDTH 562 0
DWIDTH 25 0
BBX 21 21 2 0
BITMAP
000F00
FF3F80
7F7FC0
3FCFE0
3F87E0
3F07E0
3F07E0
3F07E0
3F07E0
3F07E0
3F07E0
3F07E0
3F07E0
3F07E0
3F07E0
3F07E0
3F07E0
3F07E0
3F07E0
7F07F0
FFDFF8
ENDCHAR
STARTCHAR 006F
ENCODING 111
SWIDTH 495 0
DWIDTH 22 0
BBX 19 22 2 -1
BITMAP
03F000
0FFC00
1E1E00
3E0F00
7C0F80
7C0FC0
FC0FC0
FC0FC0
FC0FC0
FC0FE0
FC0FE0
FC0FE0
FC0FE0
FC0FC0
FC0FC0
FC0FC0
7C0F80
7C0F80
3E1F00
1F1E00
0FFC00
00C000
ENDCHAR
STARTCHAR 0070
ENCODING 112
SWIDTH 562 0
DWIDTH 25 0
BBX 22 31 1 -10
BITMAP
000F00
FF3FC0
3F7FE0
3FC3F0
3F83F0
3F81F8
3F01F8
3F01F8
3F01FC
3F01FC
3F01FC
3F01FC
3F01FC
3F01FC
3F01F8
3F01F8
3F01F8
3F81F0
3FC3F0
3F7FE0
3F3FC0
3F0400
3F0000
3F0000
3F0000
3F0000
3F0000
3F0000
3F8000
7FC000
FFE000
ENDCHAR
STARTCHAR 0071
ENCODING 113
SWIDTH 562 0
DWIDTH 25 0
BBX 22 31 2 -10
BITMAP
01F020
07FCE0
1F0FE0
1E07E0
3E07E0
7E07E0
7C07E0
FC07E0
FC07E0
FC07E0
FC07E0
FC07E0
FC07E0
FC07E0
FC07E0
FC07E0
7E07E0
7E07E0
3F1FE0
3FF7E0
0FE7E0
0307E0
0007E0
0007E0
0007E0
0007E0
0007E0
0007E0
0007E0
001FF8
003FFC
ENDCHAR
STARTCHAR 0072
ENCODING 114
SWIDTH 450 0
DWIDTH 20 0
BBX 17 21 2 0
BITMAP
000700
FF1F80
3F3F80
3F7F80
3FEF80
3F8700
3F8000
3F0000
3F0000
3F0000
3F0000
3F0000
3F0000
3F0000
3F0000
3F0000
3F0000
3F0000
3F0000
7F0000
FFE000
ENDCHAR
STARTCHAR 0073
ENCODING 115
SWIDTH 382 0
DWIDTH 17 0
BBX 14 22 2 -1
BITMAP
0F10
3FF0
7870
F030
F018
F818
FE08
FF00
FF80
7FE0
7FF0
1FF8
0FF8
07FC
81FC
80FC
C07C
E078
E078
F8F0
FFE0
8300
ENDCHAR
STARTCHAR 0074
ENCODING 116
SWIDTH 337 0
DWIDTH 15 0
BBX 13 28 1 0
BITMAP
0080
0180
0180
0380
0780
0F80
1F80
3F80
7FF8
FFF8
3F80
3F80
3F80
3F80
3F80
3F80
3F80
3F80
3F80
3F80
3F80
3F80
1F80
1F80
1F88
1F98
0FF0
07E0
ENDCHAR
STARTCHAR 0075
ENCODING 117
SWIDTH 562 0
DWIDTH 25 0
BBX 22 21 1 -1
BITMAP
FF8FF0
3F83F0
3F83F0
1F83F0
1F83F0
1F83F0
1F83F0
1F83F0
1F83F0
1F83F0
1F83F0
1F83F0
1F83F0
1F83F0
1F83F0
1F83F0
1F87F0
1FDFF0
0FFBF8
07F3FC
018000
ENDCHAR
STARTCHAR 0076
ENCODING 118
SWIDTH 495 0
DWIDTH 22 0
BBX 22 21 0 -1
BITMAP
FFE1FC
3F8070
1F8060
1FC060
0FC060
0FC040
0FE0C0
07E080
07F180
03F100
03FB00
01FB00
01FE00
00FE00
00FC00
00FC00
007800
007800
003800
003000
001000
ENDCHAR
STARTCHAR 0077
ENCODING 119
SWIDTH 720 0
DWIDTH 32 0
BBX 32 21 0 -1
BITMAP
FFEFFE3F
3F83F80C
1F81F808
1F81FC18
0FC1FC18
0FC1FC10
0FE3FE30
07E27E20
07E27E20
07F67F60
03F43F40
03F43F40
03FC1FC0
01F81F80
01F81F80
00F00F80
00F00F00
00F00F00
00600700
00600600
00600200
ENDCHAR
STARTCHAR 0078
ENCODING 120
SWIDTH 495 0
DWIDTH 22 0
BBX 21 20 1 0
BITMAP
FFEFF0
3F8380
1FC300
1FC200
0FE400
07EC00
07F800
03F800
03F800
01FC00
01FC00
00FE00
01FE00
017F00
037F00
063F80
041F80
0C1FC0
1C1FE0
FF7FF8
ENDCHAR
STARTCHAR 0079
ENCODING 121
SWIDTH 495 0
DWIDTH 22 0
BBX 22 30 0 -10
BITMAP
FFE1FC
3F8070
1F8060
1FC060
0FC060
0FE040
07E0C0
07E080
07F080
03F180
03F900
01FB00
01FE00
00FE00
00FE00
00FC00
007C00
007C00
003800
003800
001000
001000
003000
182000
3C6000
7C4000
7CC000
3F8000
3F0000
040000
ENDCHAR
STARTCHAR 007A
ENCODING 122
SWIDTH 450 0
DWIDTH 20 0
BBX 19 20 0 0
BITMAP
3FFFE0
381FC0
301FC0
203F80
203F00
207F00
00FE00
00FE00
01FC00
01F800
03F800
07F000
07F000
0FE020
1FC020
1FC060
3F80C0
3F81C0
7F1FC0
FFFFC0
ENDCHAR
STARTCHAR 007B
ENCODING 123
SWIDTH 405 0
DWIDTH 18 0
BBX 12 39 4 -9
BITMAP
00F0
03C0
0700
0F00
1E00
1E00
1F00
1F00
1F00
1F00
1F00
0F00
0F00
0F00
0F00
0E00
1E00
3C00
7000
C000
7000
1C00
1E00
0F00
0F00
0F00
0F00
1F00
1F00
1F00
1F00
1F00
1E00
1E00
1F00
0F00
0700
03C0
00F0
ENDCHAR
STARTCHAR 007C
ENCODING 124
SWIDTH 225 0
DWIDTH 10 0
BBX 3 40 3 -10
BITMAP
E0
E0
E0
E0
E0
E0
E0
E0
E0
E0
E0
E0
E0
E0
E0
E0
E0
E0
E0
E0
E0
E0
E0
E0
E0
E0
E0
E0
E0
E0
E0
E0
E0
E0
E0
E0
E0
E0
E0
E0
ENDCHAR
STARTCHAR 007D
ENCODING 125
SWIDTH 405 0
DWIDTH 18 0
BBX 12 39 2 -9
BITMAP
F000
3C00
1E00
0F00
0F00
0F80
0F80
0F80
0F80
0F80
1F00
1F00
1F00
1F00
0F00
0F00
0700
0380
00E0
0030
01E0
0380
0700
0F00
0F00
1F00
1F00
1F00
1F00
1F80
0F80
0F80
0F80
0F80
0F00
0F00
1E00
3C00
E000
ENDCHAR
STARTCHAR 007E
ENCODING 126
SWIDTH 517 0
DWIDTH 23 0
BBX 24 7 0 8
BITMAP
1FC001
3FF803
7FFE06
60FFDE
401FFC
C007F8
C00060
ENDCHAR
STARTCHAR 00A0
ENCODING 160
SWIDTH 247 0
DWIDTH 11 0
BBX 0 0 0 0
BITMAP
ENDCHAR
STARTCHAR 00A1
ENCODING 161
SWIDTH 337 0
DWIDTH 15 0
BBX 7 31 4 -10
BITMAP
78
FC
FE
FE
FE
7C
38
00
00
00
10
10
10
10
38
38
38
38
78
7C
7C
7C
7C
FE
FE
FE
FE
FE
FE
7C
10
ENDCHAR
STARTCHAR 00A2
ENCODING 162
SWIDTH 495 0
DWIDTH 22 0
BBX 17 37 3 -8
BITMAP
000300
000200
000600
000400
000C00
000C00
000800
001800
01F800
07FC00
1E3E00
3C3F00
3C7F00
7C7F00
7C5F00
FCCE00
FC8000
FC8000
FD8000
FD0000
FF0000
FF0000
FE0000
7F0000
7F0180
7FC300
3FFE00
1FFC00
1FF800
188000
100000
300000
200000
600000
600000
400000
C00000
ENDCHAR
STARTCHAR 00A3
ENCODING 163
SWIDTH 495 0
DWIDTH 22 0
BBX 20 31 1 -1
BITMAP
007E00
01CF80
0387C0
0787C0
0787C0
0F87E0
0FC7C0
0FC3C0
0FC000
0FC000
0FC000
0FC000
0FE000
FFFE00
FFFE00
FFFE00
07E000
07E000
07E000
03E000
03E000
03E000
03C000
3FC010
7FE070
EFFFF0
C3FFF0
C3FFE0
C77FC0
7E3F80
100E00
ENDCHAR
STARTCHAR 00A4
ENCODING 164
SWIDTH 495 0
DWIDTH 22 0
BBX 21 21 1 4
BITMAP
400030
E1FC78
F7FFF0
7FFFE0
3E07C0
3801C0
7000E0
7000E0
700070
600070
E00070
600070
700060
7000E0
7801E0
3C01C0
3E07C0
7FFFE0
F7FEF0
E1F870
400020
ENDCHAR
STARTCHAR 00A5
ENCODING 165
SWIDTH 495 0
DWIDTH 22 0
BBX 22 29 0 0
BITMAP
FFE0FC
3F8038
3F8030
1F8020
1F8060
1FC060
0FC040
0FE0C0
07E0C0
07E080
07F180
03F180
03F100
03FB00
01FB00
01FA00
FFFFFC
00FE00
00FC00
00FC00
00FC00
FFFFFC
FFFFFC
00FC00
00FC00
00FC00
00FE00
01FE00
1FFFE0
ENDCHAR
STARTCHAR 00A6
ENCODING 166
SWIDTH 225 0
DWIDTH 10 0
BBX 3 40 3 -10
BITMAP
E0
E0
E0
E0
E0
E0
E0
E0
E0
E0
E0
E0
E0
E0
E0
E0
00
00
00
00
00
00
00
00
E0
E0
E0
E0
E0
E0
E0
E0
E0
E0
E0
E0
E0
E0
E0
E0
ENDCHAR
STARTCHAR 00A7
ENCODING 167
SWIDTH 495 0
DWIDTH 22 0
BBX 18 40 2 -10
BITMAP
03F800
0F3C00
1C0F00
3C0F00
380F80
7C0F80
7C0F00
7E0600
3F0000
3F8000
1FE000
0FF000
07FC00
1FFE00
39FF00
307F80
703F80
F01FC0
F00FC0
F007C0
F803C0
FC03C0
7F01C0
7F8380
3FC300
1FF600
0FFC00
07FC00
01FE00
00FF00
003F00
001F80
3C0F80
3E0780
3E0780
3C0700
3C0F00
1E1E00
0FFC00
00C000
ENDCHAR
STARTCHAR 00A8
ENCODING 168
SWIDTH 337 0
DWIDTH 15 0
BBX 14 6 0 24
BITMAP
3010
7C7C
7C7C
FC7C
7C7C
3838
ENDCHAR
STARTCHAR 00A9
ENCODING 169
SWIDTH 742 0
DWIDTH 33 0
BBX 31 31 1 -1
BITMAP
000FF000
007FFE00
01F00F00
038003C0
070000E0
0C000070
1807E230
383E1E18
30780E1C
70F0060C
60F0020C
61F00206
61E00006
C3E00006
C3E00006
C3E00006
C3E00006
C3E00006
61F00006
61F0000C
60F0000C
30F8040C
307C1818
181FF038
1C000030
0E000060
070001C0
03C00780
00FC3F00
003FFC00
0007C000
ENDCHAR
STARTCHAR 00AA
ENCODING 170
SWIDTH 292 0
DWIDTH 13 0
BBX 12 13 1 17
BITMAP
1F80
61C0
71E0
F1E0
71E0
07E0
1DE0
39E0
71E0
F1E0
FFE0
FDF0
7040
ENDCHAR
STARTCHAR 00AB
ENCODING 171
SWIDTH 495 0
DWIDTH 22 0
BBX 20 20 1 0
BITMAP
00C030
01C070
0180E0
0380E0
0701C0
0F03C0
1E0780
3E0F80
7C1F00
FC3E00
FC3F00
7C1F00
3E0F80
1E0780
0F03C0
0701C0
0380E0
018060
00C030
006030
ENDCHAR
STARTCHAR 00AC
ENCODING 172
SWIDTH 562 0
DWIDTH 25 0
BBX 24 10 1 10
BITMAP
FFFFFF
FFFFFF
FFFFFF
000007
000007
000007
000007
000007
000007
000007
ENDCHAR
STARTCHAR 00AD
ENCODING 173
SWIDTH 337 0
DWIDTH 15 0
BBX 13 4 1 8
BITMAP
FFF8
FFF8
FFF8
FFF8
ENDCHAR
STARTCHAR 00AE
ENCODING 174
SWIDTH 742 0
DWIDTH 33 0
BBX 31 31 1 -1
BITMAP
000FF000
007FFE00
01F00F00
038003C0
070000E0
0C000070
19FF8030
387CF818
307C3C1C
707C3E0C
607C3E0C
607C3E06
607C3E06
C07C3C06
C07C7806
C07FE006
C07DF006
C07CF006
607CF806
607C780C
607C7C0C
307C3C0C
307C3E18
19FF1F38
1C000030
0E000060
070001C0
03C00780
00FC3F00
003FFC00
0007C000
ENDCHAR
STARTCHAR 00AF
ENCODING 175
SWIDTH 495 0
DWIDTH 22 0
BBX 23 3 0 32
BITMAP
FFFFFE
FFFFFE
FFFFFE
ENDCHAR
STARTCHAR 00B0
ENCODING 176
SWIDTH 405 0
DWIDTH 18 0
BBX 15 15 1 15
BITMAP
07E0
1FF0
3FF8
783C
701E
700E
E00E
E00E
E00E
700E
701E
7C3C
3FF8
1FF0
07C0
ENDCHAR
STARTCHAR 00B1
ENCODING 177
SWIDTH 540 0
DWIDTH 24 0
BBX 24 24 0 3
BITMAP
001C00
001C00
001C00
001C00
001C00
001C00
001C00
001C00
001C00
001C00
001C00
FFFFFF
FFFFFF
FFFFFF
001C00
001C00
001C00
001C00
001C00
001C00
001C00
FFFFFF
FFFFFF
FFFFFF
ENDCHAR
STARTCHAR 00B2
ENCODING 178
SWIDTH 292 0
DWIDTH 13 0
BBX 11 16 1 14
BITMAP
1F00
7F80
7FC0
C7C0
83C0
03C0
03C0
0380
0700
0600
0C00
1820
3FE0
7FE0
FFC0
FFC0
ENDCHAR
STARTCHAR 00B3
ENCODING 179
SWIDTH 292 0
DWIDTH 13 0
BBX 12 16 0 14
BITMAP
0F80
1FE0
3FE0
41E0
01E0
01C0
03C0
0FE0
07F0
01F0
00F0
00F0
0060
F0E0
FDC0
3E00
ENDCHAR
STARTCHAR 00B4
ENCODING 180
SWIDTH 337 0
DWIDTH 15 0
BBX 8 7 5 23
BITMAP
3F
3E
7C
78
70
E0
C0
ENDCHAR
STARTCHAR 00B5
ENCODING 181
SWIDTH 585 0
DWIDTH 26 0
BBX 23 29 2 -10
BITMAP
7E07E0
7E07E0
7E07E0
7E07E0
7E07E0
7E07E0
7E07E0
7E07E0
7E07E0
7E07E0
7E07E0
7E07E0
7E07E0
7E07E0
7E07E2
7E0FE2
7F0FE6
7F3FFC
7FF7FC
7FC3F8
6200C0
600000
700000
F00000
F00000
F00000
F80000
F80000
F00000
ENDCHAR
STARTCHAR 00B6
ENCODING 182
SWIDTH 540 0
DWIDTH 24 0
BBX 24 39 0 -10
BITMAP
03FFFF
0FFC38
1FFC30
3FFC30
7FFC30
7FFC30
FFFC30
FFFC30
FFFC30
FFFC30
FFFC30
FFFC30
FFFC30
7FFC30
7FFC30
3FFC30
1FFC30
0FFC30
07FC30
003C30
000C30
000C30
000C30
000C30
000C30
000C30
000C30
000C30
000C30
000C30
000C30
000C30
000C30
000C30
000C30
000C30
000C30
000C30
000C30
ENDCHAR
STARTCHAR 00B7
ENCODING 183
SWIDTH 247 0
DWIDTH 11 0
BBX 7 7 2 11
BITMAP
7C
FE
FE
FE
FE
7C
38
ENDCHAR
STARTCHAR 00B8
ENCODING 184
SWIDTH 337 0
DWIDTH 15 0
BBX 8 8 3 -8
BITMAP
08
18
1E
3E
0F
0E
1E
FC
ENDCHAR
STARTCHAR 00B9
ENCODING 185
SWIDTH 292 0
DWIDTH 13 0
BBX 10 16 2 14
BITMAP
0600
3E00
FE00
1E00
1E00
1E00
1E00
1E00
1E00
1E00
1E00
1E00
1E00
1E00
3E00
FFC0
ENDCHAR
STARTCHAR 00BA
ENCODING 186
SWIDTH 337 0
DWIDTH 15 0
BBX 13 13 1 17
BITMAP
0F80
38E0
78E0
78F0
F0F0
F0F8
F0F8
F0F8
F0F0
70F0
78E0
38C0
0F80
ENDCHAR
STARTCHAR 00BB
ENCODING 187
SWIDTH 495 0
DWIDTH 22 0
BBX 20 20 1 0
BITMAP
C03000
603800
701C00
381E00
3C0F00
1E0F00
1E0780
0F07C0
0F83E0
07C3F0
07C3F0
0F83E0
0F07C0
1E0780
1C0F00
380E00
301C00
701800
E03000
C03000
ENDCHAR
STARTCHAR 00BC
ENCODING 188
SWIDTH 742 0
DWIDTH 33 0
BBX 30 31 2 -1
BITMAP
060000E0
3E0001C0
FE000380
1E000380
1E000700
1E000E00
1E000E00
1E001C00
1E003800
1E003800
1E007000
1E00E000
1E00E000
1E01C000
3E038000
FF838018
00070038
000E0078
000E00F8
001C01F8
00380378
00380278
00700678
00E00C78
00E01878
01C03FFC
03803FFC
03803FFC
07000078
0E000078
0E000078
ENDCHAR
STARTCHAR 00BD
ENCODING 189
SWIDTH 742 0
DWIDTH 33 0
BBX 30 31 2 -1
BITMAP
060001C0
3E0001C0
FE000380
1E000700
1E000700
1E000E00
1E001C00
1E001C00
1E003800
1E007000
1E007000
1E00E000
1E01C000
1E01C000
3E038000
FF870080
000707F0
000E0FF8
001C1CF8
001C1078
00380078
00700078
00700070
00E00070
01C000E0
01C001C0
03800384
0700060C
070007FC
0E000FFC
1C001FF8
ENDCHAR
STARTCHAR 00BE
ENCODING 190
SWIDTH 742 0
DWIDTH 33 0
BBX 32 31 0 -1
BITMAP
0F800038
1FE00070
3FE000E0
41E000E0
01E001C0
01C00380
03C00380
0FE00700
07F00E00
01F00E00
00F01C00
00F03800
00603800
F0E07000
FDC0E000
3E00E006
0001C00E
0003801E
0003803E
0007007E
000E00DE
000E009E
001C019E
0038031E
0038061E
00700FFF
00E00FFF
00E00FFF
01C0001E
0380001E
0380001E
ENDCHAR
STARTCHAR 00BF
ENCODING 191
SWIDTH 495 0
DWIDTH 22 0
BBX 17 31 2 -10
BITMAP
00F000
01F800
01F800
03F800
01F800
01F800
00F000
000000
000000
000000
002000
002000
006000
004000
00C000
01C000
078000
0F8000
1F0000
3F0000
7E0000
7E0700
7E0F80
FE0F80
7E0F80
7E0780
7F0780
3F0700
1F8600
0FFC00
00C000
ENDCHAR
STARTCHAR 00C0
ENCODING 192
SWIDTH 720 0
DWIDTH 32 0
BBX 32 39 0 0
BITMAP
003F0000
001F8000
000F8000
00078000
0003C000
0001C000
0000C000
00000000
00000000
00008000
00018000
0001C000
0003C000
0003C000
0003E000
0007E000
0007F000
000FF000
000FF800
001BF800
001BF800
0033FC00
0031FC00
0061FE00
0060FE00
0040FF00
00C07F00
00C07F80
01807F80
01FFFF80
03FFFFC0
03001FC0
06001FE0
06000FE0
04000FF0
0C0007F0
1C0007F8
3E0007FC
FFC07FFF
ENDCHAR
STARTCHAR 00C1
ENCODING 193
SWIDTH 720 0
DWIDTH 32 0
BBX 32 39 0 0
BITMAP
0000FC00
0001F800
0001F000
0001E000
0003C000
00038000
00030000
00000000
00000000
00008000
00018000
0001C000
0003C000
0003C000
0003E000
0007E000
0007F000
000FF000
000FF800
001BF800
001BF800
0033FC00
0031FC00
0061FE00
0060FE00
0040FF00
00C07F00
00C07F80
01807F80
01FFFF80
03FFFFC0
03001FC0
06001FE0
06000FE0
04000FF0
0C0007F0
1C0007F8
3E0007FC
FFC07FFF
ENDCHAR
STARTCHAR 00C2
ENCODING 194
SWIDTH 720 0
DWIDTH 32 0
BBX 32 39 0 0
BITMAP
0007E000
000FF000
000FF000
001FF800
001E7800
00381C00
00300C00
00600600
00000000
00008000
00018000
0001C000
0003C000
0003C000
0003E000
0007E000
0007F000
000FF000
000FF800
001BF800
001BF800
0033FC00
0031FC00
0061FE00
0060FE00
0040FF00
00C07F00
00C07F80
01807F80
01FFFF80
03FFFFC0
03001FC0
06001FE0
06000FE0
04000FF0
0C0007F0
1C0007F8
3E0007FC
FFC07FFF
ENDCHAR
STARTCHAR 00C3
ENCODING 195
SWIDTH 720 0
DWIDTH 32 0
BBX 32 38 0 0
BITMAP
000F0200
003FC600
003FFE00
007FFC00
0063FC00
0040F000
00000000
00000000
00008000
00018000
0001C000
0003C000
0003C000
0003E000
0007E000
0007F000
000FF000
000FF800
001BF800
001BF800
0033FC00
0031FC00
0061FE00
0060FE00
0040FF00
00C07F00
00C07F80
01807F80
01FFFF80
03FFFFC0
03001FC0
06001FE0
06000FE0
04000FF0
0C0007F0
1C0007F8
3E0007FC
FFC07FFF
ENDCHAR
STARTCHAR 00C4
ENCODING 196
SWIDTH 720 0
DWIDTH 32 0
BBX 32 38 0 0
BITMAP
003C3C00
007E7E00
007E7E00
007E7E00
003C3C00
00181800
00000000
00000000
00008000
00018000
0001C000
0003C000
0003C000
0003E000
0007E000
0007F000
000FF000
000FF800
001BF800
001BF800
0033FC00
0031FC00
0061FE00
0060FE00
0040FF00
00C07F00
00C07F80
01807F80
01FFFF80
03FFFFC0
03001FC0
06001FE0
06000FE0
04000FF0
0C0007F0
1C0007F8
3E0007FC
FFC07FFF
ENDCHAR
STARTCHAR 00C5
ENCODING 197
SWIDTH 720 0
DWIDTH 32 0
BBX 32 37 0 0
BITMAP
0003E000
00067000
000C1800
000C1800
00081800
000C1800
000E3000
0007E000
00018000
0001C000
0003C000
0003C000
0003E000
0007E000
0007F000
000FF000
000FF800
001BF800
001BF800
0033FC00
0031FC00
0061FE00
0060FE00
0040FF00
00C07F00
00C07F80
01807F80
01FFFF80
03FFFFC0
03001FC0
06001FE0
06000FE0
04000FF0
0C0007F0
1C0007F8
3E0007FC
FFC07FFF
ENDCHAR
STARTCHAR 00C6
ENCODING 198
SWIDTH 990 0
DWIDTH 44 0
BBX 42 29 0 0
BITMAP
0003FFFFFF00
000077F07F00
000037F00F00
000067F00700
000067F00300
0000C7F00100
000187F00100
000187F04100
000307F04000
000607F04000
000607F04000
000C07F0C000
001807F1C000
001807FFC000
003007FFC000
003FFFF1C000
006007F0C000
00C007F04000
00C007F04000
018007F04000
030007F04040
030007F00040
060007F00040
060007F000C0
0C0007F001C0
1C0007F003C0
1C000FF00F80
7C000FFFFF80
FF81FFFFFF80
ENDCHAR
STARTCHAR 00C7
ENCODING 199
SWIDTH 720 0
DWIDTH 32 0
BBX 28 38 2 -8
BITMAP
000FF010
007FFE30
01FC07F0
03F001F0
07E000F0
0FC00070
1F800070
3F800030
3F800030
7F000010
7F000000
FF000000
FF000000
FF000000
FF000000
FF000000
FF000000
FF000000
FF000000
FF000000
FF000000
7F000000
7F800000
3F800000
3FC00020
1FC00060
0FE000C0
07F80380
01FF3F00
007FFC00
0003C000
00030000
0007C000
0007C000
0001C000
0001C000
0003C000
001F8000
ENDCHAR
STARTCHAR 00C8
ENCODING 200
SWIDTH 675 0
DWIDTH 30 0
BBX 27 39 1 0
BITMAP
00FC0000
007C0000
003E0000
001E0000
000E0000
00070000
00030000
00000000
00000000
00000000
FFFFFF80
0FE07F80
0FE00780
0FE00380
0FE00380
0FE00180
0FE04180
0FE04080
0FE04000
0FE04000
0FE0C000
0FE0C000
0FE1C000
0FFFC000
0FFFC000
0FE3C000
0FE0C000
0FE0C000
0FE04000
0FE04000
0FE04020
0FE04040
0FE00040
0FE000C0
0FE001C0
0FE003C0
0FF007C0
1FFFFFC0
FFFFFF80
ENDCHAR
STARTCHAR 00C9
ENCODING 201
SWIDTH 675 0
DWIDTH 30 0
BBX 27 39 1 0
BITMAP
0003F000
0007E000
0007C000
00078000
000F0000
000E0000
000C0000
00000000
00000000
00000000
FFFFFF80
0FE07F80
0FE00780
0FE00380
0FE00380
0FE00180
0FE04180
0FE04080
0FE04000
0FE04000
0FE0C000
0FE0C000
0FE1C000
0FFFC000
0FFFC000
0FE3C000
0FE0C000
0FE0C000
0FE04000
0FE04000
0FE04020
0FE04040
0FE00040
0FE000C0
0FE001C0
0FE003C0
0FF007C0
1FFFFFC0
FFFFFF80
ENDCHAR
STARTCHAR 00CA
ENCODING 202
SWIDTH 675 0
DWIDTH 30 0
BBX 27 39 1 0
BITMAP
001F8000
003F8000
003FC000
007FC000
0079E000
00E0F000
01C03000
01801800
00000000
00000000
FFFFFF80
0FE07F80
0FE00780
0FE00380
0FE00380
0FE00180
0FE04180
0FE04080
0FE04000
0FE04000
0FE0C000
0FE0C000
0FE1C000
0FFFC000
0FFFC000
0FE3C000
0FE0C000
0FE0C000
0FE04000
0FE04000
0FE04020
0FE04040
0FE00040
0FE000C0
0FE001C0
0FE003C0
0FF007C0
1FFFFFC0
FFFFFF80
ENDCHAR
STARTCHAR 00CB
ENCODING 203
SWIDTH 675 0
DWIDTH 30 0
BBX 27 38 1 0
BITMAP
00F0F000
01F1F800
01F9F800
01F9F800
01F0F000
00606000
00000000
00000000
00000000
FFFFFF80
0FE07F80
0FE00780
0FE00380
0FE00380
0FE00180
0FE04180
0FE04080
0FE04000
0FE04000
0FE0C000
0FE0C000
0FE1C000
0FFFC000
0FFFC000
0FE3C000
0FE0C000
0FE0C000
0FE04000
0FE04000
0FE04020
0FE04040
0FE00040
0FE000C0
0FE001C0
0FE003C0
0FF007C0
1FFFFFC0
FFFFFF80
ENDCHAR
STARTCHAR 00CC
ENCODING 204
SWIDTH 382 0
DWIDTH 17 0
BBX 15 39 1 0
BITMAP
7F00
1F00
0F00
0780
0380
0180
00C0
0000
0000
0000
FFFE
0FF0
0FE0
0FE0
0FE0
0FE0
0FE0
0FE0
0FE0
0FE0
0FE0
0FE0
0FE0
0FE0
0FE0
0FE0
0FE0
0FE0
0FE0
0FE0
0FE0
0FE0
0FE0
0FE0
0FE0
0FE0
0FE0
1FF0
FFFE
ENDCHAR
STARTCHAR 00CD
ENCODING 205
SWIDTH 382 0
DWIDTH 17 0
BBX 15 39 1 0
BITMAP
01FC
01F0
01E0
03C0
0380
0300
0600
0000
0000
0000
FFFE
0FF0
0FE0
0FE0
0FE0
0FE0
0FE0
0FE0
0FE0
0FE0
0FE0
0FE0
0FE0
0FE0
0FE0
0FE0
0FE0
0FE0
0FE0
0FE0
0FE0
0FE0
0FE0
0FE0
0FE0
0FE0
0FE0
1FF0
FFFE
ENDCHAR
STARTCHAR 00CE
ENCODING 206
SWIDTH 382 0
DWIDTH 17 0
BBX 15 39 1 0
BITMAP
07E0
0FE0
1FF0
1EF0
3C78
3838
701C
600C
0000
0000
FFFE
0FF0
0FE0
0FE0
0FE0
0FE0
0FE0
0FE0
0FE0
0FE0
0FE0
0FE0
0FE0
0FE0
0FE0
0FE0
0FE0
0FE0
0FE0
0FE0
0FE0
0FE0
0FE0
0FE0
0FE0
0FE0
0FE0
1FF0
FFFE
ENDCHAR
STARTCHAR 00CF
ENCODING 207
SWIDTH 382 0
DWIDTH 17 0
BBX 15 38 1 0
BITMAP
3838
7C7C
7C7E
7C7C
7C7C
1018
0000
0000
0000
FFFE
0FF0
0FE0
0FE0
0FE0
0FE0
0FE0
0FE0
0FE0
0FE0
0FE0
0FE0
0FE0
0FE0
0FE0
0FE0
0FE0
0FE0
0FE0
0FE0
0FE0
0FE0
0FE0
0FE0
0FE0
0FE0
0FE0
1FF0
FFFE
ENDCHAR
STARTCHAR 00D0
ENCODING 208
SWIDTH 720 0
DWIDTH 32 0
BBX 29 29 1 0
BITMAP
FFFFF000
1FE1FC00
0FE07F00
0FE03F80
0FE01FC0
0FE00FE0
0FE00FE0
0FE007F0
0FE007F0
0FE007F8
0FE007F8
0FE007F8
0FE003F8
FFFFC3F8
0FE003F8
0FE003F8
0FE003F8
0FE007F8
0FE007F8
0FE007F8
0FE007F0
0FE007F0
0FE00FE0
0FE00FE0
0FE01FC0
0FE01F80
0FE07E00
1FFFF800
FFFFC000
ENDCHAR
STARTCHAR 00D1
ENCODING 209
SWIDTH 720 0
DWIDTH 32 0
BBX 30 39 1 -1
BITMAP
001E0400
007F8C00
007FFC00
00FFF800
00C7F800
0081E000
00000000
00000000
00000000
FFE007FC
1FF000E0
1FF000C0
0FF800C0
0FFC0040
0FFE0040
0DFF0040
0DFF0040
0CFF8040
0C7FC040
0C3FE040
0C1FF040
0C1FF040
0C0FF840
0C07FC40
0C03FE40
0C01FF40
0C00FF40
0C00FFC0
0C007FC0
0C003FC0
0C001FC0
0C000FC0
0C000FC0
0C0007C0
0C0003C0
0C0001C0
1E0000C0
FFC000C0
00000040
ENDCHAR
STARTCHAR 00D2
ENCODING 210
SWIDTH 787 0
DWIDTH 35 0
BBX 31 40 2 -1
BITMAP
007F0000
001F0000
000F0000
00078000
00078000
00038000
0001C000
00000000
00000000
001FF000
00FFFE00
03F01F00
07E00FC0
0FC007E0
1F8007F0
3F8003F8
3F8003F8
7F0001FC
7F0001FC
FF0001FC
FF0001FE
FF0001FE
FF0001FE
FF0001FE
FF0001FE
FF0001FE
FF0001FE
FF0001FE
FF0001FC
7F0001FC
7F0001FC
7F0003F8
3F8003F8
1F8003F0
1FC007E0
0FC007C0
07E00F80
01F83F00
007FFC00
00078000
ENDCHAR
STARTCHAR 00D3
ENCODING 211
SWIDTH 787 0
DWIDTH 35 0
BBX 31 40 2 -1
BITMAP
0001F800
0001F000
0003E000
0003C000
00038000
00070000
00060000
00000000
00000000
001FF000
00FFFE00
03F01F00
07E00FC0
0FC007E0
1F8007F0
3F8003F8
3F8003F8
7F0001FC
7F0001FC
FF0001FC
FF0001FE
FF0001FE
FF0001FE
FF0001FE
FF0001FE
FF0001FE
FF0001FE
FF0001FE
FF0001FC
7F0001FC
7F0001FC
7F0003F8
3F8003F8
1F8003F0
1FC007E0
0FC007C0
07E00F80
01F83F00
007FFC00
00078000
ENDCHAR
STARTCHAR 00D4
ENCODING 212
SWIDTH 787 0
DWIDTH 35 0
BBX 31 40 2 -1
BITMAP
000FC000
000FE000
001FE000
001EF000
003C7000
00383800
00701C00
00C00C00
00000000
001FF000
00FFFE00
03F01F00
07E00FC0
0FC007E0
1F8007F0
3F8003F8
3F8003F8
7F0001FC
7F0001FC
FF0001FC
FF0001FE
FF0001FE
FF0001FE
FF0001FE
FF0001FE
FF0001FE
FF0001FE
FF0001FE
FF0001FC
7F0001FC
7F0001FC
7F0003F8
3F8003F8
1F8003F0
1FC007E0
0FC007C0
07E00F80
01F83F00
007FFC00
00078000
ENDCHAR
STARTCHAR 00D5
ENCODING 213
SWIDTH 787 0
DWIDTH 35 0
BBX 31 39 2 -1
BITMAP
001E0400
003FCC00
007FFC00
007FFC00
00C7F800
00C1F000
00000000
00000000
001FF000
00FFFE00
03F01F00
07E00FC0
0FC007E0
1F8007F0
3F8003F8
3F8003F8
7F0001FC
7F0001FC
FF0001FC
FF0001FE
FF0001FE
FF0001FE
FF0001FE
FF0001FE
FF0001FE
FF0001FE
FF0001FE
FF0001FC
7F0001FC
7F0001FC
7F0003F8
3F8003F8
1F8003F0
1FC007E0
0FC007C0
07E00F80
01F83F00
007FFC00
00078000
ENDCHAR
STARTCHAR 00D6
ENCODING 214
SWIDTH 787 0
DWIDTH 35 0
BBX 31 39 2 -1
BITMAP
00383800
007C7C00
00FC7C00
007C7C00
007C7C00
00303000
00000000
00000000
001FF000
00FFFE00
03F01F00
07E00FC0
0FC007E0
1F8007F0
3F8003F8
3F8003F8
7F0001FC
7F0001FC
FF0001FC
FF0001FE
FF0001FE
FF0001FE
FF0001FE
FF0001FE
FF0001FE
FF0001FE
FF0001FE
FF0001FC
7F0001FC
7F0001FC
7F0003F8
3F8003F8
1F8003F0
1FC007E0
0FC007C0
07E00F80
01F83F00
007FFC00
00078000
ENDCHAR
STARTCHAR 00D7
ENCODING 215
SWIDTH 562 0
DWIDTH 25 0
BBX 18 19 4 5
BITMAP
400080
E001C0
F003C0
780780
3C1F00
1E3E00
0F7C00
07F800
03F000
01E000
03F000
07F800
0F3C00
1E1E00
3C0F00
780780
F003C0
E00180
400000
ENDCHAR
STARTCHAR 00D8
ENCODING 216
SWIDTH 787 0
DWIDTH 35 0
BBX 31 33 2 -2
BITMAP
00000008
001FF018
00FFFE38
03F01F30
07E00FE0
0FC007E0
1F8007F0
3F8003F0
3F8007F8
7F000FFC
7F001DFC
FF0019FC
FF0031FE
FF0061FE
FF00C1FE
FF0181FE
FF0301FE
FF0701FE
FF0601FE
FF0C01FE
FF1801FC
7F3001FC
7F6001FC
7FC003F8
3FC003F8
1F8003F0
1FC007E0
0FC007C0
0FE00F80
19F83F00
307FFC00
60078000
20000000
ENDCHAR
STARTCHAR 00D9
ENCODING 217
SWIDTH 720 0
DWIDTH 32 0
BBX 29 40 2 -1
BITMAP
00FE0000
003E0000
001E0000
000F0000
00070000
00030000
00018000
00000000
00000000
00000000
FFFC0FF8
3FC001C0
1FC00180
1FC00180
1FC00180
1FC00180
1FC00180
1FC00180
1FC00180
1FC00180
1FC00180
1FC00180
1FC00180
1FC00180
1FC00180
1FC00180
1FC00180
1FC00180
1FC00180
1FC00180
1FC00180
1FC00180
1FC00180
1FC00380
0FE00300
0FE00700
07F00E00
03FFF800
00FFF000
001F0000
ENDCHAR
STARTCHAR 00DA
ENCODING 218
SWIDTH 720 0
DWIDTH 32 0
BBX 29 40 2 -1
BITMAP
0007F000
0007C000
00078000
000F0000
000E0000
000C0000
00180000
00000000
00000000
00000000
FFFC0FF8
3FC001C0
1FC00180
1FC00180
1FC00180
1FC00180
1FC00180
1FC00180
1FC00180
1FC00180
1FC00180
1FC00180
1FC00180
1FC00180
1FC00180
1FC00180
1FC00180
1FC00180
1FC00180
1FC00180
1FC00180
1FC00180
1FC00180
1FC00380
0FE00300
0FE00700
07F00E00
03FFF800
00FFF000
001F0000
ENDCHAR
STARTCHAR 00DB
ENCODING 219
SWIDTH 720 0
DWIDTH 32 0
BBX 29 40 2 -1
BITMAP
000FC000
001FC000
001FE000
003FE000
0078F000
00707000
00E03800
00C00800
00000000
00000000
FFFC0FF8
3FC001C0
1FC00180
1FC00180
1FC00180
1FC00180
1FC00180
1FC00180
1FC00180
1FC00180
1FC00180
1FC00180
1FC00180
1FC00180
1FC00180
1FC00180
1FC00180
1FC00180
1FC00180
1FC00180
1FC00180
1FC00180
1FC00180
1FC00380
0FE00300
0FE00700
07F00E00
03FFF800
00FFF000
001F0000
ENDCHAR
STARTCHAR 00DC
ENCODING 220
SWIDTH 720 0
DWIDTH 32 0
BBX 29 39 2 -1
BITMAP
00F0F000
01F9F800
01F9F800
01F9F800
00F0F000
00606000
00000000
00000000
00000000
FFFC0FF8
3FC001C0
1FC00180
1FC00180
1FC00180
1FC00180
1FC00180
1FC00180
1FC00180
1FC00180
1FC00180
1FC00180
1FC00180
1FC00180
1FC00180
1FC00180
1FC00180
1FC00180
1FC00180
1FC00180
1FC00180
1FC00180
1FC00180
1FC00380
0FE00300
0FE00700
07F00E00
03FFF800
00FFF000
001F0000
ENDCHAR
STARTCHAR 00DD
ENCODING 221
SWIDTH 720 0
DWIDTH 32 0
BBX 30 39 1 0
BITMAP
0000FC00
0001F800
0001F000
0001E000
0003C000
00038000
00030000
00000000
00000000
00000000
FFF803FC
3FE00070
1FE00060
1FE000E0
0FF000C0
07F00180
07F80180
03F80300
03FC0300
01FE0600
01FE0C00
00FF0C00
00FF1800
007F9800
007FB000
003FE000
001FE000
001FE000
001FE000
001FE000
001FE000
001FE000
001FE000
001FE000
001FE000
001FE000
001FE000
001FE000
01FFFE00
ENDCHAR
STARTCHAR 00DE
ENCODING 222
SWIDTH 607 0
DWIDTH 27 0
BBX 25 29 1 0
BITMAP
FFFC0000
0FE00000
0FE00000
0FE00000
0FE00000
0FE00000
0FFF8000
0FFFF800
0FE1FC00
0FE0FE00
0FE07F00
0FE07F00
0FE07F80
0FE07F80
0FE07F80
0FE07F80
0FE07F00
0FE07F00
0FE07E00
0FE0FE00
0FE7F800
0FFFE000
0FE00000
0FE00000
0FE00000
0FE00000
0FE00000
1FF00000
FFFE0000
ENDCHAR
STARTCHAR 00DF
ENCODING 223
SWIDTH 562 0
DWIDTH 25 0
BBX 22 30 1 0
BITMAP
00FF00
03EFC0
0F83E0
1F83F0
1F03F0
1F03F0
1F03F0
3F03F0
3F03F0
3F03E0
3F03E0
3F0F80
3F0F80
3F03E0
3F01F0
3F01F0
3F01F8
3F01F8
3F01F8
3F01F8
3F01FC
3F01FC
3F01F8
3F01F8
3F00F8
3F1CF8
3F3CF0
3F3CF0
3F1CE0
FF0F80
ENDCHAR
STARTCHAR 00E0
ENCODING 224
SWIDTH 495 0
DWIDTH 22 0
BBX 19 30 2 0
BITMAP
1F8000
0FC000
07C000
03C000
01E000
00E000
006000
000000
000000
03F800
0FFC00
383F00
783F00
7C1F80
FC1F80
FC1F80
7C1F80
383F80
00FF80
039F80
0F1F80
1E1F80
3C1F80
7C1F80
FC1F80
FC1F80
FE7F80
FFDFE0
7F9FC0
3E0F80
ENDCHAR
STARTCHAR 00E1
ENCODING 225
SWIDTH 495 0
DWIDTH 22 0
BBX 19 30 2 0
BITMAP
007E00
007C00
00F800
00F000
00E000
01C000
018000
000000
000000
03F800
0FFC00
383F00
783F00
7C1F80
FC1F80
FC1F80
7C1F80
383F80
00FF80
039F80
0F1F80
1E1F80
3C1F80
7C1F80
FC1F80
FC1F80
FE7F80
FFDFE0
7F9FC0
3E0F80
ENDCHAR
STARTCHAR 00E2
ENCODING 226
SWIDTH 495 0
DWIDTH 22 0
BBX 19 31 2 0
BITMAP
03F000
03F000
07F800
07F800
0F3C00
0E1E00
1C0E00
380700
000000
000000
03F800
0FFC00
383F00
783F00
7C1F80
FC1F80
FC1F80
7C1F80
383F80
00FF80
039F80
0F1F80
1E1F80
3C1F80
7C1F80
FC1F80
FC1F80
FE7F80
FFDFE0
7F9FC0
3E0F80
ENDCHAR
STARTCHAR 00E3
ENCODING 227
SWIDTH 495 0
DWIDTH 22 0
BBX 19 30 2 0
BITMAP
030100
0FE300
1FFF00
3FFF00
33FE00
30FC00
000000
000000
000000
03F800
0FFC00
383F00
783F00
7C1F80
FC1F80
FC1F80
7C1F80
383F80
00FF80
039F80
0F1F80
1E1F80
3C1F80
7C1F80
FC1F80
FC1F80
FE7F80
FFDFE0
7F9FC0
3E0F80
ENDCHAR
STARTCHAR 00E4
ENCODING 228
SWIDTH 495 0
DWIDTH 22 0
BBX 19 30 2 0
BITMAP
0C0C00
1E1F00
3F3F00
3F3F00
1F1F00
1E1E00
000000
000000
000000
03F800
0FFC00
383F00
783F00
7C1F80
FC1F80
FC1F80
7C1F80
383F80
00FF80
039F80
0F1F80
1E1F80
3C1F80
7C1F80
FC1F80
FC1F80
FE7F80
FFDFE0
7F9FC0
3E0F80
ENDCHAR
STARTCHAR 00E5
ENCODING 229
SWIDTH 495 0
DWIDTH 22 0
BBX 19 31 2 0
BITMAP
01F000
03F800
061800
040C00
040C00
040C00
061800
03F000
01E000
000000
03F800
0FFC00
383F00
783F00
7C1F80
FC1F80
FC1F80
7C1F80
383F80
00FF80
039F80
0F1F80
1E1F80
3C1F80
7C1F80
FC1F80
FC1F80
FE7F80
FFDFE0
7F9FC0
3E0F80
ENDCHAR
STARTCHAR 00E6
ENCODING 230
SWIDTH 720 0
DWIDTH 32 0
BBX 29 22 2 -1
BITMAP
03F03E00
0FFCFF80
3C3FE3C0
781FC1E0
7C1FC1F0
FC1F81F0
FC1F81F0
7C1F80F8
381F80F8
007FFFF8
01DF8000
079F8000
1E1FC000
3E1FC000
7C0FC000
7C0FE008
FC0FE010
FE0FF030
FFFFFFE0
FFE3FFC0
7F80FF80
0C001800
ENDCHAR
STARTCHAR 00E7
ENCODING 231
SWIDTH 450 0
DWIDTH 20 0
BBX 17 29 2 -8
BITMAP
01F000
0FFC00
1E3E00
3C3F00
3C3F00
7C3F00
7C1F00
FC0E00
FC0000
FC0000
FC0000
FC0000
FC0000
FE0000
FE0000
FF0000
7F0180
7F8300
3FFE00
1FFC00
0FF800
01C000
018000
03E000
03E000
00E000
00E000
01E000
0FC000
ENDCHAR
STARTCHAR 00E8
ENCODING 232
SWIDTH 450 0
DWIDTH 20 0
BBX 17 31 2 -1
BITMAP
1F8000
0F8000
07C000
03C000
01C000
00E000
006000
000000
000000
03E000
0FF800
1E3C00
3C1E00
7C1F00
7C1F00
FC1F00
F81F00
F81F80
FFFF80
FC0000
FC0000
FC0000
FC0000
FE0000
FE0080
7F0100
7F8300
3FFE00
1FFC00
0FF800
018000
ENDCHAR
STARTCHAR 00E9
ENCODING 233
SWIDTH 450 0
DWIDTH 20 0
BBX 17 31 2 -1
BITMAP
00FC00
01F800
01F000
01E000
03C000
038000
030000
000000
000000
03E000
0FF800
1E3C00
3C1E00
7C1F00
7C1F00
FC1F00
F81F00
F81F80
FFFF80
FC0000
FC0000
FC0000
FC0000
FE0000
FE0080
7F0100
7F8300
3FFE00
1FFC00
0FF800
018000
ENDCHAR
STARTCHAR 00EA
ENCODING 234
SWIDTH 450 0
DWIDTH 20 0
BBX 17 32 2 -1
BITMAP
07E000
07E000
0FF000
0FF000
1E7800
3C3800
381C00
700C00
000000
000000
03E000
0FF800
1E3C00
3C1E00
7C1F00
7C1F00
FC1F00
F81F00
F81F80
FFFF80
FC0000
FC0000
FC0000
FC0000
FE0000
FE0080
7F0100
7F8300
3FFE00
1FFC00
0FF800
018000
ENDCHAR
STARTCHAR 00EB
ENCODING 235
SWIDTH 450 0
DWIDTH 20 0
BBX 17 31 2 -1
BITMAP
1C0C00
3E3E00
3E3E00
3E3E00
3E3E00
1C1C00
000000
000000
000000
03E000
0FF800
1E3C00
3C1E00
7C1F00
7C1F00
FC1F00
F81F00
F81F80
FFFF80
FC0000
FC0000
FC0000
FC0000
FE0000
FE0080
7F0100
7F8300
3FFE00
1FFC00
0FF800
018000
ENDCHAR
STARTCHAR 00EC
ENCODING 236
SWIDTH 270 0
DWIDTH 12 0
BBX 12 30 0 0
BITMAP
FE00
7E00
3E00
1F00
0F00
0700
0380
0000
0000
0000
7F80
1F80
1F80
1F80
1F80
1F80
1F80
1F80
1F80
1F80
1F80
1F80
1F80
1F80
1F80
1F80
1F80
1FC0
1FC0
7FF0
ENDCHAR
STARTCHAR 00ED
ENCODING 237
SWIDTH 270 0
DWIDTH 12 0
BBX 11 30 1 0
BITMAP
07E0
07C0
0F80
0F00
0E00
1C00
1800
0000
0000
0000
FF00
3F00
3F00
3F00
3F00
3F00
3F00
3F00
3F00
3F00
3F00
3F00
3F00
3F00
3F00
3F00
3F00
3F80
3F80
FFE0
ENDCHAR
STARTCHAR 00EE
ENCODING 238
SWIDTH 270 0
DWIDTH 12 0
BBX 13 31 0 0
BITMAP
0F80
1FC0
3FC0
3FE0
7DE0
70F0
E070
C018
0000
0000
0000
7F80
1F80
1F80
1F80
1F80
1F80
1F80
1F80
1F80
1F80
1F80
1F80
1F80
1F80
1F80
1F80
1F80
1FC0
1FC0
7FF0
ENDCHAR
STARTCHAR 00EF
ENCODING 239
SWIDTH 270 0
DWIDTH 12 0
BBX 14 30 -1 0
BITMAP
3030
7C7C
FC7C
FCFC
7C7C
7838
0000
0000
0000
0000
3FC0
0FC0
0FC0
0FC0
0FC0
0FC0
0FC0
0FC0
0FC0
0FC0
0FC0
0FC0
0FC0
0FC0
0FC0
0FC0
0FC0
0FE0
0FE0
3FF8
ENDCHAR
STARTCHAR 00F0
ENCODING 240
SWIDTH 495 0
DWIDTH 22 0
BBX 19 31 2 -1
BITMAP
180200
0E0E00
03B800
01E000
01F000
07F800
1C7C00
303C00
003E00
001F00
07FF80
1F3F80
3E1FC0
7C0FC0
7C0FC0
FC0FC0
FC0FE0
FC0FE0
FC0FE0
FC0FE0
FC0FE0
FC0FC0
FC0FC0
FC0FC0
FC0FC0
7C0F80
7C0F80
3E1F00
1E1E00
07FC00
00C000
ENDCHAR
STARTCHAR 00F1
ENCODING 241
SWIDTH 562 0
DWIDTH 25 0
BBX 21 30 2 0
BITMAP
018080
07F080
0FFF80
0FFF80
1DFF00
187E00
000000
000000
000000
000F00
FF3F80
7F7FC0
3FCFE0
3F87E0
3F07E0
3F07E0
3F07E0
3F07E0
3F07E0
3F07E0
3F07E0
3F07E0
3F07E0
3F07E0
3F07E0
3F07E0
3F07E0
3F07E0
7F07F0
FFDFF8
ENDCHAR
STARTCHAR 00F2
ENCODING 242
SWIDTH 495 0
DWIDTH 22 0
BBX 19 31 2 -1
BITMAP
1F8000
0FC000
07C000
03C000
01E000
00E000
006000
000000
000000
03F000
0FFC00
1E1E00
3E0F00
7C0F80
7C0FC0
FC0FC0
FC0FC0
FC0FC0
FC0FE0
FC0FE0
FC0FE0
FC0FE0
FC0FC0
FC0FC0
FC0FC0
7C0F80
7C0F80
3E1F00
1F1E00
0FFC00
00C000
ENDCHAR
STARTCHAR 00F3
ENCODING 243
SWIDTH 495 0
DWIDTH 22 0
BBX 19 31 2 -1
BITMAP
007E00
007C00
00F800
00F000
00E000
01C000
018000
000000
000000
03F000
0FFC00
1E1E00
3E0F00
7C0F80
7C0FC0
FC0FC0
FC0FC0
FC0FC0
FC0FE0
FC0FE0
FC0FE0
FC0FE0
FC0FC0
FC0FC0
FC0FC0
7C0F80
7C0F80
3E1F00
1F1E00
0FFC00
00C000
ENDCHAR
STARTCHAR 00F4
ENCODING 244
SWIDTH 495 0
DWIDTH 22 0
BBX 19 32 2 -1
BITMAP
03F000
03F000
07F800
07F800
0F3C00
0E1E00
1C0E00
380700
000000
000000
03F000
0FFC00
1E1E00
3E0F00
7C0F80
7C0FC0
FC0FC0
FC0FC0
FC0FC0
FC0FE0
FC0FE0
FC0FE0
FC0FE0
FC0FC0
FC0FC0
FC0FC0
7C0F80
7C0F80
3E1F00
1F1E00
0FFC00
00C000
ENDCHAR
STARTCHAR 00F5
ENCODING 245
SWIDTH 495 0
DWIDTH 22 0
BBX 19 31 2 -1
BITMAP
030100
0FE300
1FFF00
3FFF00
33FE00
30FC00
000000
000000
000000
03F000
0FFC00
1E1E00
3E0F00
7C0F80
7C0FC0
FC0FC0
FC0FC0
FC0FC0
FC0FE0
FC0FE0
FC0FE0
FC0FE0
FC0FC0
FC0FC0
FC0FC0
7C0F80
7C0F80
3E1F00
1F1E00
0FFC00
00C000
ENDCHAR
STARTCHAR 00F6
ENCODING 246
SWIDTH 495 0
DWIDTH 22 0
BBX 19 31 2 -1
BITMAP
0C0C00
1E1F00
3F3F00
3F3F00
3F1F00
1E1E00
000000
000000
000000
03F000
0FFC00
1E1E00
3E0F00
7C0F80
7C0FC0
FC0FC0
FC0FC0
FC0FC0
FC0FE0
FC0FE0
FC0FE0
FC0FE0
FC0FC0
FC0FC0
FC0FC0
7C0F80
7C0F80
3E1F00
1F1E00
0FFC00
00C000
ENDCHAR
STARTCHAR 00F7
ENCODING 247
SWIDTH 540 0
DWIDTH 24 0
BBX 24 19 0 5
BITMAP
001C00
003C00
003C00
001C00
000000
000000
000000
000000
FFFFFF
FFFFFF
FFFFFF
000000
000000
000000
001800
003C00
003C00
003C00
000800
ENDCHAR
STARTCHAR 00F8
ENCODING 248
SWIDTH 495 0
DWIDTH 22 0
BBX 19 22 2 -1
BITMAP
01F060
0FFCC0
1F1F80
3E0F00
3E0F80
7E0FC0
7C0FC0
FC1FC0
FC3FE0
FC6FE0
FCCFE0
FD8FE0
FD0FE0
FF0FE0
FE0FC0
7C0FC0
7C0FC0
3E0F80
7E0F00
DF1E00
87FC00
80C000
ENDCHAR
STARTCHAR 00F9
ENCODING 249
SWIDTH 562 0
DWIDTH 25 0
BBX 22 31 1 -1
BITMAP
07E000
03F000
01F000
00F000
007800
003800
001800
000000
000000
000000
FF8FF0
3F83F0
3F83F0
1F83F0
1F83F0
1F83F0
1F83F0
1F83F0
1F83F0
1F83F0
1F83F0
1F83F0
1F83F0
1F83F0
1F83F0
1F83F0
1F87F0
1FDFF0
0FFBF8
07F3FC
018000
ENDCHAR
STARTCHAR 00FA
ENCODING 250
SWIDTH 562 0
DWIDTH 25 0
BBX 22 31 1 -1
BITMAP
001F80
001F00
003E00
003C00
003800
007000
006000
000000
000000
000000
FF8FF0
3F83F0
3F83F0
1F83F0
1F83F0
1F83F0
1F83F0
1F83F0
1F83F0
1F83F0
1F83F0
1F83F0
1F83F0
1F83F0
1F83F0
1F83F0
1F87F0
1FDFF0
0FFBF8
07F3FC
018000
ENDCHAR
STARTCHAR 00FB
ENCODING 251
SWIDTH 562 0
DWIDTH 25 0
BBX 22 32 1 -1
BITMAP
007C00
00FE00
00FE00
01FF00
03EF00
038780
070380
0600C0
000000
000000
000000
FF8FF0
3F83F0
3F83F0
1F83F0
1F83F0
1F83F0
1F83F0
1F83F0
1F83F0
1F83F0
1F83F0
1F83F0
1F83F0
1F83F0
1F83F0
1F83F0
1F87F0
1FDFF0
0FFBF8
07F3FC
018000
ENDCHAR
STARTCHAR 00FC
ENCODING 252
SWIDTH 562 0
DWIDTH 25 0
BBX 22 31 1 -1
BITMAP
030380
07C7C0
0FC7C0
0FC7C0
07C7C0
038380
000000
000000
000000
000000
FF8FF0
3F83F0
3F83F0
1F83F0
1F83F0
1F83F0
1F83F0
1F83F0
1F83F0
1F83F0
1F83F0
1F83F0
1F83F0
1F83F0
1F83F0
1F83F0
1F87F0
1FDFF0
0FFBF8
07F3FC
018000
ENDCHAR
STARTCHAR 00FD
ENCODING 253
SWIDTH 495 0
DWIDTH 22 0
BBX 22 40 0 -10
BITMAP
000FC0
000F80
001F00
001E00
001C00
003800
003000
000000
000000
000000
FFE1FC
3F8070
1F8060
1FC060
0FC060
0FE040
07E0C0
07E080
07F080
03F180
03F900
01FB00
01FE00
00FE00
00FE00
00FC00
007C00
007C00
003800
003800
001000
001000
003000
182000
3C6000
7C4000
7CC000
3F8000
3F0000
040000
ENDCHAR
STARTCHAR 00FE
ENCODING 254
SWIDTH 562 0
DWIDTH 25 0
BBX 22 40 1 -10
BITMAP
FF0000
3F0000
3F0000
3F0000
3F0000
3F0000
3F0000
3F0000
3F0000
3F0F00
3F3FC0
3F7FE0
3FC3F0
3F83F0
3F81F8
3F01F8
3F01F8
3F01FC
3F01FC
3F01FC
3F01FC
3F01FC
3F01FC
3F01F8
3F01F8
3F01F8
3F81F0
3FC3F0
3F7FE0
3F3FC0
3F0400
3F0000
3F0000
3F0000
3F0000
3F0000
3F0000
3F8000
7F8000
FFE000
ENDCHAR
STARTCHAR 00FF
ENCODING 255
SWIDTH 495 0
DWIDTH 22 0
BBX 22 40 0 -10
BITMAP
018180
07C7C0
07C7E0
07E7E0
07C7C0
038380
000000
000000
000000
000000
FFE1FC
3F8070
1F8060
1FC060
0FC060
0FE040
07E0C0
07E080
07F080
03F180
03F900
01FB00
01FE00
00FE00
00FE00
00FC00
007C00
007C00
003800
003800
001000
001000
003000
182000
3C6000
7C4000
7CC000
3F8000
3F0000
040000
ENDCHAR
STARTCHAR 0100
ENCODING 256
SWIDTH 720 0
DWIDTH 32 0
BBX 32 36 0 0
BITMAP
007FFE00
007FFE00
007FFE00
00000000
00000000
00000000
00008000
00018000
0001C000
0003C000
0003C000
0003E000
0007E000
0007F000
000FF000
000FF800
001BF800
001BF800
0033FC00
0031FC00
0061FE00
0060FE00
0040FF00
00C07F00
00C07F80
01807F80
01FFFF80
03FFFFC0
03001FC0
06001FE0
06000FE0
04000FF0
0C0007F0
1C0007F8
3E0007FC
FFC07FFF
ENDCHAR
STARTCHAR 0101
ENCODING 257
SWIDTH 495 0
DWIDTH 22 0
BBX 19 27 2 0
BITMAP
3FFF00
3FFF00
3FFF00
000000
000000
000000
03F800
0FFC00
383F00
783F00
7C1F80
FC1F80
FC1F80
7C1F80
383F80
00FF80
039F80
0F1F80
1E1F80
3C1F80
7C1F80
FC1F80
FC1F80
FE7F80
FFDFE0
7F9FC0
3E0F80
ENDCHAR
STARTCHAR 0102
ENCODING 258
SWIDTH 720 0
DWIDTH 32 0
BBX 32 39 0 0
BITMAP
00600600
00300C00
00381C00
003FFC00
001FF800
000FF000
0007E000
00000000
00000000
00008000
00018000
0001C000
0003C000
0003C000
0003E000
0007E000
0007F000
000FF000
000FF800
001BF800
001BF800
0033FC00
0031FC00
0061FE00
0060FE00
0040FF00
00C07F00
00C07F80
01807F80
01FFFF80
03FFFFC0
03001FC0
06001FE0
06000FE0
04000FF0
0C0007F0
1C0007F8
3E0007FC
FFC07FFF
ENDCHAR
STARTCHAR 0103
ENCODING 259
SWIDTH 495 0
DWIDTH 22 0
BBX 19 30 2 0
BITMAP
100300
180700
1E1E00
0FFE00
0FFC00
07F800
00E000
000000
000000
03F800
0FFC00
383F00
783F00
7C1F80
FC1F80
FC1F80
7C1F80
383F80
00FF80
039F80
0F1F80
1E1F80
3C1F80
7C1F80
FC1F80
FC1F80
FE7F80
FFDFE0
7F9FC0
3E0F80
ENDCHAR
STARTCHAR 0104
ENCODING 260
SWIDTH 720 0
DWIDTH 32 0
BBX 32 40 0 -10
BITMAP
00008000
00018000
0001C000
0003C000
0003C000
0003E000
0007E000
0007F000
000FF000
000FF800
001BF800
001BF800
0033FC00
0031FC00
0061FE00
0060FE00
0040FF00
00C07F00
00C07F80
01807F80
01FFFF80
03FFFFC0
03001FC0
06001FE0
06000FE0
04000FF0
0C0007F0
1C0007F8
3E0007FC
FFC07FFF
000001C0
00000380
00000780
00000780
00000780
000007C0
000007C0
000003F8
000001FE
000000F8
ENDCHAR
STARTCHAR 0105
ENCODING 261
SWIDTH 495 0
DWIDTH 22 0
BBX 20 31 2 -10
BITMAP
03F800
0FFC00
383F00
783F00
7C1F80
FC1F80
FC1F80
7C1F80
383F80
00FF80
039F80
0F1F80
1E1F80
3C1F80
7C1F80
FC1F80
FC1F80
FE7F80
FFDFE0
7F9FC0
3E0F80
000E00
001C00
003C00
003C00
003C00
003E00
003F00
001FC0
000FF0
0007E0
ENDCHAR
STARTCHAR 0106
ENCODING 262
SWIDTH 720 0
DWIDTH 32 0
BBX 28 40 2 -1
BITMAP
0001FC00
0001F000
0001E000
0003C000
00038000
00030000
00060000
00000000
00000000
000FF010
007FFE30
01FC07F0
03F001F0
07E000F0
0FC00070
1F800070
3F800030
3F800030
7F000010
7F000000
FF000000
FF000000
FF000000
FF000000
FF000000
FF000000
FF000000
FF000000
FF000000
FF000000
7F000000
7F800000
3F800000
3FC00020
1FC00060
0FE000C0
07F80380
01FF3F00
007FFC00
0003C000
ENDCHAR
STARTCHAR 0107
ENCODING 263
SWIDTH 450 0
DWIDTH 20 0
BBX 17 31 2 -1
BITMAP
00FE00
00F800
00F800
01F000
01E000
01C000
038000
000000
000000
01F000
0FFC00
1E3E00
3C3F00
3C3F00
7C3F00
7C1F00
FC0E00
FC0000
FC0000
FC0000
FC0000
FC0000
FE0000
FE0000
FF0000
7F0180
7F8300
3FFE00
1FFC00
0FF800
018000
ENDCHAR
STARTCHAR 0108
ENCODING 264
SWIDTH 720 0
DWIDTH 32 0
BBX 28 42 2 -1
BITMAP
0007C000
000FC000
000FE000
001FE000
003FF000
003C7000
00703800
00601800
00C00C00
00000000
00000000
000FF010
007FFE30
01FC07F0
03F001F0
07E000F0
0FC00070
1F800070
3F800030
3F800030
7F000010
7F000000
FF000000
FF000000
FF000000
FF000000
FF000000
FF000000
FF000000
FF000000
FF000000
FF000000
7F000000
7F800000
3F800000
3FC00020
1FC00060
0FE000C0
07F80380
01FF3F00
007FFC00
0003C000
ENDCHAR
STARTCHAR 0109
ENCODING 265
SWIDTH 450 0
DWIDTH 20 0
BBX 17 32 2 -1
BITMAP
03E000
07F000
0FF000
0FF800
1F7800
1C3C00
381C00
300E00
000000
000000
01F000
0FFC00
1E3E00
3C3F00
3C3F00
7C3F00
7C1F00
FC0E00
FC0000
FC0000
FC0000
FC0000
FC0000
FE0000
FE0000
FF0000
7F0180
7F8300
3FFE00
1FFC00
0FF800
018000
ENDCHAR
STARTCHAR 010A
ENCODING 266
SWIDTH 720 0
DWIDTH 32 0
BBX 28 40 2 -1
BITMAP
00030000
000F8000
000FC000
000FC000
000FC000
000F8000
00030000
00000000
00000000
000FF010
007FFE30
01FC07F0
03F001F0
07E000F0
0FC00070
1F800070
3F800030
3F800030
7F000010
7F000000
FF000000
FF000000
FF000000
FF000000
FF000000
FF000000
FF000000
FF000000
FF000000
FF000000
7F000000
7F800000
3F800000
3FC00020
1FC00060
0FE000C0
07F80380
01FF3F00
007FFC00
0003C000
ENDCHAR
STARTCHAR 010B
ENCODING 267
SWIDTH 450 0
DWIDTH 20 0
BBX 17 31 2 -1
BITMAP
008000
03E000
07F000
07F000
07F000
03E000
01C000
000000
000000
01F000
0FFC00
1E3E00
3C3F00
3C3F00
7C3F00
7C1F00
FC0E00
FC0000
FC0000
FC0000
FC0000
FC0000
FE0000
FE0000
FF0000
7F0180
7F8300
3FFE00
1FFC00
0FF800
018000
ENDCHAR
STARTCHAR 010C
ENCODING 268
SWIDTH 720 0
DWIDTH 32 0
BBX 28 41 2 -1
BITMAP
00600000
00700C00
00381C00
003C7800
001EF800
000FF000
000FE000
0007E000
0007C000
00000000
000FF010
007FFE30
01FC07F0
03F001F0
07E000F0
0FC00070
1F800070
3F800030
3F800030
7F000010
7F000000
FF000000
FF000000
FF000000
FF000000
FF000000
FF000000
FF000000
FF000000
FF000000
FF000000
7F000000
7F800000
3F800000
3FC00020
1FC00060
0FE000C0
07F80380
01FF3F00
007FFC00
0003C000
ENDCHAR
STARTCHAR 010D
ENCODING 269
SWIDTH 450 0
DWIDTH 20 0
BBX 17 32 2 -1
BITMAP
100300
1C0600
0E0E00
0F3C00
07FC00
07F800
03F800
03F000
000000
000000
01F000
0FFC00
1E3E00
3C3F00
3C3F00
7C3F00
7C1F00
FC0E00
FC0000
FC0000
FC0000
FC0000
FC0000
FE0000
FE0000
FF0000
7F0180
7F8300
3FFE00
1FFC00
0FF800
018000
ENDCHAR
STARTCHAR 010E
ENCODING 270
SWIDTH 720 0
DWIDTH 32 0
BBX 29 40 1 0
BITMAP
01800000
00C03800
00707000
0078F000
003DE000
003FE000
001FC000
001F8000
000F8000
00000000
00000000
FFFFF000
1FE3FC00
0FE07F00
0FE03F80
0FE01FC0
0FE00FE0
0FE00FE0
0FE00FF0
0FE007F0
0FE007F8
0FE007F8
0FE007F8
0FE007F8
0FE007F8
0FE007F8
0FE007F8
0FE007F8
0FE007F8
0FE007F8
0FE007F0
0FE007F0
0FE007F0
0FE00FE0
0FE00FC0
0FE01FC0
0FE03F00
0FE07E00
1FFFF800
FFFFC000
ENDCHAR
STARTCHAR 010F
ENCODING 271
SWIDTH 742 0
DWIDTH 33 0
BBX 30 31 2 -1
BITMAP
000000F0
003FE1F8
0007E3FC
0007E3FC
0007E3FC
0007E3FC
0007E0DC
0007E01C
0007E01C
03C7E018
0FF7E030
1FBFE030
3E0FE0C0
7E07E180
7E07E000
7C07E000
FC07E000
FC07E000
FC07E000
FC07E000
FC07E000
FC07E000
FC07E000
FC07E000
FE07E000
7E07E000
7E0FE000
3F1FF000
1FF7FC00
0FE7E000
01840000
ENDCHAR
STARTCHAR 0110
ENCODING 272
SWIDTH 720 0
DWIDTH 32 0
BBX 29 29 1 0
BITMAP
FFFFF000
1FE1FC00
0FE07F00
0FE03F80
0FE01FC0
0FE00FE0
0FE00FE0
0FE007F0
0FE007F0
0FE007F8
0FE007F8
0FE007F8
0FE003F8
FFFFC3F8
0FE003F8
0FE003F8
0FE003F8
0FE007F8
0FE007F8
0FE007F8
0FE007F0
0FE007F0
0FE00FE0
0FE00FE0
0FE01FC0
0FE01F80
0FE07E00
1FFFF800
FFFFC000
ENDCHAR
STARTCHAR 0111
ENCODING 273
SWIDTH 562 0
DWIDTH 25 0
BBX 22 30 2 -1
BITMAP
003FE0
0007E0
0007E0
03FFFC
03FFFC
0007E0
0007E0
0007E0
03C7E0
0FF7E0
1F3FE0
3E0FE0
7E07E0
7C07E0
FC07E0
FC07E0
FC07E0
FC07E0
FC07E0
FC07E0
FC07E0
FC07E0
FC07E0
FE07E0
7E07E0
7E0FE0
3F1FF0
1FF7FC
0FE7E0
018400
ENDCHAR
STARTCHAR 0112
ENCODING 274
SWIDTH 675 0
DWIDTH 30 0
BBX 27 36 1 0
BITMAP
01FFF800
01FFF800
01FFF800
00000000
00000000
00000000
00000000
FFFFFF80
0FE07F80
0FE00780
0FE00380
0FE00380
0FE00180
0FE04180
0FE04080
0FE04000
0FE04000
0FE0C000
0FE0C000
0FE1C000
0FFFC000
0FFFC000
0FE3C000
0FE0C000
0FE0C000
0FE04000
0FE04000
0FE04020
0FE04040
0FE00040
0FE000C0
0FE001C0
0FE003C0
0FF007C0
1FFFFFC0
FFFFFF80
ENDCHAR
STARTCHAR 0113
ENCODING 275
SWIDTH 450 0
DWIDTH 20 0
BBX 17 28 2 -1
BITMAP
7FFE00
7FFE00
7FFE00
000000
000000
000000
03E000
0FF800
1E3C00
3C1E00
7C1F00
7C1F00
FC1F00
F81F00
F81F80
FFFF80
FC0000
FC0000
FC0000
FC0000
FE0000
FE0080
7F0100
7F8300
3FFE00
1FFC00
0FF800
018000
ENDCHAR
STARTCHAR 0114
ENCODING 276
SWIDTH 675 0
DWIDTH 30 0
BBX 27 39 1 0
BITMAP
01801000
00C03000
00FFF000
00FFE000
007FE000
003F8000
00060000
00000000
00000000
00000000
FFFFFF80
0FE07F80
0FE00780
0FE00380
0FE00380
0FE00180
0FE04180
0FE04080
0FE04000
0FE04000
0FE0C000
0FE0C000
0FE1C000
0FFFC000
0FFFC000
0FE3C000
0FE0C000
0FE0C000
0FE04000
0FE04000
0FE04020
0FE04040
0FE00040
0FE000C0
0FE001C0
0FE003C0
0FF007C0
1FFFFFC0
FFFFFF80
ENDCHAR
STARTCHAR 0115
ENCODING 277
SWIDTH 450 0
DWIDTH 20 0
BBX 17 31 2 -1
BITMAP
200600
300C00
3C3C00
1FFC00
1FF800
0FF000
03C000
000000
000000
03E000
0FF800
1E3C00
3C1E00
7C1F00
7C1F00
FC1F00
F81F00
F81F80
FFFF80
FC0000
FC0000
FC0000
FC0000
FE0000
FE0080
7F0100
7F8300
3FFE00
1FFC00
0FF800
018000
ENDCHAR
STARTCHAR 0116
ENCODING 278
SWIDTH 675 0
DWIDTH 30 0
BBX 27 39 1 0
BITMAP
00060000
001F0000
001F8000
001F8000
001F8000
001F0000
00060000
00000000
00000000
00000000
FFFFFF80
0FE07F80
0FE00780
0FE00380
0FE00380
0FE00180
0FE04180
0FE04080
0FE04000
0FE04000
0FE0C000
0FE0C000
0FE1C000
0FFFC000
0FFFC000
0FE3C000
0FE0C000
0FE0C000
0FE04000
0FE04000
0FE04020
0FE04040
0FE00040
0FE000C0
0FE001C0
0FE003C0
0FF007C0
1FFFFFC0
FFFFFF80
ENDCHAR
STARTCHAR 0117
ENCODING 279
SWIDTH 450 0
DWIDTH 20 0
BBX 17 31 2 -1
BITMAP
018000
03E000
07E000
07E000
07E000
03E000
018000
000000
000000
03E000
0FF800
1E3C00
3C1E00
7C1F00
7C1F00
FC1F00
F81F00
F81F80
FFFF80
FC0000
FC0000
FC0000
FC0000
FE0000
FE0080
7F0100
7F8300
3FFE00
1FFC00
0FF800
018000
ENDCHAR
STARTCHAR 0118
ENCODING 280
SWIDTH 675 0
DWIDTH 30 0
BBX 27 39 1 -10
BITMAP
FFFFFF80
0FE07F80
0FE00780
0FE00380
0FE00380
0FE00180
0FE04180
0FE04080
0FE04000
0FE04000
0FE0C000
0FE0C000
0FE1C000
0FFFC000
0FFFC000
0FE3C000
0FE0C000
0FE0C000
0FE04000
0FE04000
0FE04020
0FE04040
0FE00040
0FE000C0
0FE001C0
0FE003C0
0FF007C0
1FFFFFC0
FFFFFF80
00003800
00007000
0000F000
0000F000
0000F000
0000F000
0000F800
00007F00
00003FC0
00001F00
ENDCHAR
STARTCHAR 0119
ENCODING 281
SWIDTH 450 0
DWIDTH 20 0
BBX 17 31 2 -10
BITMAP
03E000
0FF800
1E3C00
3C1E00
7C1F00
7C1F00
FC1F00
F81F00
F81F80
FFFF80
FC0000
FC0000
FC0000
FC0000
FE0000
FE0080
7F0100
7F8300
3FFE00
1FFC00
0FF800
01C000
030000
070000
0F0000
0F8000
0F8000
07C000
07F000
03FE00
00F800
ENDCHAR
STARTCHAR 011A
ENCODING 282
SWIDTH 675 0
DWIDTH 30 0
BBX 27 40 1 0
BITMAP
03000000
01807000
01C0E000
00F1E000
00FBC000
007F8000
003F8000
003F0000
001F0000
00000000
00000000
FFFFFF80
0FE07F80
0FE00780
0FE00380
0FE00380
0FE00180
0FE04180
0FE04080
0FE04000
0FE04000
0FE0C000
0FE0C000
0FE1C000
0FFFC000
0FFFC000
0FE3C000
0FE0C000
0FE0C000
0FE04000
0FE04000
0FE04020
0FE04040
0FE00040
0FE000C0
0FE001C0
0FE003C0
0FF007C0
1FFFFFC0
FFFFFF80
ENDCHAR
STARTCHAR 011B
ENCODING 283
SWIDTH 450 0
DWIDTH 20 0
BBX 17 32 2 -1
BITMAP
300600
380E00
1C1C00
0E3C00
0FF800
07F800
07F000
03F000
000000
000000
03E000
0FF800
1E3C00
3C1E00
7C1F00
7C1F00
FC1F00
F81F00
F81F80
FFFF80
FC0000
FC0000
FC0000
FC0000
FE0000
FE0080
7F0100
7F8300
3FFE00
1FFC00
0FF800
018000
ENDCHAR
STARTCHAR 011C
ENCODING 284
SWIDTH 787 0
DWIDTH 35 0
BBX 32 41 2 -1
BITMAP
0003E000
0007F000
000FF000
000FF800
001E7800
001C3C00
00381C00
00300600
00000000
00000000
000FF808
007FFF18
01F807F8
03F001F8
0FE000F8
0FC00078
1F800038
3F800018
3F800018
7F000008
7F000000
FF000000
FF000000
FF000000
FF000000
FF000000
FF000000
FF000000
FF003FFF
FF0007F8
7F0003F8
7F0003F8
7F8003F8
3F8003F8
1F8003F8
0FC003F8
07E003F8
03F003F8
01FC07F0
007FFF80
0003F000
ENDCHAR
STARTCHAR 011D
ENCODING 285
SWIDTH 495 0
DWIDTH 22 0
BBX 19 41 2 -10
BITMAP
01F000
03F000
07F800
07FC00
0F3C00
0E1E00
1C0E00
180700
000000
000000
03E000
1FFFE0
3E1FE0
7C1F00
FC1F00
FC0F80
FC0F80
FC0F80
FC0F80
FC0F80
FC0F80
7C1F00
3E1E00
1F7C00
07F000
180000
300000
780000
7C0000
FFFF80
FFFFC0
7FFFE0
3FFFE0
1FFFE0
7003E0
E000E0
E000E0
F001C0
780380
3FFE00
01C000
ENDCHAR
STARTCHAR 011E
ENCODING 286
SWIDTH 787 0
DWIDTH 35 0
BBX 32 40 2 -1
BITMAP
00600600
00300C00
00381C00
003FFC00
001FF800
000FF000
0007C000
00000000
00000000
000FF808
007FFF18
01F807F8
03F001F8
0FE000F8
0FC00078
1F800038
3F800018
3F800018
7F000008
7F000000
FF000000
FF000000
FF000000
FF000000
FF000000
FF000000
FF000000
FF003FFF
FF0007F8
7F0003F8
7F0003F8
7F8003F8
3F8003F8
1F8003F8
0FC003F8
07E003F8
03F003F8
01FC07F0
007FFF80
0003F000
ENDCHAR
STARTCHAR 011F
ENCODING 287
SWIDTH 495 0
DWIDTH 22 0
BBX 19 40 2 -10
BITMAP
180300
1C0300
0F0F00
0FFE00
07FC00
03F800
00E000
000000
000000
03E000
1FFFE0
3E1FE0
7C1F00
FC1F00
FC0F80
FC0F80
FC0F80
FC0F80
FC0F80
FC0F80
7C1F00
3E1E00
1F7C00
07F000
180000
300000
780000
7C0000
FFFF80
FFFFC0
7FFFE0
3FFFE0
1FFFE0
7003E0
E000E0
E000E0
F001C0
780380
3FFE00
01C000
ENDCHAR
STARTCHAR 0120
ENCODING 288
SWIDTH 787 0
DWIDTH 35 0
BBX 32 40 2 -1
BITMAP
00038000
0007C000
000FE000
000FE000
000FE000
0007C000
00010000
00000000
00000000
000FF808
007FFF18
01F807F8
03F001F8
0FE000F8
0FC00078
1F800038
3F800018
3F800018
7F000008
7F000000
FF000000
FF000000
FF000000
FF000000
FF000000
FF000000
FF000000
FF003FFF
FF0007F8
7F0003F8
7F0003F8
7F8003F8
3F8003F8
1F8003F8
0FC003F8
07E003F8
03F003F8
01FC07F0
007FFF80
0003F000
ENDCHAR
STARTCHAR 0121
ENCODING 289
SWIDTH 495 0
DWIDTH 22 0
BBX 19 40 2 -10
BITMAP
00C000
01F000
03F000
03F000
03F000
01F000
00C000
000000
000000
03E000
1FFFE0
3E1FE0
7C1F00
FC1F00
FC0F80
FC0F80
FC0F80
FC0F80
FC0F80
FC0F80
7C1F00
3E1E00
1F7C00
07F000
180000
300000
780000
7C0000
FFFF80
FFFFC0
7FFFE0
3FFFE0
1FFFE0
7003E0
E000E0
E000E0
F001C0
780380
3FFE00
01C000
ENDCHAR
STARTCHAR 0122
ENCODING 290
SWIDTH 787 0
DWIDTH 35 0
BBX 32 38 2 -8
BITMAP
001FF808
007FFF18
01F807F8
03F001F8
0FE000F8
0FC00078
1F800038
3F800018
3F800018
7F000008
7F000000
FF000000
FF000000
FF000000
FF000000
FF000000
FF000000
FF000000
FF003FFF
FF0007F8
7F0003F8
7F0003F8
7F8003F8
3F8003F8
1F8003F8
0FC003F8
07E003F8
03F003F8
01FC07F0
007FFF80
0003F000
00038000
0003C000
0007E000
0001E000
0001E000
0003C000
001F8000
ENDCHAR
STARTCHAR 0123
ENCODING 291
SWIDTH 495 0
DWIDTH 22 0
BBX 19 42 2 -10
BITMAP
002000
00C000
010000
030000
030000
03E000
03F000
03F000
01E000
000000
000000
03E000
1FFFE0
3E1FE0
7C1F00
FC1F80
FC0F80
FC0F80
FC0F80
FC0F80
FC0F80
FC0F80
7C1F00
3E1E00
1F7C00
07F000
180000
300000
780000
7C0000
FFFF80
FFFFC0
7FFFE0
3FFFE0
1FFFE0
7001E0
E000E0
E000E0
F001C0
F80380
3FFE00
01C000
ENDCHAR
STARTCHAR 0124
ENCODING 292
SWIDTH 787 0
DWIDTH 35 0
BBX 33 41 1 0
BITMAP
0003E00000
0007E00000
0007F00000
000FF00000
000F780000
001E3C0000
001C1C0000
00380E0000
0060060000
0000000000
0000000000
0000000000
FFFE3FFF00
0FF007F800
0FE007F800
0FE003F800
0FE003F800
0FE003F800
0FE003F800
0FE003F800
0FE003F800
0FE003F800
0FE003F800
0FE003F800
0FE003F800
0FFFFFF800
0FFFFFF800
0FE003F800
0FE003F800
0FE003F800
0FE003F800
0FE003F800
0FE003F800
0FE003F800
0FE003F800
0FE003F800
0FE003F800
0FE003F800
0FE007F800
1FF007F800
FFFE7FFF80
ENDCHAR
STARTCHAR 0125
ENCODING 293
SWIDTH 562 0
DWIDTH 25 0
BBX 21 41 2 0
BITMAP
00F800
01F800
01FC00
03FE00
03DE00
078F00
070700
0E0380
180180
000000
000000
000000
FF0000
7F0000
3F0000
3F0000
3F0000
3F0000
3F0000
3F0000
3F0F00
3F3F80
3F7FC0
3FCFE0
3F87E0
3F07E0
3F07E0
3F07E0
3F07E0
3F07E0
3F07E0
3F07E0
3F07E0
3F07E0
3F07E0
3F07E0
3F07E0
3F07E0
3F07E0
7F07F0
FFDFF8
ENDCHAR
STARTCHAR 0126
ENCODING 294
SWIDTH 787 0
DWIDTH 35 0
BBX 33 29 1 0
BITMAP
FFFE3FFF00
0FF007F800
0FE007F800
FFFFFFFF80
FFFFFFFF80
0FE003F800
0FE003F800
0FE003F800
0FE003F800
0FE003F800
0FE003F800
0FE003F800
0FE003F800
0FFFFFF800
0FFFFFF800
0FE003F800
0FE003F800
0FE003F800
0FE003F800
0FE003F800
0FE003F800
0FE003F800
0FE003F800
0FE003F800
0FE003F800
0FE003F800
0FE007F800
1FF007F800
FFFE7FFF80
ENDCHAR
STARTCHAR 0127
ENCODING 295
SWIDTH 562 0
DWIDTH 25 0
BBX 21 29 2 0
BITMAP
FF0000
7F0000
3F0000
FFFC00
FFFC00
3F0000
3F0000
3F0000
3F0F00
3F3F80
3F7FC0
3FCFE0
3F87E0
3F07E0
3F07E0
3F07E0
3F07E0
3F07E0
3F07E0
3F07E0
3F07E0
3F07E0
3F07E0
3F07E0
3F07E0
3F07E0
3F07E0
7F07F0
FFDFF8
ENDCHAR
STARTCHAR 0128
ENCODING 296
SWIDTH 382 0
DWIDTH 17 0
BBX 15 38 1 0
BITMAP
1F06
3FEE
7FFC
7FFC
43F8
4060
0000
0000
0000
FFFE
0FF0
0FE0
0FE0
0FE0
0FE0
0FE0
0FE0
0FE0
0FE0
0FE0
0FE0
0FE0
0FE0
0FE0
0FE0
0FE0
0FE0
0FE0
0FE0
0FE0
0FE0
0FE0
0FE0
0FE0
0FE0
0FE0
1FF0
FFFE
ENDCHAR
STARTCHAR 0129
ENCODING 297
SWIDTH 270 0
DWIDTH 12 0
BBX 14 30 -1 0
BITMAP
0C04
3F8C
7FFC
7FFC
EFF8
C3F0
0000
0000
0000
0000
3FC0
0FC0
0FC0
0FC0
0FC0
0FC0
0FC0
0FC0
0FC0
0FC0
0FC0
0FC0
0FC0
0FC0
0FC0
0FC0
0FC0
0FE0
0FE0
3FF8
ENDCHAR
STARTCHAR 012A
ENCODING 298
SWIDTH 382 0
DWIDTH 17 0
BBX 15 36 1 0
BITMAP
7FFE
7FFE
7FFE
0000
0000
0000
0000
FFFE
0FF0
0FE0
0FE0
0FE0
0FE0
0FE0
0FE0
0FE0
0FE0
0FE0
0FE0
0FE0
0FE0
0FE0
0FE0
0FE0
0FE0
0FE0
0FE0
0FE0
0FE0
0FE0
0FE0
0FE0
0FE0
0FE0
1FF0
FFFE
ENDCHAR
STARTCHAR 012B
ENCODING 299
SWIDTH 270 0
DWIDTH 12 0
BBX 14 27 -1 0
BITMAP
FFFC
FFFC
FFFC
0000
0000
0000
0000
3FC0
0FC0
0FC0
0FC0
0FC0
0FC0
0FC0
0FC0
0FC0
0FC0
0FC0
0FC0
0FC0
0FC0
0FC0
0FC0
0FC0
0FE0
0FE0
3FF8
ENDCHAR
STARTCHAR 012C
ENCODING 300
SWIDTH 382 0
DWIDTH 17 0
BBX 15 39 1 0
BITMAP
600C
700C
3FFC
3FF8
1FF0
0FE0
0180
0000
0000
0000
FFFE
0FF0
0FE0
0FE0
0FE0
0FE0
0FE0
0FE0
0FE0
0FE0
0FE0
0FE0
0FE0
0FE0
0FE0
0FE0
0FE0
0FE0
0FE0
0FE0
0FE0
0FE0
0FE0
0FE0
0FE0
0FE0
0FE0
1FF0
FFFE
ENDCHAR
STARTCHAR 012D
ENCODING 301
SWIDTH 270 0
DWIDTH 12 0
BBX 13 30 0 0
BITMAP
8018
C038
F0F0
7FF0
7FE0
3FC0
0F00
0000
0000
0000
7F80
1F80
1F80
1F80
1F80
1F80
1F80
1F80
1F80
1F80
1F80
1F80
1F80
1F80
1F80
1F80
1F80
1FC0
1FC0
7FF0
ENDCHAR
STARTCHAR 012E
ENCODING 302
SWIDTH 382 0
DWIDTH 17 0
BBX 15 39 1 -10
BITMAP
FFFE
0FF0
0FE0
0FE0
0FE0
0FE0
0FE0
0FE0
0FE0
0FE0
0FE0
0FE0
0FE0
0FE0
0FE0
0FE0
0FE0
0FE0
0FE0
0FE0
0FE0
0FE0
0FE0
0FE0
0FE0
0FE0
0FE0
1FF0
FFFE
0700
0E00
0E00
1E00
1E00
1F00
1F80
0FE0
07F8
03F0
ENDCHAR
STARTCHAR 012F
ENCODING 303
SWIDTH 270 0
DWIDTH 12 0
BBX 11 40 1 -10
BITMAP
1E00
3F00
3F80
3F80
3F00
1F00
0400
0000
0000
0000
FF00
3F00
3F00
3F00
3F00
3F00
3F00
3F00
3F00
3F00
3F00
3F00
3F00
3F00
3F00
3F00
3F00
3F00
3F80
FFE0
1C00
3800
7000
7800
7800
7800
7C00
3F80
1FE0
0F80
ENDCHAR
STARTCHAR 0130
ENCODING 304
SWIDTH 382 0
DWIDTH 17 0
BBX 15 38 1 0
BITMAP
0380
07C0
0FE0
0FE0
07C0
07C0
0000
0000
0000
FFFE
0FF0
0FE0
0FE0
0FE0
0FE0
0FE0
0FE0
0FE0
0FE0
0FE0
0FE0
0FE0
0FE0
0FE0
0FE0
0FE0
0FE0
0FE0
0FE0
0FE0
0FE0
0FE0
0FE0
0FE0
0FE0
0FE0
1FF0
FFFE
ENDCHAR
STARTCHAR 0131
ENCODING 305
SWIDTH 270 0
DWIDTH 12 0
BBX 11 20 1 0
BITMAP
FF00
3F00
3F00
3F00
3F00
3F00
3F00
3F00
3F00
3F00
3F00
3F00
3F00
3F00
3F00
3F00
3F00
3F80
3F80
FFE0
ENDCHAR
STARTCHAR 0132
ENCODING 306
SWIDTH 832 0
DWIDTH 37 0
BBX 35 30 1 -1
BITMAP
FFFE0FFFE0
0FF000FF00
0FE000FE00
0FE000FE00
0FE000FE00
0FE000FE00
0FE000FE00
0FE000FE00
0FE000FE00
0FE000FE00
0FE000FE00
0FE000FE00
0FE000FE00
0FE000FE00
0FE000FE00
0FE000FE00
0FE000FE00
0FE000FE00
0FE000FE00
0FE000FE00
0FE1E0FE00
0FE3F0FE00
0FE3F0FE00
0FE3F0FE00
0FE3F0FE00
0FE3E0FC00
0FE1E0FC00
1FF0F1F800
FFFE7FE000
0000070000
ENDCHAR
STARTCHAR 0133
ENCODING 307
SWIDTH 562 0
DWIDTH 25 0
BBX 20 40 1 -10
BITMAP
1E01E0
1F03F0
3F83F0
3F83F0
3F83F0
1F01E0
040000
000000
000000
000000
FF0FF0
3F03F0
3F03F0
3F03F0
3F03F0
3F03F0
3F03F0
3F03F0
3F03F0
3F03F0
3F03F0
3F03F0
3F03F0
3F03F0
3F03F0
3F03F0
3F03F0
3F83F0
3F83F0
FFE3F0
0003F0
0003F0
0003F0
0003F0
0073F0
00F3F0
00F3E0
00F3C0
007F80
000C00
ENDCHAR
STARTCHAR 0134
ENCODING 308
SWIDTH 495 0
DWIDTH 22 0
BBX 21 42 0 -1
BITMAP
000F80
001F80
001FC0
003FC0
003DE0
0078E0
00F070
00C030
018018
000000
000000
000000
01FFF8
003FC0
001FC0
001FC0
001FC0
001FC0
001FC0
001FC0
001FC0
001FC0
001FC0
001FC0
001FC0
001FC0
001FC0
001FC0
001FC0
001FC0
001FC0
001FC0
3C1FC0
7C1FC0
7E1FC0
FE1F80
7C1F80
7C1F80
383F00
1C7E00
0FFC00
01C000
ENDCHAR
STARTCHAR 0135
ENCODING 309
SWIDTH 337 0
DWIDTH 15 0
BBX 15 41 -1 -10
BITMAP
03E0
07F0
07F0
0FF8
1F78
1C3C
380C
3006
0000
0000
0000
1FF0
07F0
03F0
03F0
03F0
03F0
03F0
03F0
03F0
03F0
03F0
03F0
03F0
03F0
03F0
03F0
03F0
03F0
03F0
03F0
03F0
03F0
03F0
03F0
F3F0
F3E0
F3E0
F3C0
7F80
0C00
ENDCHAR
STARTCHAR 0136
ENCODING 310
SWIDTH 787 0
DWIDTH 35 0
BBX 34 37 1 -8
BITMAP
FFFC03FF00
0FF000F800
0FE000F000
0FE000E000
0FE0018000
0FE0070000
0FE00E0000
0FE01C0000
0FE0300000
0FE0E00000
0FE1C00000
0FE3C00000
0FE7E00000
0FEFF00000
0FFFF00000
0FF7F80000
0FE7FC0000
0FE3FE0000
0FE1FF0000
0FE0FF0000
0FE07F8000
0FE07FC000
0FE03FE000
0FE01FF000
0FE00FF000
0FE00FF800
0FE007FC00
1FF007FF00
FFFE1FFFC0
0000000000
0003800000
0003E00000
0003E00000
0000E00000
0000E00000
0001E00000
000FC00000
ENDCHAR
STARTCHAR 0137
ENCODING 311
SWIDTH 562 0
DWIDTH 25 0
BBX 24 37 1 -8
BITMAP
7F8000
3F8000
1F8000
1F8000
1F8000
1F8000
1F8000
1F8000
1F8000
1F87FC
1F81F0
1F80C0
1F8180
1F8300
1F8600
1F8C00
1F9E00
1FBE00
1FFF00
1FFF80
1F9F80
1F9FC0
1F8FE0
1F87E0
1F87F0
1F83F8
1F81FC
3F81FC
FFE3FF
000000
007800
007C00
007C00
001C00
001C00
003C00
01F800
ENDCHAR
STARTCHAR 0138
ENCODING 312
SWIDTH 562 0
DWIDTH 25 0
BBX 23 20 2 0
BITMAP
FFCFF8
7F01E0
3F0180
3F0300
3F0600
3F0C00
3F1800
3F3C00
3F7C00
3FFE00
3FFF00
3F3F00
3F3F80
3F1FC0
3F0FE0
3F0FE0
3F07F0
3F03F8
7F03FC
FFC7FE
ENDCHAR
STARTCHAR 0139
ENCODING 313
SWIDTH 675 0
DWIDTH 30 0
BBX 27 39 1 0
BITMAP
007E0000
00FC0000
00F80000
00F00000
01E00000
01C00000
01800000
00000000
00000000
00000000
FFFE0000
0FE00000
0FE00000
0FE00000
0FE00000
0FE00000
0FE00000
0FE00000
0FE00000
0FE00000
0FE00000
0FE00000
0FE00000
0FE00000
0FE00000
0FE00000
0FE00000
0FE00000
0FE00000
0FE00020
0FE00020
0FE00060
0FE00060
0FE000E0
0FE000C0
0FE001C0
0FE007C0
1FFFFFC0
FFFFFFC0
ENDCHAR
STARTCHAR 013A
ENCODING 314
SWIDTH 270 0
DWIDTH 12 0
BBX 11 39 1 0
BITMAP
07E0
0FC0
0F80
0F00
1E00
1C00
1800
0000
0000
0000
FF00
3F00
3F00
3F00
3F00
3F00
3F00
3F00
3F00
3F00
3F00
3F00
3F00
3F00
3F00
3F00
3F00
3F00
3F00
3F00
3F00
3F00
3F00
3F00
3F00
3F00
3F80
3F80
FFE0
ENDCHAR
STARTCHAR 013B
ENCODING 315
SWIDTH 675 0
DWIDTH 30 0
BBX 27 37 1 -8
BITMAP
FFFE0000
0FE00000
0FE00000
0FE00000
0FE00000
0FE00000
0FE00000
0FE00000
0FE00000
0FE00000
0FE00000
0FE00000
0FE00000
0FE00000
0FE00000
0FE00000
0FE00000
0FE00000
0FE00000
0FE00020
0FE00020
0FE00060
0FE00060
0FE000E0
0FE000C0
0FE001C0
0FE007C0
1FFFFFC0
FFFFFFC0
00000000
001E0000
001F0000
000F8000
00078000
00078000
00070000
003E0000
ENDCHAR
STARTCHAR 013C
ENCODING 316
SWIDTH 270 0
DWIDTH 12 0
BBX 11 37 1 -8
BITMAP
FF00
3F00
3F00
3F00
3F00
3F00
3F00
3F00
3F00
3F00
3F00
3F00
3F00
3F00
3F00
3F00
3F00
3F00
3F00
3F00
3F00
3F00
3F00
3F00
3F00
3F00
3F80
3F80
FFE0
0000
1C00
1F00
1F00
0700
0700
0F00
7E00
ENDCHAR
STARTCHAR 013D
ENCODING 317
SWIDTH 675 0
DWIDTH 30 0
BBX 27 30 1 0
BITMAP
00000F00
FFFE1F80
0FE01FC0
0FE03FC0
0FE03FE0
0FE01FE0
0FE00EC0
0FE000C0
0FE000C0
0FE001C0
0FE00180
0FE00300
0FE00600
0FE01800
0FE00000
0FE00000
0FE00000
0FE00000
0FE00000
0FE00000
0FE00020
0FE00020
0FE00060
0FE00060
0FE000E0
0FE000C0
0FE001C0
0FE007C0
1FFFFFC0
FFFFFFC0
ENDCHAR
STARTCHAR 013E
ENCODING 318
SWIDTH 472 0
DWIDTH 21 0
BBX 19 30 1 0
BITMAP
000780
FF0FC0
3F1FE0
3F1FE0
3F1FE0
3F0FE0
3F07E0
3F0060
3F00E0
3F00C0
3F01C0
3F0180
3F0300
3F0C00
3F0000
3F0000
3F0000
3F0000
3F0000
3F0000
3F0000
3F0000
3F0000
3F0000
3F0000
3F0000
3F0000
3F8000
3F8000
FFE000
ENDCHAR
STARTCHAR 013F
ENCODING 319
SWIDTH 675 0
DWIDTH 30 0
BBX 27 29 1 0
BITMAP
FFFE0000
0FE00000
0FE00000
0FE00000
0FE00000
0FE00000
0FE00000
0FE00000
0FE00000
0FE00000
0FE00000
0FE00000
0FE07800
0FE0FC00
0FE0FC00
0FE0FC00
0FE07800
0FE00000
0FE00000
0FE00020
0FE00020
0FE00060
0FE00060
0FE000E0
0FE000C0
0FE001C0
0FE007C0
1FFFFFC0
FFFFFFC0
ENDCHAR
STARTCHAR 0140
ENCODING 320
SWIDTH 405 0
DWIDTH 18 0
BBX 17 29 1 0
BITMAP
FF0000
3F0000
3F0000
3F0000
3F0000
3F0000
3F0000
3F0000
3F0000
3F0000
3F0000
3F0000
3F0F00
3F1F80
3F1F80
3F0F80
3F0F00
3F0000
3F0000
3F0000
3F0000
3F0000
3F0000
3F0000
3F0000
3F0000
3F8000
3F8000
FFE000
ENDCHAR
STARTCHAR 0141
ENCODING 321
SWIDTH 675 0
DWIDTH 30 0
BBX 27 29 1 0
BITMAP
FFFF0000
1FF00000
0FE00000
0FE00000
0FE00000
0FE00000
0FE00000
0FE10000
0FE30000
0FE60000
0FFC0000
0FF80000
0FE00000
0FE00000
0FE00000
0FE00000
0FE00000
3FE00000
7FE00000
CFE00020
8FE00020
0FE00060
0FE00060
0FE000C0
0FE000C0
0FE001C0
0FE007C0
1FFFFFC0
FFFFFFC0
ENDCHAR
STARTCHAR 0142
ENCODING 322
SWIDTH 270 0
DWIDTH 12 0
BBX 11 29 1 0
BITMAP
FF00
3F00
3F00
3F00
3F00
3F00
3F00
3F00
3F00
3F20
3F60
3FC0
3F80
3F00
3F00
3F00
7F00
FF00
BF00
3F00
3F00
3F00
3F00
3F00
3F00
3F00
3F00
3F80
FFE0
ENDCHAR
STARTCHAR 0143
ENCODING 323
SWIDTH 720 0
DWIDTH 32 0
BBX 30 40 1 -1
BITMAP
0001F800
0003F000
0003E000
0003C000
00078000
00070000
00060000
00000000
00000000
00000000
FFE007FC
1FF000E0
1FF000C0
0FF800C0
0FFC0040
0FFE0040
0DFF0040
0DFF0040
0CFF8040
0C7FC040
0C3FE040
0C1FF040
0C1FF040
0C0FF840
0C07FC40
0C03FE40
0C01FF40
0C00FF40
0C00FFC0
0C007FC0
0C003FC0
0C001FC0
0C000FC0
0C000FC0
0C0007C0
0C0003C0
0C0001C0
1E0000C0
FFC000C0
00000040
ENDCHAR
STARTCHAR 0144
ENCODING 324
SWIDTH 562 0
DWIDTH 25 0
BBX 21 30 2 0
BITMAP
003F00
007E00
007C00
007800
00F000
00E000
00C000
000000
000000
000F00
FF3F80
7F7FC0
3FCFE0
3F87E0
3F07E0
3F07E0
3F07E0
3F07E0
3F07E0
3F07E0
3F07E0
3F07E0
3F07E0
3F07E0
3F07E0
3F07E0
3F07E0
3F07E0
7F07F0
FFDFF8
ENDCHAR
STARTCHAR 0145
ENCODING 325
SWIDTH 720 0
DWIDTH 32 0
BBX 30 37 1 -8
BITMAP
FFE007FC
1FF000E0
1FF000C0
0FF800C0
0FFC0040
0FFE0040
0DFF0040
0DFF0040
0CFF8040
0C7FC040
0C3FE040
0C1FF040
0C1FF040
0C0FF840
0C07FC40
0C03FE40
0C01FF40
0C00FF40
0C00FFC0
0C007FC0
0C003FC0
0C001FC0
0C000FC0
0C000FC0
0C0007C0
0C0003C0
0C0001C0
1E0000C0
FFC000C0
00000040
00070000
0007C000
0007C000
0003C000
0003C000
0003C000
001F0000
ENDCHAR
STARTCHAR 0146
ENCODING 326
SWIDTH 562 0
DWIDTH 25 0
BBX 21 29 2 -8
BITMAP
000F00
FF3F80
7F7FC0
3FCFE0
3F87E0
3F07E0
3F07E0
3F07E0
3F07E0
3F07E0
3F07E0
3F07E0
3F07E0
3F07E0
3F07E0
3F07E0
3F07E0
3F07E0
3F07E0
7F07F0
FFDFF8
000000
00F000
00F800
00F800
003800
003800
007800
03F000
ENDCHAR
STARTCHAR 0147
ENCODING 327
SWIDTH 720 0
DWIDTH 32 0
BBX 30 41 1 -1
BITMAP
00C00000
00601C00
00703800
003C7800
001EF000
001FE000
000FE000
000FC000
0007C000
00000000
00000000
FFE007FC
1FF000E0
1FF000C0
0FF800C0
0FFC0040
0FFE0040
0DFF0040
0DFF0040
0CFF8040
0C7FC040
0C3FE040
0C1FF040
0C1FF040
0C0FF840
0C07FC40
0C03FE40
0C01FF40
0C00FF40
0C00FFC0
0C007FC0
0C003FC0
0C001FC0
0C000FC0
0C000FC0
0C0007C0
0C0003C0
0C0001C0
1E0000C0
FFC000C0
00000040
ENDCHAR
STARTCHAR 0148
ENCODING 328
SWIDTH 562 0
DWIDTH 25 0
BBX 21 31 2 0
BITMAP
0C0180
0E0380
070700
078F00
03FE00
03FC00
01FC00
01F800
000000
000000
000F00
FF3F80
7F7FC0
3FCFE0
3F87E0
3F07E0
3F07E0
3F07E0
3F07E0
3F07E0
3F07E0
3F07E0
3F07E0
3F07E0
3F07E0
3F07E0
3F07E0
3F07E0
3F07E0
7F07F0
FFDFF8
ENDCHAR
STARTCHAR 0149
ENCODING 329
SWIDTH 720 0
DWIDTH 32 0
BBX 32 30 3 0
BITMAP
3C000000
7E000000
FF000000
FF000000
FF800000
7F800000
3B000000
03000000
03000000
070003E0
063FE7F0
0C0FFFF8
180FF9FC
600FE0FC
000FE0FC
000FE0FC
000FE0FC
000FE0FC
000FE0FC
000FE0FC
000FE0FC
000FE0FC
000FE0FC
000FE0FC
000FE0FC
000FE0FC
000FE0FC
000FE0FC
000FE1FC
003FFBFF
ENDCHAR
STARTCHAR 014A
ENCODING 330
SWIDTH 765 0
DWIDTH 34 0
BBX 31 31 1 -1
BITMAP
00007E00
FFE1FF80
0FE307C0
0FE603E0
0FEC01F0
0FE801F0
0FF801F8
0FF001F8
0FF001FC
0FE001FC
0FE001FC
0FE001FE
0FE001FE
0FE001FE
0FE001FE
0FE001FE
0FE001FE
0FE001FE
0FE001FE
0FE001FE
0FE001FC
0FE001FC
0FE001FC
0FE021F8
0FE0F1F8
0FE0F9F0
0FE0F9F0
0FE0F9E0
1FF0F9C0
FFFE7F80
00001C00
ENDCHAR
STARTCHAR 014B
ENCODING 331
SWIDTH 562 0
DWIDTH 25 0
BBX 19 31 2 -10
BITMAP
000F00
FF3FC0
3F7FC0
3FC7E0
3F87E0
3F07E0
3F07E0
3F07E0
3F07E0
3F07E0
3F07E0
3F07E0
3F07E0
3F07E0
3F07E0
3F07E0
3F07E0
3F07E0
3F07E0
7F07E0
FFC7E0
0007E0
0007E0
0007E0
0007E0
01E7E0
01E7E0
01E7C0
01E7C0
00FF00
001800
ENDCHAR
STARTCHAR 014C
ENCODING 332
SWIDTH 787 0
DWIDTH 35 0
BBX 31 37 2 -1
BITMAP
00FFFC00
00FFFC00
00FFFC00
00000000
00000000
00000000
001FF000
00FFFE00
03F01F00
07E00FC0
0FC007E0
1F8007F0
3F8003F8
3F8003F8
7F0001FC
7F0001FC
FF0001FC
FF0001FE
FF0001FE
FF0001FE
FF0001FE
FF0001FE
FF0001FE
FF0001FE
FF0001FE
FF0001FC
7F0001FC
7F0001FC
7F0003F8
3F8003F8
1F8003F0
1FC007E0
0FC007C0
07E00F80
01F83F00
007FFC00
00078000
ENDCHAR
STARTCHAR 014D
ENCODING 333
SWIDTH 495 0
DWIDTH 22 0
BBX 19 28 2 -1
BITMAP
3FFF00
3FFF00
3FFF00
000000
000000
000000
03F000
0FFC00
1E1E00
3E0F00
7C0F80
7C0FC0
FC0FC0
FC0FC0
FC0FC0
FC0FE0
FC0FE0
FC0FE0
FC0FE0
FC0FC0
FC0FC0
FC0FC0
7C0F80
7C0F80
3E1F00
1F1E00
0FFC00
00C000
ENDCHAR
STARTCHAR 014E
ENCODING 334
SWIDTH 787 0
DWIDTH 35 0
BBX 31 40 2 -1
BITMAP
00600C00
00601C00
007FF800
003FF800
001FF000
000FE000
00038000
00000000
00000000
001FF000
00FFFE00
03F01F00
07E00FC0
0FC007E0
1F8007F0
3F8003F8
3F8003F8
7F0001FC
7F0001FC
FF0001FC
FF0001FE
FF0001FE
FF0001FE
FF0001FE
FF0001FE
FF0001FE
FF0001FE
FF0001FE
FF0001FC
7F0001FC
7F0001FC
7F0003F8
3F8003F8
1F8003F0
1FC007E0
0FC007C0
07E00F80
01F83F00
007FFC00
00078000
ENDCHAR
STARTCHAR 014F
ENCODING 335
SWIDTH 495 0
DWIDTH 22 0
BBX 19 31 2 -1
BITMAP
100300
180600
1E1E00
0FFE00
0FFC00
07F800
01E000
000000
000000
03F000
0FFC00
1E1E00
3E0F00
7C0F80
7C0FC0
FC0FC0
FC0FC0
FC0FC0
FC0FE0
FC0FE0
FC0FE0
FC0FE0
FC0FC0
FC0FC0
FC0FC0
7C0F80
7C0F80
3E1F00
1F1E00
0FFC00
00C000
ENDCHAR
STARTCHAR 0150
ENCODING 336
SWIDTH 787 0
DWIDTH 35 0
BBX 31 40 2 -1
BITMAP
00078F00
000F1E00
000E1C00
000E1C00
001C3800
00183000
00182000
00000000
00000000
001FF000
00FFFE00
03F01F00
07E00FC0
0FC007E0
1F8007F0
3F8003F8
3F8003F8
7F0001FC
7F0001FC
FF0001FC
FF0001FE
FF0001FE
FF0001FE
FF0001FE
FF0001FE
FF0001FE
FF0001FE
FF0001FE
FF0001FC
7F0001FC
7F0001FC
7F0003F8
3F8003F8
1F8003F0
1FC007E0
0FC007C0
07E00F80
01F83F00
007FFC00
00078000
ENDCHAR
STARTCHAR 0151
ENCODING 337
SWIDTH 495 0
DWIDTH 22 0
BBX 19 31 2 -1
BITMAP
03E7C0
03C780
038700
070E00
070E00
060C00
0C1800
000000
000000
03F000
0FFC00
1E1E00
3E0F00
7C0F80
7C0FC0
FC0FC0
FC0FC0
FC0FC0
FC0FE0
FC0FE0
FC0FE0
FC0FE0
FC0FC0
FC0FC0
FC0FC0
7C0F80
7C0F80
3E1F00
1F1E00
0FFC00
00C000
ENDCHAR
STARTCHAR 0152
ENCODING 338
SWIDTH 990 0
DWIDTH 44 0
BBX 40 30 2 0
BITMAP
001FF00000
00FFFFFFFC
03F07FC1FC
07E03FC03C
0FC01FC01C
1F801FC00C
3F801FC004
3F801FC004
7F001FC104
7F001FC100
FF001FC100
FF001FC100
FF001FC300
FF001FC700
FE001FFF00
FE001FFF00
FE001FC700
FE001FC300
FF001FC300
FF001FC100
FF001FC100
7F001FC101
7F001FC101
3F001FC003
3F801FC003
1F801FC007
0FC03FC00E
07E03FC03E
01F8FFFFFE
007FFFFFFE
ENDCHAR
STARTCHAR 0153
ENCODING 339
SWIDTH 720 0
DWIDTH 32 0
BBX 29 22 2 -1
BITMAP
01F01E00
0FFC7F80
1E1EE1C0
3E0FE1E0
7C0FE1F0
7C0FC1F0
FC0FC0F0
FC0FC0F8
FC0FC0F8
FC0FFFF8
FC0FC000
FC0FC000
FC0FE000
FC0FE000
FC0FE000
FC0FF008
7C0FF010
7C0FF830
3E0FFFE0
1E1EFFC0
0FF87F80
00E00800
ENDCHAR
STARTCHAR 0154
ENCODING 340
SWIDTH 720 0
DWIDTH 32 0
BBX 31 39 1 0
BITMAP
0001F800
0003F000
0003E000
0003C000
00078000
00070000
00060000
00000000
00000000
00000000
FFFFFC00
1FE0FF00
0FE03F80
0FE01FC0
0FE01FC0
0FE00FE0
0FE00FE0
0FE00FE0
0FE00FE0
0FE00FE0
0FE01FC0
0FE01FC0
0FE03F80
0FE07F00
0FFFFC00
0FFFF800
0FE7F800
0FE3FC00
0FE1FE00
0FE1FE00
0FE0FF00
0FE07F80
0FE03FC0
0FE03FC0
0FE01FE0
0FE00FF0
0FE00FF8
1FF007F8
FFFE03FE
ENDCHAR
STARTCHAR 0155
ENCODING 341
SWIDTH 450 0
DWIDTH 20 0
BBX 17 30 2 0
BITMAP
00FC00
01F800
01F000
01E000
03C000
038000
030000
000000
000000
000700
FF1F80
3F3F80
3F7F80
3FEF80
3F8700
3F8000
3F0000
3F0000
3F0000
3F0000
3F0000
3F0000
3F0000
3F0000
3F0000
3F0000
3F0000
3F0000
7F0000
FFE000
ENDCHAR
STARTCHAR 0156
ENCODING 342
SWIDTH 720 0
DWIDTH 32 0
BBX 31 37 1 -8
BITMAP
FFFFFC00
1FE0FF00
0FE03F80
0FE01FC0
0FE01FC0
0FE00FE0
0FE00FE0
0FE00FE0
0FE00FE0
0FE00FE0
0FE01FC0
0FE01FC0
0FE03F80
0FE07F00
0FFFFC00
0FFFF800
0FE7F800
0FE3FC00
0FE1FE00
0FE1FE00
0FE0FF00
0FE07F80
0FE03FC0
0FE03FC0
0FE01FE0
0FE00FF0
0FE00FF8
1FF007F8
FFFE03FE
00000000
00078000
0007C000
0007C000
0001E000
0001C000
0003C000
001F8000
ENDCHAR
STARTCHAR 0157
ENCODING 343
SWIDTH 450 0
DWIDTH 20 0
BBX 17 29 2 -8
BITMAP
000700
FF1F80
3F3F80
3F7F80
3FEF80
3F8700
3F8000
3F0000
3F0000
3F0000
3F0000
3F0000
3F0000
3F0000
3F0000
3F0000
3F0000
3F0000
3F0000
7F0000
FFE000
000000
078000
07C000
03E000
01E000
01E000
01C000
0F8000
ENDCHAR
STARTCHAR 0158
ENCODING 344
SWIDTH 720 0
DWIDTH 32 0
BBX 31 40 1 0
BITMAP
00C00000
00601C00
00703800
00387000
003FF000
001FE000
001FE000
000FC000
000FC000
00000000
00000000
FFFFFC00
1FE0FF00
0FE03F80
0FE01FC0
0FE01FC0
0FE00FE0
0FE00FE0
0FE00FE0
0FE00FE0
0FE00FE0
0FE01FC0
0FE01FC0
0FE03F80
0FE07F00
0FFFFC00
0FFFF800
0FE7F800
0FE3FC00
0FE1FE00
0FE1FE00
0FE0FF00
0FE07F80
0FE03FC0
0FE03FC0
0FE01FE0
0FE00FF0
0FE00FF8
1FF007F8
FFFE03FE
ENDCHAR
STARTCHAR 0159
ENCODING 345
SWIDTH 450 0
DWIDTH 20 0
BBX 17 31 2 0
BITMAP
300600
380E00
1C1C00
1E7800
0FF800
0FF000
07F000
07E000
000000
000000
000700
FF1F80
3F3F80
3F7F80
3FEF80
3F8700
3F8000
3F0000
3F0000
3F0000
3F0000
3F0000
3F0000
3F0000
3F0000
3F0000
3F0000
3F0000
3F0000
7F0000
FFE000
ENDCHAR
STARTCHAR 015A
ENCODING 346
SWIDTH 562 0
DWIDTH 25 0
BBX 21 40 2 -1
BITMAP
003F00
007E00
007C00
007800
00F000
00E000
00C000
000000
000000
03F820
0FFE20
1E07E0
3C01E0
7800E0
780060
780060
FC0020
FE0020
FF0020
7FC000
7FF000
7FFC00
3FFF00
1FFF80
0FFFC0
03FFE0
00FFF0
007FF0
001FF8
8007F8
C003F8
C001F8
C000F8
E000F0
F000F0
F800E0
FC01E0
FF03C0
C7FF00
807800
ENDCHAR
STARTCHAR 015B
ENCODING 347
SWIDTH 382 0
DWIDTH 17 0
BBX 14 31 2 -1
BITMAP
03F0
03E0
07C0
0780
0700
0E00
0C00
0000
0000
0F10
3FF0
7870
F030
F018
F818
FE08
FF00
FF80
7FE0
7FF0
1FF8
0FF8
07FC
81FC
80FC
C07C
E078
E078
F8F0
FFE0
8300
ENDCHAR
STARTCHAR 015C
ENCODING 348
SWIDTH 562 0
DWIDTH 25 0
BBX 21 42 2 -1
BITMAP
00F800
01F800
01FC00
03FE00
03DE00
078F00
070700
0E0380
180180
000000
000000
03F820
0FFE20
1E07E0
3C01E0
7800E0
780060
780060
FC0020
FE0020
FF0020
7FC000
7FF000
7FFC00
3FFF00
1FFF80
0FFFC0
03FFE0
00FFF0
007FF0
001FF8
8007F8
C003F8
C001F8
C000F8
E000F0
F000F0
F800E0
FC01E0
FF03C0
C7FF00
807800
ENDCHAR
STARTCHAR 015D
ENCODING 349
SWIDTH 382 0
DWIDTH 17 0
BBX 14 32 2 -1
BITMAP
0F80
1FC0
1FE0
3FE0
3CF0
7870
7038
C018
0000
0000
0F10
3FF0
7870
F030
F018
F818
FE08
FF00
FF80
7FE0
7FF0
1FF8
0FF8
07FC
81FC
80FC
C07C
E078
E078
F8F0
FFE0
8300
ENDCHAR
STARTCHAR 015E
ENCODING 350
SWIDTH 562 0
DWIDTH 25 0
BBX 21 38 2 -8
BITMAP
03F820
0FFE20
1E07E0
3C01E0
7800E0
780060
780060
FC0020
FE0020
FF0020
7FC000
7FF000
7FFC00
3FFF00
1FFF80
0FFFC0
03FFE0
00FFF0
007FF0
001FF8
8007F8
C003F8
C001F8
C000F8
E000F0
F000F0
F800E0
FC01E0
FF03C0
C7FF00
807800
007000
007800
00FC00
003C00
003C00
007800
03F000
ENDCHAR
STARTCHAR 015F
ENCODING 351
SWIDTH 382 0
DWIDTH 17 0
BBX 14 29 2 -8
BITMAP
0F10
3FF0
7870
F030
F018
F818
FE08
FF00
FF80
7FE0
7FF0
1FF8
0FF8
07FC
81FC
80FC
C07C
E078
E078
F8F0
FFE0
8300
0700
0780
0FC0
03C0
0380
0780
3F00
ENDCHAR
STARTCHAR 0160
ENCODING 352
SWIDTH 562 0
DWIDTH 25 0
BBX 21 41 2 -1
BITMAP
180000
0C0380
0E0700
078F00
07DE00
03FC00
03FC00
01F800
00F800
000000
03F820
0FFE20
1E07E0
3C01E0
7800E0
780060
780060
FC0020
FE0020
FF0020
7FC000
7FF000
7FFC00
3FFF00
1FFF80
0FFFC0
03FFE0
00FFF0
007FF0
001FF8
8007F8
C003F8
C001F8
C000F8
E000F0
F000F0
F800E0
FC01E0
FF03C0
C7FF00
807800
ENDCHAR
STARTCHAR 0161
ENCODING 353
SWIDTH 382 0
DWIDTH 17 0
BBX 14 32 2 -1
BITMAP
C018
E038
7070
78F0
3FE0
3FC0
1FC0
1F80
0000
0000
0F10
3FF0
7870
F030
F018
F818
FE08
FF00
FF80
7FE0
7FF0
1FF8
0FF8
07FC
81FC
80FC
C07C
E078
E078
F8F0
FFE0
8300
ENDCHAR
STARTCHAR 0162
ENCODING 354
SWIDTH 675 0
DWIDTH 30 0
BBX 26 40 2 -11
BITMAP
FFFFFFC0
F87F0FC0
E07F01C0
C07F00C0
807F00C0
807F0040
807F0040
007F0040
007F0000
007F0000
007F0000
007F0000
007F0000
007F0000
007F0000
007F0000
007F0000
007F0000
007F0000
007F0000
007F0000
007F0000
007F0000
007F0000
007F0000
007F0000
007F8000
00FF8000
07FFF800
00000000
00000000
001C0000
003E0000
003E0000
003F0000
00020000
00060000
00040000
00180000
00200000
ENDCHAR
STARTCHAR 0163
ENCODING 355
SWIDTH 337 0
DWIDTH 15 0
BBX 13 39 1 -11
BITMAP
0080
0180
0180
0380
0780
0F80
1F80
3F80
7FF8
FFF8
3F80
3F80
3F80
3F80
3F80
3F80
3F80
3F80
3F80
3F80
3F80
3F80
1F80
1F80
1F88
1F98
0FF0
07E0
0000
0000
0780
0F80
0FC0
0FC0
00C0
0080
0180
0200
0C00
ENDCHAR
STARTCHAR 0164
ENCODING 356
SWIDTH 675 0
DWIDTH 30 0
BBX 26 40 2 0
BITMAP
03000000
03806000
01C0E000
01E3C000
00F7C000
007F8000
007F0000
003F0000
003E0000
00000000
00000000
FFFFFFC0
F87F0FC0
E07F01C0
C07F00C0
807F00C0
807F0040
807F0040
007F0040
007F0000
007F0000
007F0000
007F0000
007F0000
007F0000
007F0000
007F0000
007F0000
007F0000
007F0000
007F0000
007F0000
007F0000
007F0000
007F0000
007F0000
007F0000
007F8000
00FF8000
07FFF800
ENDCHAR
STARTCHAR 0165
ENCODING 357
SWIDTH 517 0
DWIDTH 23 0
BBX 22 30 1 0
BITMAP
0001E0
0003F0
0083F8
0187F8
0183FC
0383FC
0781DC
0F8018
1F8018
3F8038
7FF830
FFF860
3F80C0
3F8300
3F8000
3F8000
3F8000
3F8000
3F8000
3F8000
3F8000
3F8000
3F8000
3F8000
3F8000
1F8000
1F8800
1F9800
0FF000
07E000
ENDCHAR
STARTCHAR 0166
ENCODING 358
SWIDTH 675 0
DWIDTH 30 0
BBX 26 29 2 0
BITMAP
FFFFFFC0
F87F07C0
E07F01C0
C07F00C0
807F00C0
807F0040
807F0040
007F0040
007F0000
007F0000
007F0000
007F0000
007F0000
1FFFFE00
007F0000
007F0000
007F0000
007F0000
007F0000
007F0000
007F0000
007F0000
007F0000
007F0000
007F0000
007F0000
007F8000
007F8000
07FFF800
ENDCHAR
STARTCHAR 0167
ENCODING 359
SWIDTH 337 0
DWIDTH 15 0
BBX 13 28 1 0
BITMAP
0080
0180
0180
0380
0780
0F80
1F80
3F80
7FF8
FFF8
3F80
3F80
3F80
3F80
3F80
FFF8
FFF8
3F80
3F80
3F80
3F80
3F80
3F80
1F80
1F88
1F98
0FF0
07E0
ENDCHAR
STARTCHAR 0168
ENCODING 360
SWIDTH 720 0
DWIDTH 32 0
BBX 29 39 2 -1
BITMAP
003E0800
007FD800
00FFF800
00FFF800
0087F000
0080C000
00000000
00000000
00000000
FFFC0FF8
3FC001C0
1FC00180
1FC00180
1FC00180
1FC00180
1FC00180
1FC00180
1FC00180
1FC00180
1FC00180
1FC00180
1FC00180
1FC00180
1FC00180
1FC00180
1FC00180
1FC00180
1FC00180
1FC00180
1FC00180
1FC00180
1FC00180
1FC00380
0FE00300
0FE00700
07F00E00
03FFF800
00FFF000
001F0000
ENDCHAR
STARTCHAR 0169
ENCODING 361
SWIDTH 562 0
DWIDTH 25 0
BBX 22 31 1 -1
BITMAP
00C040
03F840
07FFC0
07FFC0
06FF80
0C1F00
000000
000000
000000
000000
FF8FF0
3F83F0
3F83F0
1F83F0
1F83F0
1F83F0
1F83F0
1F83F0
1F83F0
1F83F0
1F83F0
1F83F0
1F83F0
1F83F0
1F83F0
1F83F0
1F87F0
1FDFF0
0FFBF8
07F3FC
018000
ENDCHAR
STARTCHAR 016A
ENCODING 362
SWIDTH 720 0
DWIDTH 32 0
BBX 29 37 2 -1
BITMAP
01FFF800
01FFF800
01FFF800
00000000
00000000
00000000
00000000
FFFC0FF8
3FC001C0
1FC00180
1FC00180
1FC00180
1FC00180
1FC00180
1FC00180
1FC00180
1FC00180
1FC00180
1FC00180
1FC00180
1FC00180
1FC00180
1FC00180
1FC00180
1FC00180
1FC00180
1FC00180
1FC00180
1FC00180
1FC00180
1FC00380
0FE00300
0FE00700
07F00E00
03FFF800
00FFF000
001F0000
ENDCHAR
STARTCHAR 016B
ENCODING 363
SWIDTH 562 0
DWIDTH 25 0
BBX 22 28 1 -1
BITMAP
0FFFC0
0FFFC0
0FFFC0
000000
000000
000000
000000
FF8FF0
3F83F0
3F83F0
1F83F0
1F83F0
1F83F0
1F83F0
1F83F0
1F83F0
1F83F0
1F83F0
1F83F0
1F83F0
1F83F0
1F83F0
1F83F0
1F87F0
1FDFF0
0FFBF8
07F3FC
018000
ENDCHAR
STARTCHAR 016C
ENCODING 364
SWIDTH 720 0
DWIDTH 32 0
BBX 29 40 2 -1
BITMAP
00801800
00C03000
00FFF000
007FF000
007FE000
003FC000
00060000
00000000
00000000
00000000
FFFC0FF8
3FC001C0
1FC00180
1FC00180
1FC00180
1FC00180
1FC00180
1FC00180
1FC00180
1FC00180
1FC00180
1FC00180
1FC00180
1FC00180
1FC00180
1FC00180
1FC00180
1FC00180
1FC00180
1FC00180
1FC00180
1FC00180
1FC00180
1FC00380
0FE00300
0FE00700
07F00E00
03FFF800
00FFF000
001F0000
ENDCHAR
STARTCHAR 016D
ENCODING 365
SWIDTH 562 0
DWIDTH 25 0
BBX 22 31 1 -1
BITMAP
0600C0
0601C0
078780
03FF80
01FF00
00FE00
003800
000000
000000
000000
FF8FF0
3F83F0
3F83F0
1F83F0
1F83F0
1F83F0
1F83F0
1F83F0
1F83F0
1F83F0
1F83F0
1F83F0
1F83F0
1F83F0
1F83F0
1F83F0
1F87F0
1FDFF0
0FFBF8
07F3FC
018000
ENDCHAR
STARTCHAR 016E
ENCODING 366
SWIDTH 720 0
DWIDTH 32 0
BBX 29 41 2 -1
BITMAP
000F8000
001DC000
00306000
00306000
00306000
00306000
0018C000
001FC000
00070000
00000000
00000000
FFFC0FF8
3FC001C0
1FC00180
1FC00180
1FC00180
1FC00180
1FC00180
1FC00180
1FC00180
1FC00180
1FC00180
1FC00180
1FC00180
1FC00180
1FC00180
1FC00180
1FC00180
1FC00180
1FC00180
1FC00180
1FC00180
1FC00180
1FC00180
1FC00380
0FE00300
0FE00700
07F00E00
03FFF800
00FFF000
001F0000
ENDCHAR
STARTCHAR 016F
ENCODING 367
SWIDTH 562 0
DWIDTH 25 0
BBX 22 32 1 -1
BITMAP
007C00
00FE00
018700
018300
010300
018300
018600
00FE00
007800
000000
000000
FF8FF0
3F83F0
3F83F0
1F83F0
1F83F0
1F83F0
1F83F0
1F83F0
1F83F0
1F83F0
1F83F0
1F83F0
1F83F0
1F83F0
1F83F0
1F83F0
1F87F0
1FDFF0
0FFBF8
07F3FC
018000
ENDCHAR
STARTCHAR 0170
ENCODING 368
SWIDTH 720 0
DWIDTH 32 0
BBX 29 40 2 -1
BITMAP
001E3C00
001C3800
003C7800
00387000
00306000
0070C000
0060C000
00000000
00000000
00000000
FFFC0FF8
3FC001C0
1FC00180
1FC00180
1FC00180
1FC00180
1FC00180
1FC00180
1FC00180
1FC00180
1FC00180
1FC00180
1FC00180
1FC00180
1FC00180
1FC00180
1FC00180
1FC00180
1FC00180
1FC00180
1FC00180
1FC00180
1FC00180
1FC00380
0FE00300
0FE00700
07F00E00
03FFF800
00FFF000
001F0000
ENDCHAR
STARTCHAR 0171
ENCODING 369
SWIDTH 562 0
DWIDTH 25 0
BBX 22 31 1 -1
BITMAP
0078F0
00F1E0
00E1C0
00E1C0
01C380
018300
010200
000000
000000
000000
FF8FF0
3F83F0
3F83F0
1F83F0
1F83F0
1F83F0
1F83F0
1F83F0
1F83F0
1F83F0
1F83F0
1F83F0
1F83F0
1F83F0
1F83F0
1F83F0
1F87F0
1FDFF0
0FFBF8
07F3FC
018000
ENDCHAR
STARTCHAR 0172
ENCODING 370
SWIDTH 720 0
DWIDTH 32 0
BBX 29 39 2 -10
BITMAP
FFFC0FF8
1FC001C0
1FC001C0
1FC00180
1FC00180
1FC00180
1FC00180
1FC00180
1FC00180
1FC00180
1FC00180
1FC00180
1FC00180
1FC00180
1FC00180
1FC00180
1FC00180
1FC00180
1FC00180
1FC00180
1FC00180
1FC00180
1FC00180
1FC00180
0FE00300
0FE00700
07F00E00
03FFFC00
00FFF000
001F8000
00070000
000F0000
000F0000
000F0000
000F8000
000F8000
0007F000
0003FC00
0001F000
ENDCHAR
STARTCHAR 0173
ENCODING 371
SWIDTH 562 0
DWIDTH 25 0
BBX 22 30 1 -10
BITMAP
FF8FF0
3F83F0
1F83F0
1F83F0
1F83F0
1F83F0
1F83F0
1F83F0
1F83F0
1F83F0
1F83F0
1F83F0
1F83F0
1F83F0
1F83F0
1F83F0
1F87F0
1FCFF0
0FFBF8
07F3FC
018380
000700
000700
000F00
000F00
000F80
000FC0
0007F0
0003FC
0001F8
ENDCHAR
STARTCHAR 0174
ENCODING 372
SWIDTH 990 0
DWIDTH 44 0
BBX 43 42 1 -1
BITMAP
00001F000000
00003F000000
00003F800000
00007F800000
00007BC00000
0000F1C00000
0001E0E00000
000180600000
000300300000
000000000000
000000000000
000000000000
FFF1FFF80FE0
3FC03FC00380
3FC01FC00300
1FC01FE00300
1FC01FE00300
1FE00FE00200
0FE00FF00600
0FF007F00400
07F007F00C00
07F007F80C00
07F80FF80800
03F80FFC1800
03FC19FC1800
01FC19FC3000
01FC11FE3000
01FE30FE2000
00FE20FE6000
00FF607F6000
007F607F4000
007FC07FC000
007FC03FC000
003F803F8000
003F803F8000
001F801F0000
001F001F0000
001F000F0000
000E000E0000
000E000E0000
000400060000
000400040000
ENDCHAR
STARTCHAR 0175
ENCODING 373
SWIDTH 720 0
DWIDTH 32 0
BBX 32 32 0 -1
BITMAP
0007E000
0007E000
000FF000
000FF000
001E7800
001C3C00
00381C00
00700E00
00000000
00000000
00000000
FFEFFE3F
3F83F80C
1F81F808
1F81FC18
0FC1FC18
0FC1FC10
0FE3FE30
07E27E20
07E27E20
07F67F60
03F43F40
03F43F40
03FC1FC0
01F81F80
01F81F80
00F00F80
00F00F00
00F00F00
00600700
00600600
00600200
ENDCHAR
STARTCHAR 0176
ENCODING 374
SWIDTH 720 0
DWIDTH 32 0
BBX 30 41 1 0
BITMAP
0007C000
0007E000
000FE000
000FF000
001FF000
001C7800
00383C00
00700C00
00600600
00000000
00000000
00000000
FFF803FC
3FE00070
1FE00060
1FE000E0
0FF000C0
07F00180
07F80180
03F80300
03FC0300
01FE0600
01FE0C00
00FF0C00
00FF1800
007F9800
007FB000
003FE000
001FE000
001FE000
001FE000
001FE000
001FE000
001FE000
001FE000
001FE000
001FE000
001FE000
001FE000
001FE000
01FFFE00
ENDCHAR
STARTCHAR 0177
ENCODING 375
SWIDTH 495 0
DWIDTH 22 0
BBX 22 41 0 -10
BITMAP
007C00
00FC00
01FE00
01FF00
03CF00
038780
070380
0601C0
000000
000000
000000
FFE1FC
3F8070
1F8060
1FC060
0FC060
0FE040
07E0C0
07E080
07F080
03F180
03F900
01FB00
01FE00
00FE00
00FE00
00FC00
007C00
007C00
003800
003800
001000
001000
003000
182000
3C6000
7C4000
7CC000
3F8000
3F0000
040000
ENDCHAR
STARTCHAR 0178
ENCODING 376
SWIDTH 720 0
DWIDTH 32 0
BBX 30 38 1 0
BITMAP
003C3C00
007E3E00
007E7E00
007E7E00
003C3C00
00181800
00000000
00000000
00000000
FFF803FC
3FE00070
1FE00060
1FE000E0
0FF000C0
07F00180
07F80180
03F80300
03FC0300
01FE0600
01FE0C00
00FF0C00
00FF1800
007F9800
007FB000
003FE000
001FE000
001FE000
001FE000
001FE000
001FE000
001FE000
001FE000
001FE000
001FE000
001FE000
001FE000
001FE000
01FFFE00
ENDCHAR
STARTCHAR 0179
ENCODING 377
SWIDTH 675 0
DWIDTH 30 0
BBX 28 39 1 0
BITMAP
0003F000
0003E000
0007C000
00078000
00070000
000E0000
000C0000
00000000
00000000
00000000
1FFFFFC0
1F807F80
1C00FF00
1800FF00
3001FE00
3003FC00
2003FC00
2007F800
000FF800
000FF000
001FE000
001FE000
003FC000
007F8000
007F8000
00FF0000
01FF0000
01FE0000
03FC0010
03FC0010
07F80030
0FF00030
0FF00020
1FE00060
1FE000E0
3FC001E0
7F8007E0
7FFFFFE0
FFFFFFE0
ENDCHAR
STARTCHAR 017A
ENCODING 378
SWIDTH 450 0
DWIDTH 20 0
BBX 19 30 0 0
BITMAP
003F00
003E00
007C00
007800
007000
00E000
00C000
000000
000000
000000
3FFFE0
381FC0
301FC0
203F80
203F00
207F00
00FE00
00FE00
01FC00
01F800
03F800
07F000
07F000
0FE020
1FC020
1FC060
3F80C0
3F81C0
7F1FC0
FFFFC0
ENDCHAR
STARTCHAR 017B
ENCODING 379
SWIDTH 675 0
DWIDTH 30 0
BBX 28 38 1 0
BITMAP
00070000
000F8000
001F8000
001F8000
001F8000
000F0000
00000000
00000000
00000000
1FFFFFC0
1F807F80
1C00FF00
1800FF00
3001FE00
3003FC00
2003FC00
2007F800
000FF800
000FF000
001FE000
001FE000
003FC000
007F8000
007F8000
00FF0000
01FF0000
01FE0000
03FC0010
03FC0010
07F80030
0FF00030
0FF00020
1FE00060
1FE000E0
3FC001E0
7F8007E0
7FFFFFE0
FFFFFFE0
ENDCHAR
STARTCHAR 017C
ENCODING 380
SWIDTH 450 0
DWIDTH 20 0
BBX 19 30 0 0
BITMAP
003000
00F800
00FC00
00FC00
00FC00
00F800
003000
000000
000000
000000
3FFFE0
381FC0
301FC0
203F80
203F00
207F00
00FE00
00FE00
01FC00
01F800
03F800
07F000
07F000
0FE020
1FC020
1FC060
3F80C0
3F81C0
7F1FC0
FFFFC0
ENDCHAR
STARTCHAR 017D
ENCODING 381
SWIDTH 675 0
DWIDTH 30 0
BBX 28 40 1 0
BITMAP
01800000
01C03000
00E07000
00F1E000
007BC000
007FC000
003F8000
001F8000
001F0000
00000000
00000000
1FFFFFC0
1F807F80
1C00FF00
1800FF00
3001FE00
3003FC00
2003FC00
2007F800
000FF800
000FF000
001FE000
001FE000
003FC000
007F8000
007F8000
00FF0000
01FF0000
01FE0000
03FC0010
03FC0010
07F80030
0FF00030
0FF00020
1FE00060
1FE000E0
3FC001E0
7F8007E0
7FFFFFE0
FFFFFFE0
ENDCHAR
STARTCHAR 017E
ENCODING 382
SWIDTH 450 0
DWIDTH 20 0
BBX 19 31 0 0
BITMAP
0C0180
0E0380
070700
038F00
03FE00
01FE00
01FC00
00F800
000000
000000
000000
3FFFE0
381FC0
301FC0
203F80
203F00
207F00
00FE00
00FE00
01FC00
01F800
03F800
07F000
07F000
0FE020
1FC020
1FC060
3F80C0
3F81C0
7F1FC0
FFFFC0
ENDCHAR
STARTCHAR 017F
ENCODING 383
SWIDTH 270 0
DWIDTH 12 0
BBX 17 30 0 0
BITMAP
00FE00
03DF00
078F80
0F9F80
0F8F00
1F8000
1F8000
1F8000
1F8000
1F8000
1F8000
1F8000
1F8000
1F8000
1F8000
1F8000
1F8000
1F8000
1F8000
1F8000
1F8000
1F8000
1F8000
1F8000
1F8000
1F8000
1F8000
1F8000
1FC000
FFF000
ENDCHAR
STARTCHAR 018F
ENCODING 399
SWIDTH 742 0
DWIDTH 33 0
BBX 29 31 2 -1
BITMAP
101FE000
19FFFC00
1F80FE00
1E003F00
1C001F80
1C001FC0
18000FE0
18000FE0
100007F0
000007F0
000007F8
000007F8
000007F8
000007F8
FFFFFFF8
FFFFFFF8
FF0007F8
FF0007F8
FF0007F8
FF0007F8
FF0007F8
7F0007F0
7F0007F0
7F0007E0
3F000FE0
1F800FC0
0F801F80
07C03F00
03F07C00
00FFF000
000F0000
ENDCHAR
STARTCHAR 0192
ENCODING 402
SWIDTH 495 0
DWIDTH 22 0
BBX 22 40 0 -10
BITMAP
0000F8
00019C
00033C
00073C
00073C
000F00
000F00
001F00
001F00
003F00
01FFE0
01FFE0
03FFE0
007E00
007E00
007E00
007E00
00FE00
00FC00
00FC00
00FC00
00FC00
01F800
01F800
01F800
01F800
01F800
03F000
03F000
03F000
03F000
03E000
03E000
03E000
03C000
73C000
F38000
F30000
7E0000
100000
ENDCHAR
STARTCHAR 01A0
ENCODING 416
SWIDTH 787 0
DWIDTH 35 0
BBX 33 34 2 -1
BITMAP
0000000200
0000000F00
0000000F80
000FE00F80
00FFFC0780
03F01F0300
07E00FFE00
0FC007E000
1F8007F000
3F8003F000
3F8003F800
7F0003FC00
7F0001FC00
FF0001FC00
FF0001FE00
FF0001FE00
FF0001FE00
FF0001FE00
FF0001FE00
FF0001FE00
FF0001FE00
FF0001FE00
FF0001FC00
7F0001FC00
7F0001FC00
7F0003F800
3F8003F800
1F8003F000
1FC007E000
0FC007C000
07E00F8000
01F83F0000
007FFC0000
0007800000
ENDCHAR
STARTCHAR 01A1
ENCODING 417
SWIDTH 562 0
DWIDTH 25 0
BBX 24 23 2 0
BITMAP
00001E
03F01F
0FFC1F
1E1E1E
3E0F0E
7C0FFC
7C0FC0
FC0FC0
FC0FC0
FC0FC0
FC0FE0
FC0FE0
FC0FE0
FC0FE0
FC0FC0
FC0FC0
FC0FC0
7C0F80
7C0F80
3E0F00
1E1E00
07FC00
00C000
ENDCHAR
STARTCHAR 01AF
ENCODING 431
SWIDTH 787 0
DWIDTH 35 0
BBX 35 36 2 0
BITMAP
00000001E0
00000003E0
00000003E0
00000001E0
00000000E0
0000000380
FFFC0FFC00
3FC001C000
1FC0018000
1FC0018000
1FC0018000
1FC0018000
1FC0018000
1FC0018000
1FC0018000
1FC0018000
1FC0018000
1FC0018000
1FC0018000
1FC0018000
1FC0018000
1FC0018000
1FC0018000
1FC0018000
1FC0018000
1FC0018000
1FC0018000
1FC0018000
1FC0018000
1FC0010000
0FE0030000
0FE0070000
07F00E0000
03FFFC0000
00FFF00000
001F000000
ENDCHAR
STARTCHAR 01B0
ENCODING 432
SWIDTH 607 0
DWIDTH 27 0
BBX 27 22 1 -1
BITMAP
00000180
FF8FF3C0
3F83F7E0
3F83F3E0
1F83F1C0
1F83F1C0
1F83FF00
1F83F000
1F83F000
1F83F000
1F83F000
1F83F000
1F83F000
1F83F000
1F83F000
1F83F000
1F83F000
1F87F000
1FDFF000
0FFBF800
07F3FC00
01800000
ENDCHAR
STARTCHAR 01CD
ENCODING 461
SWIDTH 720 0
DWIDTH 32 0
BBX 32 40 0 0
BITMAP
00200600
00380E00
001C1C00
001E3800
000FF800
000FF000
0007F000
0007E000
00000000
00000000
00008000
00018000
0001C000
0003C000
0003C000
0003E000
0007E000
0007F000
000FF000
000FF800
001BF800
001BF800
0033FC00
0031FC00
0061FE00
0060FE00
0040FF00
00C07F00
00C07F80
01807F80
01FFFF80
03FFFFC0
03001FC0
06001FE0
06000FE0
04000FF0
0C0007F0
1C0007F8
3E0007FC
FFC07FFF
ENDCHAR
STARTCHAR 01CE
ENCODING 462
SWIDTH 495 0
DWIDTH 22 0
BBX 19 31 2 0
BITMAP
300300
180600
1E1E00
0F3C00
0FFC00
07F800
07F000
03F000
000000
000000
03F800
0FFC00
383F00
783F00
7C1F80
FC1F80
FC1F80
7C1F80
383F80
00FF80
039F80
0F1F80
1E1F80
3C1F80
7C1F80
FC1F80
FC1F80
FE7F80
FFDFE0
7F9FC0
3E0F80
ENDCHAR
STARTCHAR 01CF
ENCODING 463
SWIDTH 382 0
DWIDTH 17 0
BBX 15 40 1 0
BITMAP
6006
701C
3838
3C78
1EF0
0FF0
0FE0
07E0
0000
0000
0000
FFFE
0FF0
0FE0
0FE0
0FE0
0FE0
0FE0
0FE0
0FE0
0FE0
0FE0
0FE0
0FE0
0FE0
0FE0
0FE0
0FE0
0FE0
0FE0
0FE0
0FE0
0FE0
0FE0
0FE0
0FE0
0FE0
0FE0
1FF0
FFFE
ENDCHAR
STARTCHAR 01D0
ENCODING 464
SWIDTH 270 0
DWIDTH 12 0
BBX 13 31 0 0
BITMAP
C018
E038
7070
78F0
3FE0
3FC0
1FC0
1F80
0000
0000
0000
7F80
1F80
1F80
1F80
1F80
1F80
1F80
1F80
1F80
1F80
1F80
1F80
1F80
1F80
1F80
1F80
1F80
1FC0
1FC0
7FF0
ENDCHAR
STARTCHAR 01D1
ENCODING 465
SWIDTH 787 0
DWIDTH 35 0
BBX 31 41 2 -1
BITMAP
00C00C00
00701C00
00383800
003C7000
001FF000
001FE000
000FE000
000FC000
00000000
00000000
001FF000
00FFFE00
03F01F00
07E00FC0
0FC007E0
1F8007F0
3F8003F8
3F8003F8
7F0001FC
7F0001FC
FF0001FC
FF0001FE
FF0001FE
FF0001FE
FF0001FE
FF0001FE
FF0001FE
FF0001FE
FF0001FE
FF0001FC
7F0001FC
7F0001FC
7F0003F8
3F8003F8
1F8003F0
1FC007E0
0FC007C0
07E00F80
01F83F00
007FFC00
00078000
ENDCHAR
STARTCHAR 01D2
ENCODING 466
SWIDTH 495 0
DWIDTH 22 0
BBX 19 32 2 -1
BITMAP
300300
1C0600
1E0E00
0F3C00
07FC00
07F800
03F800
03F000
000000
000000
03F000
0FFC00
1E1E00
3E0F00
7C0F80
7C0FC0
FC0FC0
FC0FC0
FC0FC0
FC0FE0
FC0FE0
FC0FE0
FC0FE0
FC0FC0
FC0FC0
FC0FC0
7C0F80
7C0F80
3E1F00
1F1E00
0FFC00
00C000
ENDCHAR
STARTCHAR 01D3
ENCODING 467
SWIDTH 720 0
DWIDTH 32 0
BBX 29 41 2 -1
BITMAP
00C00C00
00E03800
00707000
0078F000
003DE000
003FE000
001FC000
000FC000
00000000
00000000
00000000
FFFC0FF8
3FC001C0
1FC00180
1FC00180
1FC00180
1FC00180
1FC00180
1FC00180
1FC00180
1FC00180
1FC00180
1FC00180
1FC00180
1FC00180
1FC00180
1FC00180
1FC00180
1FC00180
1FC00180
1FC00180
1FC00180
1FC00180
1FC00180
1FC00380
0FE00300
0FE00700
07F00E00
03FFF800
00FFF000
001F0000
ENDCHAR
STARTCHAR 01D4
ENCODING 468
SWIDTH 562 0
DWIDTH 25 0
BBX 22 32 1 -1
BITMAP
0C00C0
070180
038380
03CF00
01FF00
01FE00
00FE00
00FC00
000000
000000
000000
FF8FF0
3F83F0
3F83F0
1F83F0
1F83F0
1F83F0
1F83F0
1F83F0
1F83F0
1F83F0
1F83F0
1F83F0
1F83F0
1F83F0
1F83F0
1F83F0
1F87F0
1FDFF0
0FFBF8
07F3FC
018000
ENDCHAR
STARTCHAR 01D5
ENCODING 469
SWIDTH 720 0
DWIDTH 32 0
BBX 29 41 2 -1
BITMAP
007FE000
007FE000
007FE000
00000000
00000000
0070E000
0070E000
0070E000
00204000
00000000
00000000
FFFC0FF8
3FC001C0
1FC00180
1FC00180
1FC00180
1FC00180
1FC00180
1FC00180
1FC00180
1FC00180
1FC00180
1FC00180
1FC00180
1FC00180
1FC00180
1FC00180
1FC00180
1FC00180
1FC00180
1FC00180
1FC00180
1FC00180
1FC00180
1FC00380
0FE00300
0FE00700
07F00E00
03FFF800
00FFF000
001F0000
ENDCHAR
STARTCHAR 01D6
ENCODING 470
SWIDTH 562 0
DWIDTH 25 0
BBX 22 35 1 -1
BITMAP
0FFFC0
0FFFC0
0FFFC0
0FFFC0
000000
000000
078780
07C7C0
0FC7C0
07C7C0
0787C0
000100
000000
000000
FF8FF0
3F83F0
3F83F0
1F83F0
1F83F0
1F83F0
1F83F0
1F83F0
1F83F0
1F83F0
1F83F0
1F83F0
1F83F0
1F83F0
1F83F0
1F83F0
1F87F0
1FDFF0
0FFBF8
07F3FC
018000
ENDCHAR
STARTCHAR 01D7
ENCODING 471
SWIDTH 720 0
DWIDTH 32 0
BBX 29 41 2 -1
BITMAP
0007C000
00078000
00070000
000E0000
00000000
0070E000
0070E000
0070E000
00204000
00000000
00000000
FFFC0FF8
3FC001C0
1FC00180
1FC00180
1FC00180
1FC00180
1FC00180
1FC00180
1FC00180
1FC00180
1FC00180
1FC00180
1FC00180
1FC00180
1FC00180
1FC00180
1FC00180
1FC00180
1FC00180
1FC00180
1FC00180
1FC00180
1FC00180
1FC00380
0FE00300
0FE00700
07F00E00
03FFF800
00FFF000
001F0000
ENDCHAR
STARTCHAR 01D8
ENCODING 472
SWIDTH 562 0
DWIDTH 25 0
BBX 22 38 1 -1
BITMAP
000FC0
001F80
001F00
001E00
003C00
003800
003000
006000
000000
078780
07C7C0
0FC7C0
07C7C0
0787C0
000100
000000
000000
FF8FF0
3F83F0
3F83F0
1F83F0
1F83F0
1F83F0
1F83F0
1F83F0
1F83F0
1F83F0
1F83F0
1F83F0
1F83F0
1F83F0
1F83F0
1F83F0
1F87F0
1FDFF0
0FFBF8
07F3FC
018000
ENDCHAR
STARTCHAR 01D9
ENCODING 473
SWIDTH 720 0
DWIDTH 32 0
BBX 29 41 2 -1
BITMAP
00606000
0039C000
001F8000
000F0000
00000000
0070E000
0070E000
0070E000
00204000
00000000
00000000
FFFC0FF8
3FC001C0
1FC00180
1FC00180
1FC00180
1FC00180
1FC00180
1FC00180
1FC00180
1FC00180
1FC00180
1FC00180
1FC00180
1FC00180
1FC00180
1FC00180
1FC00180
1FC00180
1FC00180
1FC00180
1FC00180
1FC00180
1FC00180
1FC00380
0FE00300
0FE00700
07F00E00
03FFF800
00FFF000
001F0000
ENDCHAR
STARTCHAR 01DA
ENCODING 474
SWIDTH 562 0
DWIDTH 25 0
BBX 22 39 1 -1
BITMAP
0400C0
0701C0
038380
03C700
01FF00
01FE00
00FE00
00FC00
000000
000000
078780
07C7C0
0FC7C0
07C7C0
0787C0
000100
000000
000000
FF8FF0
3F83F0
3F83F0
1F83F0
1F83F0
1F83F0
1F83F0
1F83F0
1F83F0
1F83F0
1F83F0
1F83F0
1F83F0
1F83F0
1F83F0
1F83F0
1F87F0
1FDFF0
0FFBF8
07F3FC
018000
ENDCHAR
STARTCHAR 01DB
ENCODING 475
SWIDTH 720 0
DWIDTH 32 0
BBX 29 41 2 -1
BITMAP
003E0000
001E0000
000E0000
00070000
00000000
0070E000
0070E000
0070E000
00204000
00000000
00000000
FFFC0FF8
3FC001C0
1FC00180
1FC00180
1FC00180
1FC00180
1FC00180
1FC00180
1FC00180
1FC00180
1FC00180
1FC00180
1FC00180
1FC00180
1FC00180
1FC00180
1FC00180
1FC00180
1FC00180
1FC00180
1FC00180
1FC00180
1FC00180
1FC00380
0FE00300
0FE00700
07F00E00
03FFF800
00FFF000
001F0000
ENDCHAR
STARTCHAR 01DC
ENCODING 476
SWIDTH 562 0
DWIDTH 25 0
BBX 22 38 1 -1
BITMAP
07E000
03E000
01F000
01F000
00F000
007800
003800
001800
000000
078780
07C7C0
0FC7C0
07C7C0
0787C0
000100
000000
000000
FF8FF0
3F83F0
3F83F0
1F83F0
1F83F0
1F83F0
1F83F0
1F83F0
1F83F0
1F83F0
1F83F0
1F83F0
1F83F0
1F83F0
1F83F0
1F83F0
1F87F0
1FDFF0
0FFBF8
07F3FC
018000
ENDCHAR
STARTCHAR 01FA
ENCODING 506
SWIDTH 720 0
DWIDTH 32 0
BBX 32 46 0 0
BITMAP
0000FE00
0000FC00
0001F800
0001F000
0001E000
0003C000
00038000
00030000
00000000
0003E000
00067000
000C1800
000C1800
00081800
000C1800
000E3000
0007E000
00018000
0001C000
0003C000
0003C000
0003E000
0007E000
0007F000
000FF000
000FF800
001BF800
001BF800
0033FC00
0031FC00
0061FE00
0060FE00
0040FF00
00C07F00
00C07F80
01807F80
01FFFF80
03FFFFC0
03001FC0
06001FE0
06000FE0
04000FF0
0C0007F0
1C0007F8
3E0007FC
FFC07FFF
ENDCHAR
STARTCHAR 01FB
ENCODING 507
SWIDTH 495 0
DWIDTH 22 0
BBX 19 40 2 0
BITMAP
007E00
00FC00
00F800
00F000
01E000
01C000
018000
030000
000000
01F000
03F800
061800
040C00
040C00
040C00
061800
03F000
01E000
000000
03F800
0FFC00
383F00
783F00
7C1F80
FC1F80
FC1F80
7C1F80
383F80
00FF80
039F80
0F1F80
1E1F80
3C1F80
7C1F80
FC1F80
FC1F80
FE7F80
FFDFE0
7F9FC0
3E0F80
ENDCHAR
STARTCHAR 01FC
ENCODING 508
SWIDTH 990 0
DWIDTH 44 0
BBX 42 40 0 0
BITMAP
000000FC0000
000001F80000
000001F00000
000001E00000
000003C00000
000003800000
000003000000
000006000000
000000000000
000000000000
000000000000
0003FFFFFF00
000077F07F00
000037F00F00
000067F00700
000067F00300
0000C7F00100
000187F00100
000187F04100
000307F04000
000607F04000
000607F04000
000C07F0C000
001807F1C000
001807FFC000
003007FFC000
003FFFF1C000
006007F0C000
00C007F04000
00C007F04000
018007F04000
030007F04040
030007F00040
060007F00040
060007F000C0
0C0007F001C0
1C0007F003C0
1C000FF00F80
7C000FFFFF80
FF81FFFFFF80
ENDCHAR
STARTCHAR 01FD
ENCODING 509
SWIDTH 720 0
DWIDTH 32 0
BBX 29 31 2 -1
BITMAP
0003F000
0007E000
0007C000
00078000
000F0000
000E0000
000C0000
00000000
00000000
03F03E00
0FFCFF80
3C3FE3C0
781FC1E0
7C1FC1F0
FC1F81F0
FC1F81F0
7C1F80F8
381F80F8
007FFFF8
01DF8000
079F8000
1E1FC000
3E1FC000
7C0FC000
7C0FE008
FC0FE010
FE0FF030
FFFFFFE0
FFE3FFC0
7F80FF80
0C001800
ENDCHAR
STARTCHAR 01FE
ENCODING 510
SWIDTH 787 0
DWIDTH 35 0
BBX 31 42 2 -2
BITMAP
0001FC00
0001F800
0001F000
0003E000
0003C000
00038000
00070000
00060000
00000000
00000008
001FF018
00FFFE38
03F01F30
07E00FE0
0FC007E0
1F8007F0
3F8003F0
3F8007F8
7F000FFC
7F001DFC
FF0019FC
FF0031FE
FF0061FE
FF00C1FE
FF0181FE
FF0301FE
FF0701FE
FF0601FE
FF0C01FE
FF1801FC
7F3001FC
7F6001FC
7FC003F8
3FC003F8
1F8003F0
1FC007E0
0FC007C0
0FE00F80
19F83F00
307FFC00
60078000
20000000
ENDCHAR
STARTCHAR 01FF
ENCODING 511
SWIDTH 495 0
DWIDTH 22 0
BBX 19 31 2 -1
BITMAP
007E00
007C00
00F800
00F000
00E000
01C000
018000
000000
000000
01F060
0FFCC0
1F1F80
3E0F00
3E0F80
7E0FC0
7C0FC0
FC1FC0
FC3FE0
FC6FE0
FCCFE0
FD8FE0
FD0FE0
FF0FE0
FE0FC0
7C0FC0
7C0FC0
3E0F80
7E0F00
DF1E00
87FC00
80C000
ENDCHAR
STARTCHAR 0218
ENCODING 536
SWIDTH 562 0
DWIDTH 25 0
BBX 21 41 2 -11
BITMAP
03F820
0FFE20
1E07E0
3C01E0
7800E0
780060
780060
FC0020
FE0020
FF0020
7FC000
7FF000
7FFC00
3FFF00
1FFF80
0FFFC0
03FFE0
00FFF0
007FF0
001FF8
8007F8
C003F8
C001F8
C000F8
E000F0
F000F0
F800E0
FC01E0
FF03C0
C7FF00
807800
000000
00F000
01F800
01F800
00F800
001800
001800
003000
006000
008000
ENDCHAR
STARTCHAR 0219
ENCODING 537
SWIDTH 382 0
DWIDTH 17 0
BBX 14 32 2 -11
BITMAP
0F10
3FF0
7870
F030
F018
F818
FE08
FF00
FF80
7FE0
7FF0
1FF8
0FF8
07FC
81FC
80FC
C07C
E078
E078
F8F0
FFE0
8300
0000
0F00
0F80
1F80
0F80
0180
0180
0100
0600
0800
ENDCHAR
STARTCHAR 021A
ENCODING 538
SWIDTH 675 0
DWIDTH 30 0
BBX 26 40 2 -11
BITMAP
FFFFFFC0
F87F0FC0
E07F01C0
C07F00C0
807F00C0
807F0040
807F0040
007F0040
007F0000
007F0000
007F0000
007F0000
007F0000
007F0000
007F0000
007F0000
007F0000
007F0000
007F0000
007F0000
007F0000
007F0000
007F0000
007F0000
007F0000
007F0000
007F8000
00FF8000
07FFF800
00000000
00000000
001E0000
003F0000
003F0000
001F0000
00030000
00030000
00060000
000C0000
00100000
ENDCHAR
STARTCHAR 021B
ENCODING 539
SWIDTH 337 0
DWIDTH 15 0
BBX 13 39 1 -11
BITMAP
0080
0180
0180
0380
0780
0F80
1F80
3F80
7FF8
FFF8
3F80
3F80
3F80
3F80
3F80
3F80
3F80
3F80
3F80
3F80
3F80
3F80
1F80
1F80
1F88
1F98
0FF0
07E0
0000
0000
0780
0FC0
0FC0
07C0
00C0
00C0
0180
0300
0400
ENDCHAR
STARTCHAR 0259
ENCODING 601
SWIDTH 450 0
DWIDTH 20 0
BBX 17 22 1 -1
BITMAP
03E000
0FF800
1FFE00
3BFE00
60FF00
407F00
003F80
001F80
001F80
001F80
001F80
001F80
FFFF80
FC1F80
7C1F80
7C1F00
7C1F00
3C1E00
3C1E00
1E3C00
0FF000
018000
ENDCHAR
STARTCHAR 02C6
ENCODING 710
SWIDTH 337 0
DWIDTH 15 0
BBX 13 8 1 23
BITMAP
0F80
1FC0
1FC0
3FE0
3DE0
78F0
E030
C018
ENDCHAR
STARTCHAR 02C7
ENCODING 711
SWIDTH 337 0
DWIDTH 15 0
BBX 13 8 1 23
BITMAP
C018
E038
7070
78E0
3FE0
3FC0
1FC0
1F80
ENDCHAR
STARTCHAR 02C9
ENCODING 713
SWIDTH 337 0
DWIDTH 15 0
BBX 14 3 0 24
BITMAP
FFFC
FFFC
FFFC
ENDCHAR
STARTCHAR 02D8
ENCODING 728
SWIDTH 337 0
DWIDTH 15 0
BBX 13 7 1 23
BITMAP
C018
C038
F8F0
7FF0
3FE0
1FC0
0700
ENDCHAR
STARTCHAR 02D9
ENCODING 729
SWIDTH 337 0
DWIDTH 15 0
BBX 7 7 4 23
BITMAP
10
7C
FC
FE
FC
7C
30
ENDCHAR
STARTCHAR 02DA
ENCODING 730
SWIDTH 337 0
DWIDTH 15 0
BBX 9 9 3 22
BITMAP
3E00
7F00
C180
C180
C180
C180
E300
7F00
3C00
ENDCHAR
STARTCHAR 02DB
ENCODING 731
SWIDTH 337 0
DWIDTH 15 0
BBX 11 10 2 -10
BITMAP
1C00
3000
7000
F000
F000
F800
7C00
7F00
3FE0
0F80
ENDCHAR
STARTCHAR 02DC
ENCODING 732
SWIDTH 337 0
DWIDTH 15 0
BBX 13 6 1 24
BITMAP
1C08
7F08
FFF8
FFF8
DFF0
83E0
ENDCHAR
STARTCHAR 02DD
ENCODING 733
SWIDTH 337 0
DWIDTH 15 0
BBX 13 7 3 23
BITMAP
3C78
78F0
70E0
70E0
E1C0
C180
C180
ENDCHAR
STARTCHAR 0300
ENCODING 768
SWIDTH 0 0
DWIDTH 0 0
BBX 9 8 -13 32
BITMAP
FE00
7E00
3F00
1F00
0F00
0700
0380
0180
ENDCHAR
STARTCHAR 0301
ENCODING 769
SWIDTH 0 0
DWIDTH 0 0
BBX 8 8 -8 32
BITMAP
3F
7E
7C
78
F0
E0
C0
C0
ENDCHAR
STARTCHAR 0303
ENCODING 771
SWIDTH 0 0
DWIDTH 0 0
BBX 14 6 -18 32
BITMAP
1F04
3FCC
7FFC
7FFC
C7F8
C0E0
ENDCHAR
STARTCHAR 0309
ENCODING 777
SWIDTH 0 0
DWIDTH 0 0
BBX 10 8 -11 32
BITMAP
0C00
73C0
E1C0
61C0
0380
0600
0400
0C00
ENDCHAR
STARTCHAR 0323
ENCODING 803
SWIDTH 0 0
DWIDTH 0 0
BBX 7 7 -22 -9
BITMAP
38
7C
FE
FE
FE
FC
7C
ENDCHAR
STARTCHAR 037E
ENCODING 894
SWIDTH 337 0
DWIDTH 15 0
BBX 9 29 3 -8
BITMAP
1C00
3E00
7F00
7F00
7F00
7F00
3E00
0000
0000
0000
0000
0000
0000
0000
1800
7E00
7F00
FF00
FF00
7F80
7F80
0300
0300
0300
0600
0C00
1800
3000
4000
ENDCHAR
STARTCHAR 0384
ENCODING 900
SWIDTH 337 0
DWIDTH 15 0
BBX 8 7 5 23
BITMAP
3F
3E
7C
78
70
E0
C0
ENDCHAR
STARTCHAR 0385
ENCODING 901
SWIDTH 337 0
DWIDTH 15 0
BBX 20 7 -3 23
BITMAP
007E00
307C60
7CF9F0
FCF1F0
FCE1F0
7DC1F0
7980E0
ENDCHAR
STARTCHAR 0386
ENCODING 902
SWIDTH 720 0
DWIDTH 32 0
BBX 32 30 0 0
BITMAP
03F88000
03E18000
03E1C000
07C3C000
0783C000
0703E000
0E07E000
0007F000
000FF000
000FF800
001BF800
001BF800
0033FC00
0031FC00
0061FE00
0060FE00
0040FF00
00C07F00
00C07F80
01807F80
01FFFF80
03FFFFC0
03001FC0
06001FE0
06000FE0
04000FF0
0C0007F0
1C0007F8
3E0007FC
FFC07FFF
ENDCHAR
STARTCHAR 0387
ENCODING 903
SWIDTH 337 0
DWIDTH 15 0
BBX 7 7 4 14
BITMAP
38
7C
FE
FE
FE
FE
7C
ENDCHAR
STARTCHAR 0388
ENCODING 904
SWIDTH 810 0
DWIDTH 36 0
BBX 36 30 -3 0
BITMAP
3F80000000
3E3FFFFFC0
3C07F81FC0
7803F803C0
7003F800C0
6003F800C0
C003F80040
0003F81040
0003F81040
0003F81000
0003F81000
0003F83000
0003F83000
0003F87000
0003FFF000
0003FFF000
0003F8F000
0003F87000
0003F83000
0003F81000
0003F81000
0003F81010
0003F81010
0003F80010
0003F80030
0003F80070
0003F800F0
0003F801F0
0007FFFFE0
003FFFFFE0
ENDCHAR
STARTCHAR 0389
ENCODING 905
SWIDTH 900 0
DWIDTH 40 0
BBX 43 30 -3 0
BITMAP
3F8000000000
3E3FFF8FFFC0
3C07F801FE00
7803F801FE00
7003F801FC00
6003F801FC00
C003F801FC00
0003F801FC00
0003F801FC00
0003F801FC00
0003F801FC00
0003F801FC00
0003F801FC00
0003F801FC00
0003FFFFFC00
0003FFFFFC00
0003F801FC00
0003F801FC00
0003F801FC00
0003F801FC00
0003F801FC00
0003F801FC00
0003F801FC00
0003F801FC00
0003F801FC00
0003F801FC00
0003F801FC00
0003F801FE00
0007FC01FE00
003FFF9FFFE0
ENDCHAR
STARTCHAR 038A
ENCODING 906
SWIDTH 517 0
DWIDTH 23 0
BBX 25 30 -3 0
BITMAP
3F800000
3E3FFF80
3C07F800
7803F800
7003F800
6003F800
C003F800
0003F800
0003F800
0003F800
0003F800
0003F800
0003F800
0003F800
0003F800
0003F800
0003F800
0003F800
0003F800
0003F800
0003F800
0003F800
0003F800
0003F800
0003F800
0003F800
0003F800
0003F800
0007FC00
003FFF80
ENDCHAR
STARTCHAR 038C
ENCODING 908
SWIDTH 787 0
DWIDTH 35 0
BBX 35 31 -2 -1
BITMAP
3F01FF0000
7E0FFFE000
7C3F01F000
787E00FC00
F0FC007E00
E1F8007F00
C3F8003F00
03F0003F80
07F0003FC0
07F0001FC0
0FF0001FC0
0FF0001FE0
0FF0001FE0
0FF0001FE0
0FF0001FE0
0FE0001FE0
0FF0001FE0
0FF0001FE0
0FF0001FE0
0FF0001FC0
0FF0001FC0
07F0001FC0
07F0003F80
03F8003F80
03F8003F00
01F8007E00
00FC007C00
007E00F800
001F83F000
0007FFC000
00007C0000
ENDCHAR
STARTCHAR 038E
ENCODING 910
SWIDTH 855 0
DWIDTH 38 0
BBX 41 30 -3 0
BITMAP
3F8000000000
3E3FFE00FF80
3C0FF8001C00
7807F8001C00
7003FC001800
6003FC003000
C001FE003000
0001FE006000
0000FF006000
00007F00C000
00007F818000
00003F818000
00003FC30000
00001FC20000
00001FE60000
00000FFC0000
00000FFC0000
000007F80000
000007F80000
000003F80000
000003F80000
000003F80000
000003F80000
000003F80000
000003F80000
000003F80000
000003F80000
000003F80000
000007FC0000
00007FFFC000
ENDCHAR
STARTCHAR 038F
ENCODING 911
SWIDTH 810 0
DWIDTH 36 0
BBX 37 30 -3 0
BITMAP
3F80FFC000
3E07FFF800
3C1F80FE00
783F003F00
707E001F80
60FC001FC0
C1FC000FE0
01FC000FE0
03F8000FE0
03F8000FF0
03F8000FF0
03F8000FF0
03F8000FF0
03F8000FF0
03F8000FF0
03F8000FE0
01FC000FE0
01FC000FC0
00FC000FC0
007C001F80
003E003F00
001F007C00
040380E008
040080C008
070080C038
07FFC0FFF8
07FFC0FFF8
07FFC0FFF8
07FFC0FFF8
07FFC0FFF8
ENDCHAR
STARTCHAR 0390
ENCODING 912
SWIDTH 315 0
DWIDTH 14 0
BBX 20 31 -3 -1
BITMAP
00FE00
30F8C0
F8F1E0
F9E3F0
F9C3F0
F983E0
7381E0
000000
000000
000000
0FF800
03F800
01F800
01F800
01F800
01F800
01F800
01F800
01F800
01F800
01F800
01F800
01F800
01F800
01F880
01F880
01F900
01FF00
01FE00
00FE00
003000
ENDCHAR
STARTCHAR 0391
ENCODING 913
SWIDTH 720 0
DWIDTH 32 0
BBX 32 30 0 0
BITMAP
00008000
00018000
0001C000
0003C000
0003C000
0003E000
0007E000
0007F000
000FF000
000FF800
001BF800
001BF800
0033FC00
0031FC00
0061FE00
0060FE00
0040FF00
00C07F00
00C07F80
01807F80
01FFFF80
03FFFFC0
03001FC0
06001FE0
06000FE0
04000FF0
0C0007F0
1C0007F8
3E0007FC
FFC07FFF
ENDCHAR
STARTCHAR 0392
ENCODING 914
SWIDTH 675 0
DWIDTH 30 0
BBX 27 29 1 0
BITMAP
FFFFF800
0FE3FE00
0FE0FF00
0FE07F80
0FE03F80
0FE03FC0
0FE03FC0
0FE03FC0
0FE03FC0
0FE03F80
0FE07F00
0FE0FE00
0FE3F800
0FFFE000
0FFFFC00
0FE07F00
0FE03F80
0FE01FC0
0FE01FE0
0FE01FE0
0FE01FE0
0FE01FE0
0FE01FE0
0FE01FE0
0FE01FC0
0FE03F80
0FE07F00
1FFFFE00
FFFFF000
ENDCHAR
STARTCHAR 0393
ENCODING 915
SWIDTH 630 0
DWIDTH 28 0
BBX 26 29 1 0
BITMAP
FFFFFFC0
0FE07FC0
0FE001C0
0FE000C0
0FE000C0
0FE00040
0FE00040
0FE00040
0FE00000
0FE00000
0FE00000
0FE00000
0FE00000
0FE00000
0FE00000
0FE00000
0FE00000
0FE00000
0FE00000
0FE00000
0FE00000
0FE00000
0FE00000
0FE00000
0FE00000
0FE00000
0FE00000
1FF00000
FFFE0000
ENDCHAR
STARTCHAR 0394
ENCODING 916
SWIDTH 630 0
DWIDTH 28 0
BBX 26 30 1 0
BITMAP
00080000
000C0000
000C0000
001E0000
001E0000
003F0000
003F0000
007F0000
007F8000
007F8000
00FFC000
00DFC000
019FC000
018FE000
010FE000
0307F000
0207F000
0607F800
0603F800
0C03F800
0C01FC00
0801FC00
1801FE00
1800FE00
3000FE00
30007F00
20007F00
60003F80
7FFFFF80
FFFFFFC0
ENDCHAR
STARTCHAR 0395
ENCODING 917
SWIDTH 675 0
DWIDTH 30 0
BBX 27 29 1 0
BITMAP
FFFFFF80
0FE07F80
0FE00780
0FE00380
0FE00380
0FE00180
0FE04180
0FE04080
0FE04000
0FE04000
0FE0C000
0FE0C000
0FE1C000
0FFFC000
0FFFC000
0FE3C000
0FE0C000
0FE0C000
0FE04000
0FE04000
0FE04020
0FE04040
0FE00040
0FE000C0
0FE001C0
0FE003C0
0FF007C0
1FFFFFC0
FFFFFF80
ENDCHAR
STARTCHAR 0396
ENCODING 918
SWIDTH 675 0
DWIDTH 30 0
BBX 28 29 1 0
BITMAP
1FFFFFC0
1F807F80
1C00FF00
1800FF00
3001FE00
3003FC00
2003FC00
2007F800
000FF800
000FF000
001FE000
001FE000
003FC000
007F8000
007F8000
00FF0000
01FF0000
01FE0000
03FC0010
03FC0010
07F80030
0FF00030
0FF00020
1FE00060
1FE000E0
3FC001E0
7F8007E0
7FFFFFE0
FFFFFFE0
ENDCHAR
STARTCHAR 0397
ENCODING 919
SWIDTH 787 0
DWIDTH 35 0
BBX 33 29 1 0
BITMAP
FFFE3FFF00
0FF007F800
0FE007F800
0FE003F800
0FE003F800
0FE003F800
0FE003F800
0FE003F800
0FE003F800
0FE003F800
0FE003F800
0FE003F800
0FE003F800
0FFFFFF800
0FFFFFF800
0FE003F800
0FE003F800
0FE003F800
0FE003F800
0FE003F800
0FE003F800
0FE003F800
0FE003F800
0FE003F800
0FE003F800
0FE003F800
0FE007F800
1FF007F800
FFFE7FFF80
ENDCHAR
STARTCHAR 0398
ENCODING 920
SWIDTH 787 0
DWIDTH 35 0
BBX 31 31 2 -1
BITMAP
001FF000
00FFFE00
03F01F00
07E00FC0
0FC007E0
1F8007F0
3F8003F0
3F8003F8
7F0003FC
7F0001FC
FF1011FC
FF1011FE
FF1831FE
FF1FF1FE
FF1FF1FE
FF1FF1FE
FF1FF1FE
FF1FF1FE
FF1831FE
FF1011FC
7F1011FC
7F0001FC
7F0003F8
3F8003F8
3F8003F0
1F8007E0
0FC00FC0
07E00F80
01F83F00
007FFC00
00078000
ENDCHAR
STARTCHAR 0399
ENCODING 921
SWIDTH 382 0
DWIDTH 17 0
BBX 15 29 1 0
BITMAP
FFFE
0FF0
0FE0
0FE0
0FE0
0FE0
0FE0
0FE0
0FE0
0FE0
0FE0
0FE0
0FE0
0FE0
0FE0
0FE0
0FE0
0FE0
0FE0
0FE0
0FE0
0FE0
0FE0
0FE0
0FE0
0FE0
0FE0
1FF0
FFFE
ENDCHAR
STARTCHAR 039A
ENCODING 922
SWIDTH 787 0
DWIDTH 35 0
BBX 34 29 1 0
BITMAP
FFFC03FF00
0FF000F800
0FE000F000
0FE000E000
0FE0018000
0FE0070000
0FE00E0000
0FE01C0000
0FE0300000
0FE0E00000
0FE1C00000
0FE3C00000
0FE7E00000
0FEFF00000
0FFFF00000
0FF7F80000
0FE7FC0000
0FE3FE0000
0FE1FF0000
0FE0FF0000
0FE07F8000
0FE07FC000
0FE03FE000
0FE01FF000
0FE00FF000
0FE00FF800
0FE007FC00
1FF007FF00
FFFE1FFFC0
ENDCHAR
STARTCHAR 039B
ENCODING 923
SWIDTH 720 0
DWIDTH 32 0
BBX 31 30 0 0
BITMAP
00008000
00018000
0001C000
0003C000
0003E000
0007E000
0007E000
0007F000
000FF000
000FF800
001BF800
0013FC00
0031FC00
0021FC00
0060FE00
0060FE00
00C0FF00
00C07F00
00807F80
01803F80
01003FC0
03001FC0
03001FC0
06001FE0
06000FE0
0C000FF0
0C0007F0
1C0007F8
3E0007F8
FFC07FFE
ENDCHAR
STARTCHAR 039C
ENCODING 924
SWIDTH 945 0
DWIDTH 42 0
BBX 40 29 1 0
BITMAP
FFF0000FFF
0FF8001FF0
0FF8001FF0
0FFC0017F0
0DFC0037F0
0DFC0027F0
0DFE0067F0
0CFE0067F0
0CFF00C7F0
0C7F00C7F0
0C7F8087F0
0C3F8187F0
0C3F8187F0
0C3FC307F0
0C1FC307F0
0C1FE207F0
0C0FE607F0
0C0FF407F0
0C07FC07F0
0C07FC07F0
0C07F807F0
0C03F807F0
0C03F007F0
0C01F007F0
0C01F007F0
0C00E007F0
0C00E007F0
1E00C00FF8
FFC0407FFF
ENDCHAR
STARTCHAR 039D
ENCODING 925
SWIDTH 720 0
DWIDTH 32 0
BBX 30 30 1 -1
BITMAP
FFE007FC
1FF000E0
1FF000C0
0FF800C0
0FFC0040
0FFE0040
0DFF0040
0DFF0040
0CFF8040
0C7FC040
0C3FE040
0C1FF040
0C1FF040
0C0FF840
0C07FC40
0C03FE40
0C01FF40
0C00FF40
0C00FFC0
0C007FC0
0C003FC0
0C001FC0
0C000FC0
0C000FC0
0C0007C0
0C0003C0
0C0001C0
1E0000C0
FFC000C0
00000040
ENDCHAR
STARTCHAR 039E
ENCODING 926
SWIDTH 675 0
DWIDTH 30 0
BBX 26 29 2 0
BITMAP
7FFFFF80
7FFFFF80
7FFFFF80
7FFFFF80
7FFFFF80
70000380
40000080
40000080
00000000
04000800
06000800
07FFF800
07FFF800
07FFF800
07FFF800
07FFF800
07FFF800
06000800
04000800
80000040
80000040
C0000040
C00000C0
FFFFFFC0
FFFFFFC0
FFFFFFC0
FFFFFFC0
FFFFFFC0
FFFFFFC0
ENDCHAR
STARTCHAR 039F
ENCODING 927
SWIDTH 787 0
DWIDTH 35 0
BBX 31 31 2 -1
BITMAP
001FF000
00FFFE00
03F01F00
07E00FC0
0FC007E0
1F8007F0
3F8003F8
3F8003F8
7F0001FC
7F0001FC
FF0001FC
FF0001FE
FF0001FE
FF0001FE
FF0001FE
FF0001FE
FF0001FE
FF0001FE
FF0001FE
FF0001FC
7F0001FC
7F0001FC
7F0003F8
3F8003F8
1F8003F0
1FC007E0
0FC007C0
07E00F80
01F83F00
007FFC00
00078000
ENDCHAR
STARTCHAR 03A0
ENCODING 928
SWIDTH 787 0
DWIDTH 35 0
BBX 33 29 1 0
BITMAP
FFFFFFFF00
0FE007F800
0FE007F800
0FE007F800
0FE007F800
0FE007F800
0FE007F800
0FE007F800
0FE007F800
0FE007F800
0FE007F800
0FE007F800
0FE007F800
0FE007F800
0FE007F800
0FE007F800
0FE007F800
0FE007F800
0FE007F800
0FE007F800
0FE007F800
0FE007F800
0FE007F800
0FE007F800
0FE007F800
0FE007F800
0FE007F800
1FF007F800
FFFE7FFF80
ENDCHAR
STARTCHAR 03A1
ENCODING 929
SWIDTH 607 0
DWIDTH 27 0
BBX 25 29 1 0
BITMAP
7FFFF000
0FE7FC00
0FE0FE00
0FE07F00
0FE07F00
0FE07F80
0FE03F80
0FE03F80
0FE03F80
0FE07F80
0FE07F00
0FE07F00
0FE0FE00
0FE1FC00
0FFFF000
0FFF0000
0FE00000
0FE00000
0FE00000
0FE00000
0FE00000
0FE00000
0FE00000
0FE00000
0FE00000
0FE00000
0FE00000
1FF00000
FFFE0000
ENDCHAR
STARTCHAR 03A3
ENCODING 931
SWIDTH 652 0
DWIDTH 29 0
BBX 27 29 1 0
BITMAP
FFFFFF00
7F803F00
3F800700
3FC00300
1FE00300
0FE00100
0FF00100
07F80100
03FC0000
01FC0000
01FE0000
00FE0000
007E0000
007C0000
00380000
00300000
00600000
00E00000
00C00000
01800020
03000040
07000040
0E0001C0
0FFFFFC0
1FFFFFC0
3FFFFFC0
7FFFFFC0
FFFFFFC0
FFFFFFC0
ENDCHAR
STARTCHAR 03A4
ENCODING 932
SWIDTH 675 0
DWIDTH 30 0
BBX 26 29 2 0
BITMAP
FFFFFFC0
F87F0FC0
E07F01C0
C07F00C0
807F00C0
807F0040
807F0040
007F0040
007F0000
007F0000
007F0000
007F0000
007F0000
007F0000
007F0000
007F0000
007F0000
007F0000
007F0000
007F0000
007F0000
007F0000
007F0000
007F0000
007F0000
007F0000
007F8000
00FF8000
07FFF800
ENDCHAR
STARTCHAR 03A5
ENCODING 933
SWIDTH 720 0
DWIDTH 32 0
BBX 30 29 1 0
BITMAP
FFF803FC
3FE00070
1FE00060
1FE000E0
0FF000C0
07F00180
07F80180
03F80300
03FC0300
01FE0600
01FE0C00
00FF0C00
00FF1800
007F9800
007FB000
003FE000
001FE000
001FE000
001FE000
001FE000
001FE000
001FE000
001FE000
001FE000
001FE000
001FE000
001FE000
001FE000
01FFFE00
ENDCHAR
STARTCHAR 03A6
ENCODING 934
SWIDTH 832 0
DWIDTH 37 0
BBX 33 29 2 0
BITMAP
007FFF0000
000FF00000
0007F00000
000FF80000
01FFFFC000
07E7F3F000
1F87F0FC00
3F07F07E00
3F07F07E00
7E07F07F00
FE07F03F80
FE07F03F80
FE07F03F80
FE07F03F80
FE07F03F80
FE07F03F80
FE07F03F80
FE07F03F00
7E07F03F00
7F07F07E00
3F07F07E00
1F87F0FC00
0FC7F1F800
03FFFFE000
003FFE0000
0007F00000
0007F00000
000FF80000
007FFF0000
ENDCHAR
STARTCHAR 03A7
ENCODING 935
SWIDTH 720 0
DWIDTH 32 0
BBX 32 29 0 0
BITMAP
7FFE07FC
1FF801F0
0FF801C0
07F801C0
07FC0180
03FE0300
01FE0600
00FF0C00
00FF9800
007F9800
003FF000
003FE000
001FE000
000FF000
000FF800
0007F800
0007FC00
000FFE00
0019FE00
0030FF00
0070FF80
00607F80
00C03FC0
01803FE0
03001FE0
07000FF0
0F000FF8
1F800FFC
FFF07FFF
ENDCHAR
STARTCHAR 03A8
ENCODING 936
SWIDTH 787 0
DWIDTH 35 0
BBX 33 30 1 0
BITMAP
F000000780
7C7FFF1F00
3E0FF03E00
3F07F07E00
3F07F0FE00
3F87F0FE00
3F87F0FE00
3F87F0FE00
3F87F0FE00
3F87F0FE00
3F87F0FC00
1F87F0FC00
1F87F0FC00
0F87F1F800
07C7F1F000
03F7F7E000
00FFFF0000
0007F00000
0007F00000
0007F00000
0007F00000
0007F00000
0007F00000
0007F00000
0007F00000
0007F00000
0007F00000
0007F00000
000FF80000
007FFF0000
ENDCHAR
STARTCHAR 03A9
ENCODING 937
SWIDTH 810 0
DWIDTH 36 0
BBX 32 30 2 0
BITMAP
001FF800
00FFFF00
03F01FC0
07E007E0
0FC003F0
1F8003F8
3F8001FC
3F8001FC
7F8001FC
7F0001FE
7F0001FE
7F0001FE
7F0001FE
7F0001FE
7F0001FE
7F0001FC
3F8001FC
3F8001F8
1F8001F8
0F8003F0
07C007E0
03E00F80
80701C01
80101801
E0101807
FFF81FFF
FFF81FFF
FFF81FFF
FFF81FFF
FFF81FFF
ENDCHAR
STARTCHAR 03AA
ENCODING 938
SWIDTH 382 0
DWIDTH 17 0
BBX 15 38 1 0
BITMAP
3838
7C7C
7C7E
7C7E
7C7C
3818
0000
0000
0000
FFFE
0FF0
0FE0
0FE0
0FE0
0FE0
0FE0
0FE0
0FE0
0FE0
0FE0
0FE0
0FE0
0FE0
0FE0
0FE0
0FE0
0FE0
0FE0
0FE0
0FE0
0FE0
0FE0
0FE0
0FE0
0FE0
0FE0
1FF0
FFFE
ENDCHAR
STARTCHAR 03AB
ENCODING 939
SWIDTH 720 0
DWIDTH 32 0
BBX 30 38 1 0
BITMAP
00787800
00FC7C00
00FCFC00
00FCFC00
00787800
00303000
00000000
00000000
00000000
FFF803FC
3FE00070
1FE00060
1FE000E0
0FF000C0
07F00180
07F80180
03F80300
03FC0300
01FE0600
01FE0C00
00FF0C00
00FF1800
007F9800
007FB000
003FE000
001FE000
001FE000
001FE000
001FE000
001FE000
001FE000
001FE000
001FE000
001FE000
001FE000
001FE000
001FE000
01FFFE00
ENDCHAR
STARTCHAR 03AC
ENCODING 940
SWIDTH 562 0
DWIDTH 25 0
BBX 22 31 2 -1
BITMAP
003F00
003E00
007C00
007800
007000
00E000
00C000
000000
000000
03C000
0FF3F0
1F33F0
3E1BF0
3E0BF0
7E0FF0
7C07E0
FC07E0
FC07E0
FC07E0
FC07C0
FC0FC0
FC0FC0
FC0FC0
FC0F80
FC1F84
7C1F84
7E1FC4
3E3E7C
1E3E78
0FF878
01C000
ENDCHAR
STARTCHAR 03AD
ENCODING 941
SWIDTH 427 0
DWIDTH 19 0
BBX 17 31 1 -1
BITMAP
00FE00
00F800
00F800
01F000
01E000
01C000
038000
000000
000000
03FC00
0FFF00
1F0F80
3F0F80
7E0F80
7E0700
3E0000
3E0000
1F0000
0FD800
00FC00
0F8000
3F0000
7E0000
7E0000
FE0700
FE0780
7E0780
7F0780
3F8F00
0FFE00
006000
ENDCHAR
STARTCHAR 03AE
ENCODING 942
SWIDTH 562 0
DWIDTH 25 0
BBX 23 40 0 -10
BITMAP
000FE0
000F80
000F00
001E00
001E00
001C00
003800
000000
000000
0F03E0
3F87F0
7FDFF8
7FF1FC
4FE0FC
8FE0FC
8FE0FC
0FE0FC
0FE0FC
0FE0FC
0FE0FC
0FE0FC
0FE0FC
0FE0FC
0FE0FC
0FE0FC
0FE0FC
0FE0FC
0FE0FC
0FE0FC
0FE0FC
0000FC
0000FC
0000FC
0000FC
0000FC
0000FC
0000FC
0000FC
0000FE
00007E
ENDCHAR
STARTCHAR 03AF
ENCODING 943
SWIDTH 315 0
DWIDTH 14 0
BBX 13 31 1 -1
BITMAP
03F0
07E0
07C0
0780
0F00
0E00
0C00
0000
0000
0000
FF80
3F80
1F80
1F80
1F80
1F80
1F80
1F80
1F80
1F80
1F80
1F80
1F80
1F80
1F88
1F88
1F90
1FF0
1FE0
0FE0
0300
ENDCHAR
STARTCHAR 03B0
ENCODING 944
SWIDTH 517 0
DWIDTH 23 0
BBX 22 31 0 -1
BITMAP
003F00
183E30
3E7CF8
7E78F8
7E70FC
3EE0F8
3CC070
000000
000000
0F0700
3F8380
7FC0E0
7FC0F0
4FE070
8FE078
87E078
07E078
07E038
07E038
07E038
07E038
07E038
07E078
07E078
07E070
07E070
07E0E0
03E0E0
01F1C0
00FF00
001800
ENDCHAR
STARTCHAR 03B1
ENCODING 945
SWIDTH 562 0
DWIDTH 25 0
BBX 22 22 2 -1
BITMAP
03C000
0FF3F0
1F33F0
3E1BF0
3E0BF0
7E0FF0
7C07E0
FC07E0
FC07E0
FC07E0
FC07C0
FC0FC0
FC0FC0
FC0FC0
FC0F80
FC1F84
7C1F84
7E1FC4
3E3E7C
1E3E78
0FF878
01C000
ENDCHAR
STARTCHAR 03B2
ENCODING 946
SWIDTH 517 0
DWIDTH 23 0
BBX 20 40 2 -10
BITMAP
03FC00
0F9F00
1F0F80
3E0FC0
3E07C0
7E07C0
7E07E0
7E07C0
7E07C0
7E07C0
7E0F80
7E6E00
7EFC00
7E6F00
7E0780
7E07C0
7E07E0
7E03E0
7E03E0
7E03F0
7E03F0
7E03F0
7E03F0
7E03F0
7E07E0
7E07E0
7E07C0
7F0FC0
7FFF80
7EFF00
7E1800
7E0000
7E0000
7E0000
7E0000
7E0000
7E0000
7E0000
FC0000
FC0000
ENDCHAR
STARTCHAR 03B3
ENCODING 947
SWIDTH 472 0
DWIDTH 21 0
BBX 20 30 0 -10
BITMAP
1C0000
3E03F0
7F07F0
7F07E0
FF07E0
C387C0
8187C0
818F80
818F80
00CF00
00CF00
00DE00
00DE00
005C00
007C00
007800
007800
003000
007000
007000
007000
00F000
00F000
01F000
01F000
01F000
03F000
03F000
01F000
01E000
ENDCHAR
STARTCHAR 03B4
ENCODING 948
SWIDTH 517 0
DWIDTH 23 0
BBX 19 31 2 -1
BITMAP
03F800
0FFE00
183F00
181F80
180F00
180600
1C0000
0F0000
07C000
01F000
00FC00
00FF00
07BF80
1F3F80
3E1FC0
7E0FC0
7C0FE0
FC0FE0
FC07E0
FC07E0
FC07E0
FC07E0
FC07E0
FC07E0
FC07C0
7C07C0
7C0F80
3E0F00
1F1E00
07FC00
00C000
ENDCHAR
STARTCHAR 03B5
ENCODING 949
SWIDTH 427 0
DWIDTH 19 0
BBX 17 22 1 -1
BITMAP
03FC00
0FFF00
1F0F80
3F0F80
7E0F80
7E0700
3E0000
3E0000
1F0000
0FD800
00FC00
0F8000
3F0000
7E0000
7E0000
FE0700
FE0780
7E0780
7F0780
3F8F00
0FFE00
006000
ENDCHAR
STARTCHAR 03B6
ENCODING 950
SWIDTH 405 0
DWIDTH 18 0
BBX 17 41 1 -10
BITMAP
020000
0C0700
181F00
183F00
187E00
1CFC00
0FF000
030000
060000
0C0000
080000
180000
100000
300000
200000
600000
600000
600000
400000
400000
400000
C00000
E00000
600000
700000
7FF000
7FFE00
7FFF00
3FFF00
1FFF80
0FFF80
03F780
000180
000180
000180
000180
00E300
01FF00
01FE00
00FC00
002000
ENDCHAR
STARTCHAR 03B7
ENCODING 951
SWIDTH 562 0
DWIDTH 25 0
BBX 23 31 0 -10
BITMAP
0F03E0
3F87F0
7FDFF8
7FF1FC
4FE0FC
8FE0FC
8FE0FC
0FE0FC
0FE0FC
0FE0FC
0FE0FC
0FE0FC
0FE0FC
0FE0FC
0FE0FC
0FE0FC
0FE0FC
0FE0FC
0FE0FC
0FE0FC
0FE0FC
0000FC
0000FC
0000FC
0000FC
0000FC
0000FC
0000FC
0000FC
0000FE
00007E
ENDCHAR
STARTCHAR 03B8
ENCODING 952
SWIDTH 517 0
DWIDTH 23 0
BBX 19 31 2 -1
BITMAP
01F800
07BC00
0F0F00
1E0F00
3E0F80
3E07C0
7C07C0
7C07C0
7C07E0
FC07E0
FC07E0
FC07E0
FC07E0
FC07E0
FFFFE0
FFFFE0
FC07E0
FC07E0
FC07E0
FC07E0
FC07E0
FC07E0
7C07E0
7C07C0
7E07C0
3E0780
1E0F80
1E0F00
0F1E00
03F800
004000
ENDCHAR
STARTCHAR 03B9
ENCODING 953
SWIDTH 315 0
DWIDTH 14 0
BBX 13 21 1 -1
BITMAP
FF80
3F80
1F80
1F80
1F80
1F80
1F80
1F80
1F80
1F80
1F80
1F80
1F80
1F80
1F88
1F88
1F90
1FF0
1FE0
0FE0
0300
ENDCHAR
STARTCHAR 03BA
ENCODING 954
SWIDTH 562 0
DWIDTH 25 0
BBX 24 21 1 0
BITMAP
00003C
FF00FE
3F01FE
3F03FE
3F070C
3F0600
3F0C00
3F1C00
3F3E00
3F3E00
3F7F00
3FFF80
3FBF80
3F1FC0
3F0FC0
3F0FE0
3F07F0
3F03F8
3F03F8
3F01FC
3F00FF
ENDCHAR
STARTCHAR 03BB
ENCODING 955
SWIDTH 495 0
DWIDTH 22 0
BBX 21 30 1 0
BITMAP
1E0000
3F0000
3F8000
7F8000
618000
40C000
40C000
004000
004000
006000
00E000
00E000
00E000
01F000
01F000
03F000
03F000
07F800
07F800
0FC800
0FC800
1FCC00
1F8C00
1F8408
3F0608
3F0608
7E07F8
7E03F8
FE03F0
FC01F0
ENDCHAR
STARTCHAR 03BC
ENCODING 956
SWIDTH 562 0
DWIDTH 25 0
BBX 23 30 2 -10
BITMAP
7F07E0
7F07E0
7F07E0
7F07E0
7F07E0
7F07E0
7F07E0
7F07E0
7F07E0
7F07E0
7F07E0
7F07E0
7F07E0
7F07E0
7F07E2
7F07E4
7F0FE4
7FBFFC
7FF7F8
7FC3F8
7B0040
780000
780000
780000
7C0000
FC0000
FC0000
FC0000
780000
300000
ENDCHAR
STARTCHAR 03BD
ENCODING 957
SWIDTH 450 0
DWIDTH 20 0
BBX 19 22 0 -1
BITMAP
0601C0
FF03E0
7F03E0
3F03E0
3F83E0
1F83C0
1FC1C0
0FC1C0
0FC180
0FE180
07E100
07F300
03F200
03FE00
01FC00
01FC00
01F800
00F800
00F000
007000
006000
002000
ENDCHAR
STARTCHAR 03BE
ENCODING 958
SWIDTH 450 0
DWIDTH 20 0
BBX 19 41 1 -10
BITMAP
040000
183C00
30FC00
31FC00
33F800
1FF000
040000
0C0000
080000
180000
180000
187F00
0DFF00
07FF00
0FFC00
180000
100000
300000
600000
600000
400000
C00000
E00000
E00000
F00000
7FFC00
7FFF00
7FFF80
3FFFC0
3FFFC0
0FFFE0
03FDE0
000060
000060
000060
000040
0030C0
007F80
007F80
007E00
001000
ENDCHAR
STARTCHAR 03BF
ENCODING 959
SWIDTH 495 0
DWIDTH 22 0
BBX 19 22 2 -1
BITMAP
03F000
0FFC00
1E1E00
3E0F00
7C0F80
7C0FC0
FC0FC0
FC0FC0
FC0FC0
FC0FE0
FC0FE0
FC0FE0
FC0FE0
FC0FC0
FC0FC0
FC0FC0
7C0F80
7C0F80
3E1F00
1F1E00
0FFC00
00C000
ENDCHAR
STARTCHAR 03C0
ENCODING 960
SWIDTH 540 0
DWIDTH 24 0
BBX 23 21 0 -1
BITMAP
0FFFFE
1FFFFE
3FFFFE
3FFFFE
7FFFFE
41C3C0
81C3C0
01C3C0
01C3C0
0383C0
0387C0
0787C0
0787C0
0F87C0
0F87C0
1F87C4
3F07E4
3F07FC
3F03F8
3E03F0
0800C0
ENDCHAR
STARTCHAR 03C1
ENCODING 961
SWIDTH 540 0
DWIDTH 24 0
BBX 20 31 2 -10
BITMAP
00FC00
07FF00
0F0F80
1E0FC0
3E07E0
3E07E0
7E07E0
7E07F0
7E03F0
7E03F0
7E03F0
7E03F0
7E03F0
7E03F0
7E07E0
7E07E0
7E07E0
7E07C0
7F0FC0
7F9F80
7EFE00
7E3000
7E0000
7E0000
7E0000
7E0000
7E0000
7E0000
7E0000
FC0000
FC0000
ENDCHAR
STARTCHAR 03C2
ENCODING 962
SWIDTH 427 0
DWIDTH 19 0
BBX 17 31 1 -10
BITMAP
007E00
01FF00
07FF80
0FFF80
1C0F80
180000
300000
200000
600000
400000
400000
C00000
C00000
E00000
F00000
FFF800
7FFE00
7FFF00
3FFF00
3FFF80
0FFF80
03FF80
000180
000080
000080
000180
00E380
01FF00
01FE00
00FC00
006000
ENDCHAR
STARTCHAR 03C3
ENCODING 963
SWIDTH 540 0
DWIDTH 24 0
BBX 21 21 2 -1
BITMAP
01FFF8
0FFFF8
1FFFF8
3FFFF8
7FFFF8
FF8E00
FE0F00
FC07C0
FC07C0
FC07E0
FC07E0
FC07E0
FC07E0
FC07E0
7C07E0
7C07E0
3E07C0
1F07C0
0F8F00
07FE00
006000
ENDCHAR
STARTCHAR 03C4
ENCODING 964
SWIDTH 450 0
DWIDTH 20 0
BBX 20 21 0 -1
BITMAP
0FFFF0
1FFFF0
3FFFF0
7FFFF0
7FFFF0
C0F800
80F800
00F000
00F000
00F000
00F000
00F000
01F000
01F000
01F080
01F880
01F900
01FF00
00FE00
00FE00
001000
ENDCHAR
STARTCHAR 03C5
ENCODING 965
SWIDTH 517 0
DWIDTH 23 0
BBX 21 22 0 -1
BITMAP
0F0700
3F8380
7FC0E0
7FC0F0
4FE070
8FE078
87E078
07E078
07E038
07E038
07E038
07E038
07E038
07E078
07E078
07E070
07E070
07E0E0
03E0E0
01F1C0
00FF00
001800
ENDCHAR
STARTCHAR 03C6
ENCODING 966
SWIDTH 630 0
DWIDTH 28 0
BBX 24 31 2 -10
BITMAP
0187C0
070FE0
1E1FF8
3E3CFC
3C3C7C
7C3C7E
7C3C3E
FC3C3F
FC3C3F
FC3C3F
FC3C3F
FC3C3F
FC3C3F
FC3C3F
FC3C3E
7C3C3E
7C3C7C
3E3C7C
1E3CF8
0F3DF0
03FFC0
007C00
003C00
003C00
003C00
003C00
003C00
003C00
003C00
003C00
003C00
ENDCHAR
STARTCHAR 03C7
ENCODING 967
SWIDTH 472 0
DWIDTH 21 0
BBX 21 31 0 -10
BITMAP
080000
3E03F0
7F03E0
7F07E0
6387C0
418FC0
818F80
809F80
00DF00
00FF00
007F00
007E00
007E00
00FC00
00FC00
00F800
01F800
01F000
03F000
03F800
07F800
07C800
0FCC00
0F8C08
1F8408
1F0608
3F07B8
3E03F0
7E03F0
7C01E0
FC0000
ENDCHAR
STARTCHAR 03C8
ENCODING 968
SWIDTH 697 0
DWIDTH 31 0
BBX 29 31 1 -10
BITMAP
200F0020
FC0F01F8
7E0F03E0
3E0F07E0
3F0F07E0
3F0F07E0
3F0F07E0
3F0F07E0
3F0F0FC0
3F0F0FC0
3F0F0FC0
1F8F0FC0
1F8F0FC0
1F8F0FC0
1F8F0F80
0F8F1F80
0F8F1F00
07CF1F00
03CF3E00
01EF7C00
007FF000
000F0000
000F0000
000F0000
000F0000
000F0000
000F0000
000F0000
000F0000
000F0000
000F0000
ENDCHAR
STARTCHAR 03C9
ENCODING 969
SWIDTH 720 0
DWIDTH 32 0
BBX 29 22 2 -1
BITMAP
00F07800
07801F00
0F000F80
3E0007C0
3E0F03E0
7E0F83E0
7C0F83F0
FC1F83F0
FC0F83F8
FC0F83F8
FC0F83F8
FC0F03F8
FC0F03F8
FC0703F8
FC0603F0
FE0203F0
7E0703F0
7E0F07E0
3F1987C0
1FF0FFC0
0FE07F00
01800C00
ENDCHAR
STARTCHAR 03CA
ENCODING 970
SWIDTH 315 0
DWIDTH 14 0
BBX 14 31 0 -1
BITMAP
2030
F8F8
F8F8
F8FC
F8F8
7070
0000
0000
0000
0000
7FC0
1FC0
0FC0
0FC0
0FC0
0FC0
0FC0
0FC0
0FC0
0FC0
0FC0
0FC0
0FC0
0FC0
0FC4
0FC4
0FC8
0FF8
0FF0
07F0
0180
ENDCHAR
STARTCHAR 03CB
ENCODING 971
SWIDTH 517 0
DWIDTH 23 0
BBX 21 31 0 -1
BITMAP
010100
07C7C0
07C7C0
07C7C0
07C7C0
038380
000000
000000
000000
0F0700
3F8380
7FC0E0
7FC0F0
4FE070
8FE078
87E078
07E078
07E038
07E038
07E038
07E038
07E038
07E078
07E078
07E070
07E070
07E0E0
03E0E0
01F1C0
00FF00
001800
ENDCHAR
STARTCHAR 03CC
ENCODING 972
SWIDTH 495 0
DWIDTH 22 0
BBX 19 31 2 -1
BITMAP
007E00
007C00
00F800
00F000
00E000
01C000
018000
000000
000000
03F000
0FFC00
1E1E00
3E0F00
7C0F80
7C0FC0
FC0FC0
FC0FC0
FC0FC0
FC0FE0
FC0FE0
FC0FE0
FC0FE0
FC0FC0
FC0FC0
FC0FC0
7C0F80
7C0F80
3E1F00
1F1E00
0FFC00
00C000
ENDCHAR
STARTCHAR 03CD
ENCODING 973
SWIDTH 517 0
DWIDTH 23 0
BBX 21 31 0 -1
BITMAP
001FC0
001F00
001E00
003C00
003800
003000
006000
000000
000000
0F0700
3F8380
7FC0E0
7FC0F0
4FE070
8FE078
87E078
07E078
07E038
07E038
07E038
07E038
07E038
07E078
07E078
07E070
07E070
07E0E0
03E0E0
01F1C0
00FF00
001800
ENDCHAR
STARTCHAR 03CE
ENCODING 974
SWIDTH 720 0
DWIDTH 32 0
BBX 29 31 2 -1
BITMAP
0003F000
0003E000
0007C000
00078000
00070000
000E0000
000C0000
00000000
00000000
00F07800
07801F00
0F000F80
3E0007C0
3E0F03E0
7E0F83E0
7C0F83F0
FC1F83F0
FC0F83F8
FC0F83F8
FC0F83F8
FC0F03F8
FC0F03F8
FC0703F8
FC0603F0
FE0203F0
7E0703F0
7E0F07E0
3F1987C0
1FF0FFC0
0FE07F00
01800C00
ENDCHAR
STARTCHAR 0401
ENCODING 1025
SWIDTH 675 0
DWIDTH 30 0
BBX 27 38 1 0
BITMAP
00E0F000
01F1F000
01F9F800
01F9F800
01F0F000
00606000
00000000
00000000
00000000
FFFFFF80
0FE07F80
0FE00780
0FE00380
0FE00380
0FE00180
0FE04180
0FE04080
0FE04000
0FE04000
0FE0C000
0FE0C000
0FE1C000
0FFFC000
0FFFC000
0FE3C000
0FE0C000
0FE0C000
0FE04000
0FE04000
0FE04020
0FE04040
0FE00040
0FE000C0
0FE001C0
0FE003C0
0FF007C0
1FFFFFC0
FFFFFF80
ENDCHAR
STARTCHAR 0402
ENCODING 1026
SWIDTH 810 0
DWIDTH 36 0
BBX 33 29 1 0
BITMAP
FFFFFF8000
FFFF7F8000
F07F038000
E07F018000
C07F008000
C07F008000
807F008000
007F000000
007F000000
007F1FF000
007F3FF800
007F7FFC00
007FC3FE00
007F80FF00
007F00FF00
007F007F80
007F007F80
007F007F80
007F007F80
007F007F80
007F007F80
007F007F80
007F007F80
007F007F00
007F007F00
007F007E00
00FF007C00
00FF84F800
0FFFE7F000
ENDCHAR
STARTCHAR 0403
ENCODING 1027
SWIDTH 630 0
DWIDTH 28 0
BBX 26 39 1 0
BITMAP
0007E000
0007C000
000F8000
000F0000
000E0000
001C0000
00180000
00000000
00000000
00000000
FFFFFFC0
0FE07FC0
0FE001C0
0FE000C0
0FE000C0
0FE00040
0FE00040
0FE00040
0FE00000
0FE00000
0FE00000
0FE00000
0FE00000
0FE00000
0FE00000
0FE00000
0FE00000
0FE00000
0FE00000
0FE00000
0FE00000
0FE00000
0FE00000
0FE00000
0FE00000
0FE00000
0FE00000
1FF00000
FFFE0000
ENDCHAR
STARTCHAR 0404
ENCODING 1028
SWIDTH 675 0
DWIDTH 30 0
BBX 26 31 2 -1
BITMAP
003FE040
00FFFCC0
03F80FC0
07E003C0
0FC001C0
1FC001C0
3F8000C0
3F800040
7F000040
7F000000
FF000000
FF000000
FF000000
FE000000
FFFFE000
FFFFE000
FE000000
FE000000
FF000000
FF000000
FF000000
7F000000
7F000000
3F800000
3F800000
1FC000C0
0FE00180
07F00700
01FC1E00
007FF800
000F8000
ENDCHAR
STARTCHAR 0405
ENCODING 1029
SWIDTH 562 0
DWIDTH 25 0
BBX 21 31 2 -1
BITMAP
03F820
0FFE20
1E07E0
3C01E0
7800E0
780060
780060
FC0020
FE0020
FF0020
7FC000
7FF000
7FFC00
3FFF00
1FFF80
0FFFC0
03FFE0
00FFF0
007FF0
001FF8
8007F8
C003F8
C001F8
C000F8
E000F0
F000F0
F800E0
FC01E0
FF03C0
C7FF00
807800
ENDCHAR
STARTCHAR 0406
ENCODING 1030
SWIDTH 382 0
DWIDTH 17 0
BBX 15 29 1 0
BITMAP
FFFE
0FF0
0FE0
0FE0
0FE0
0FE0
0FE0
0FE0
0FE0
0FE0
0FE0
0FE0
0FE0
0FE0
0FE0
0FE0
0FE0
0FE0
0FE0
0FE0
0FE0
0FE0
0FE0
0FE0
0FE0
0FE0
0FE0
1FF0
FFFE
ENDCHAR
STARTCHAR 0407
ENCODING 1031
SWIDTH 382 0
DWIDTH 17 0
BBX 15 38 1 0
BITMAP
3838
7C7C
7C7E
7C7E
7C7C
3818
0000
0000
0000
FFFE
0FF0
0FE0
0FE0
0FE0
0FE0
0FE0
0FE0
0FE0
0FE0
0FE0
0FE0
0FE0
0FE0
0FE0
0FE0
0FE0
0FE0
0FE0
0FE0
0FE0
0FE0
0FE0
0FE0
0FE0
0FE0
0FE0
1FF0
FFFE
ENDCHAR
STARTCHAR 0408
ENCODING 1032
SWIDTH 495 0
DWIDTH 22 0
BBX 21 30 0 -1
BITMAP
01FFF8
003FC0
001FC0
001FC0
001FC0
001FC0
001FC0
001FC0
001FC0
001FC0
001FC0
001FC0
001FC0
001FC0
001FC0
001FC0
001FC0
001FC0
001FC0
001FC0
3C1FC0
7C1FC0
7E1FC0
FE1F80
7C1F80
7C1F80
383F00
1C7E00
0FFC00
01C000
ENDCHAR
STARTCHAR 0409
ENCODING 1033
SWIDTH 1012 0
DWIDTH 45 0
BBX 43 29 0 0
BITMAP
00FFFFFE0000
000C0FF00000
000C0FE00000
000C0FE00000
000C0FE00000
000C0FE00000
000C0FE00000
000C0FE00000
000C0FE00000
000C0FE00000
000C0FE00000
000C0FE00000
000C0FE00000
000C0FFFF800
000C0FFFFE00
000C0FE0FF80
000C0FE07FC0
000C0FE03FC0
000C0FE01FE0
00080FE01FE0
00080FE01FE0
00180FE01FE0
30180FE01FE0
78100FE01FE0
FC300FE01FC0
FC600FE03FC0
FCE00FF07F80
7FC01FFFFE00
3F00FFFFF800
ENDCHAR
STARTCHAR 040A
ENCODING 1034
SWIDTH 1012 0
DWIDTH 45 0
BBX 42 29 1 0
BITMAP
FFFCFFFC0000
1FF01FE00000
0FE01FC00000
0FE01FC00000
0FE01FC00000
0FE01FC00000
0FE01FC00000
0FE01FC00000
0FE01FC00000
0FE01FC00000
0FE01FC00000
0FE01FC00000
0FE01FC00000
0FFFFFFFF000
0FFFFFFFFC00
0FE01FC1FF00
0FE01FC0FF80
0FE01FC07F80
0FE01FC03FC0
0FE01FC03FC0
0FE01FC03FC0
0FE01FC03FC0
0FE01FC03FC0
0FE01FC03FC0
0FE01FC03F80
0FE01FC07F80
0FE01FE0FF00
1FF03FFFFC00
FFFDFFFFF000
ENDCHAR
STARTCHAR 040B
ENCODING 1035
SWIDTH 810 0
DWIDTH 36 0
BBX 33 29 1 0
BITMAP
FFFFFF0000
FFFFFF0000
F07F0F0000
E07F070000
C07F030000
C07F030000
807F010000
007F000000
007F000000
007F1FE000
007F3FF000
007F7FF800
007FF7FC00
007F81FC00
007F01FC00
007F01FC00
007F01FC00
007F01FC00
007F01FC00
007F01FC00
007F01FC00
007F01FC00
007F01FC00
007F01FC00
007F01FC00
007F01FC00
00FF01FC00
00FF01FE00
0FFFC7FF80
ENDCHAR
STARTCHAR 040C
ENCODING 1036
SWIDTH 720 0
DWIDTH 32 0
BBX 31 39 1 0
BITMAP
0001F800
0001F000
0003E000
0003C000
00038000
00070000
00060000
00000000
00000000
000000E0
FFFE03F8
0FF007FC
0FE00CFC
0FE00C7C
0FE0187C
0FE01878
0FE01800
0FE03000
0FE03000
0FE03000
0FE06000
0FE06000
0FE0C000
0FFFC000
0FFFF000
0FE7F800
0FE3F800
0FE3FC00
0FE1FC00
0FE0FE00
0FE0FF00
0FE07F00
0FE07F80
0FE03F80
0FE03FC0
0FE01FC0
0FE01FE0
1FF00FF0
FFFE0FFE
ENDCHAR
STARTCHAR 040D
ENCODING 1037
SWIDTH 787 0
DWIDTH 35 0
BBX 33 39 1 0
BITMAP
003F000000
001F000000
000F800000
0007800000
0003800000
0001C00000
0000C00000
0000000000
0000000000
0000000000
FFFE3FFF00
0FF007F800
0FE007F800
0FE007F800
0FE007F800
0FE007F800
0FE00FF800
0FE00FF800
0FE01FF800
0FE03FF800
0FE037F800
0FE067F800
0FE0E7F800
0FE0C7F800
0FE187F800
0FE387F800
0FE307F800
0FE607F800
0FE607F800
0FEC07F800
0FF807F800
0FF807F800
0FF007F800
0FF007F800
0FE007F800
0FE007F800
0FE007F800
1FF007F800
FFFE7FFF80
ENDCHAR
STARTCHAR 040E
ENCODING 1038
SWIDTH 742 0
DWIDTH 33 0
BBX 31 39 1 -1
BITMAP
00780780
007807C0
007C0F80
007E1F80
003FFF00
0003F000
00000000
00000000
00000000
FFFC03FE
1FE00078
1FE00070
0FF00060
07F00060
07F800C0
03F800C0
03FC0180
01FC0180
01FE0300
00FF0300
007F0600
007F8600
003F8C00
003FCC00
001FD800
001FF800
000FF000
000FF000
0007E000
0007E000
0003C000
0001C000
03C18000
07C18000
07C30000
07E60000
07FE0000
03FC0000
00E00000
ENDCHAR
STARTCHAR 040F
ENCODING 1039
SWIDTH 787 0
DWIDTH 35 0
BBX 32 38 1 -9
BITMAP
FFFE3FFF
0FF007F8
0FE007F8
0FE007F8
0FE007F8
0FE007F8
0FE007F8
0FE007F8
0FE007F8
0FE007F8
0FE007F8
0FE007F8
0FE007F8
0FE007F8
0FE007F8
0FE007F8
0FE007F8
0FE007F8
0FE007F8
0FE007F8
0FE007F8
0FE007F8
0FE007F8
0FE007F8
0FE007F8
0FE007F8
0FE007F8
1FFFFFF8
FFFFFFFF
000FF800
0007E000
0003C000
0001C000
00018000
00018000
00008000
00008000
00008000
ENDCHAR
STARTCHAR 0410
ENCODING 1040
SWIDTH 720 0
DWIDTH 32 0
BBX 32 30 0 0
BITMAP
00008000
00018000
0001C000
0003C000
0003C000
0003E000
0007E000
0007F000
000FF000
000FF800
001BF800
001BF800
0033FC00
0031FC00
0061FE00
0060FE00
0040FF00
00C07F00
00C07F80
01807F80
01FFFF80
03FFFFC0
03001FC0
06001FE0
06000FE0
04000FF0
0C0007F0
1C0007F8
3E0007FC
FFC07FFF
ENDCHAR
STARTCHAR 0411
ENCODING 1041
SWIDTH 652 0
DWIDTH 29 0
BBX 27 29 1 0
BITMAP
FFFFFF80
1FE0FF80
0FE00780
0FE00180
0FE00180
0FE00080
0FE00080
0FE00080
0FE00000
0FE00000
0FE00000
0FE00000
0FE00000
0FFFF000
0FFFFE00
0FE0FF80
0FE07FC0
0FE03FC0
0FE03FE0
0FE01FE0
0FE01FE0
0FE01FE0
0FE01FE0
0FE01FE0
0FE03FC0
0FE03F80
0FF07F00
1FFFFE00
FFFFF800
ENDCHAR
STARTCHAR 0412
ENCODING 1042
SWIDTH 675 0
DWIDTH 30 0
BBX 27 29 1 0
BITMAP
FFFFF800
0FE3FE00
0FE0FF00
0FE07F80
0FE03F80
0FE03FC0
0FE03FC0
0FE03FC0
0FE03FC0
0FE03F80
0FE07F00
0FE0FE00
0FE3F800
0FFFE000
0FFFFC00
0FE07F00
0FE03F80
0FE01FC0
0FE01FE0
0FE01FE0
0FE01FE0
0FE01FE0
0FE01FE0
0FE01FE0
0FE01FC0
0FE03F80
0FE07F00
1FFFFE00
FFFFF000
ENDCHAR
STARTCHAR 0413
ENCODING 1043
SWIDTH 630 0
DWIDTH 28 0
BBX 26 29 1 0
BITMAP
FFFFFFC0
0FE07FC0
0FE001C0
0FE000C0
0FE000C0
0FE00040
0FE00040
0FE00040
0FE00000
0FE00000
0FE00000
0FE00000
0FE00000
0FE00000
0FE00000
0FE00000
0FE00000
0FE00000
0FE00000
0FE00000
0FE00000
0FE00000
0FE00000
0FE00000
0FE00000
0FE00000
0FE00000
1FF00000
FFFE0000
ENDCHAR
STARTCHAR 0414
ENCODING 1044
SWIDTH 697 0
DWIDTH 31 0
BBX 30 38 0 -9
BITMAP
03FFFFF8
00701FC0
00301FC0
00301FC0
00301FC0
00301FC0
00301FC0
00301FC0
00301FC0
00301FC0
00301FC0
00301FC0
00201FC0
00601FC0
00601FC0
00601FC0
00601FC0
00601FC0
00C01FC0
00C01FC0
00C01FC0
01C01FC0
01801FC0
01801FC0
03001FC0
06001FC0
0C001FC0
3FFFFFE0
FFFFFFFC
FE0001FC
F800007C
F000003C
E000001C
C000000C
C000000C
80000004
80000004
80000004
ENDCHAR
STARTCHAR 0415
ENCODING 1045
SWIDTH 675 0
DWIDTH 30 0
BBX 27 29 1 0
BITMAP
FFFFFF80
0FE07F80
0FE00780
0FE00380
0FE00380
0FE00180
0FE04180
0FE04080
0FE04000
0FE04000
0FE0C000
0FE0C000
0FE1C000
0FFFC000
0FFFC000
0FE3C000
0FE0C000
0FE0C000
0FE04000
0FE04000
0FE04020
0FE04040
0FE00040
0FE000C0
0FE001C0
0FE003C0
0FF007C0
1FFFFFC0
FFFFFF80
ENDCHAR
STARTCHAR 0416
ENCODING 1046
SWIDTH 990 0
DWIDTH 44 0
BBX 42 30 1 0
BITMAP
1E0000000E00
7F03FFF03F80
FF807F807FC0
FCC07F00CFC0
F8C03F01CFC0
F8603F0187C0
78603F018780
00603F030000
00303F030000
00303F030000
00303F030000
00183F060000
00183F060000
000E3F0C0000
0007FFF80000
001FFFFE0000
007F3F3F8000
007E3F1F8000
00FE3F1FC000
01FC3F0FE000
01FC3F0FE000
03F83F07F000
03F83F07F000
07F03F03F800
07F03F03F800
0FE03F01FC00
0FE03F01FC00
1FC07F80FE00
3FC07F80FF00
FF87FFF07FC0
ENDCHAR
STARTCHAR 0417
ENCODING 1047
SWIDTH 517 0
DWIDTH 23 0
BBX 21 31 1 -1
BITMAP
41FE00
7FFF80
783FC0
701FE0
600FE0
600FF0
600FF0
400FF0
400FF0
000FE0
000FE0
000FC0
001F80
003E00
07F800
07FF00
003FC0
001FE0
000FF0
000FF0
0007F8
0007F8
0007F8
0007F8
0007F8
000FF0
C00FF0
601FE0
387FC0
1FFF00
01F000
ENDCHAR
STARTCHAR 0418
ENCODING 1048
SWIDTH 787 0
DWIDTH 35 0
BBX 33 29 1 0
BITMAP
FFFE3FFF00
0FF007F800
0FE007F800
0FE007F800
0FE007F800
0FE007F800
0FE00FF800
0FE00FF800
0FE01FF800
0FE03FF800
0FE037F800
0FE067F800
0FE0E7F800
0FE0C7F800
0FE187F800
0FE387F800
0FE307F800
0FE607F800
0FE607F800
0FEC07F800
0FF807F800
0FF807F800
0FF007F800
0FF007F800
0FE007F800
0FE007F800
0FE007F800
1FF007F800
FFFE7FFF80
ENDCHAR
STARTCHAR 0419
ENCODING 1049
SWIDTH 787 0
DWIDTH 35 0
BBX 33 38 1 0
BITMAP
00F0070000
00F80F8000
00F81F8000
00FC1F0000
003FFE0000
0007E00000
0000000000
0000000000
0000000000
FFFE3FFF00
0FF007F800
0FE007F800
0FE007F800
0FE007F800
0FE007F800
0FE00FF800
0FE00FF800
0FE01FF800
0FE03FF800
0FE037F800
0FE067F800
0FE0E7F800
0FE0C7F800
0FE187F800
0FE387F800
0FE307F800
0FE607F800
0FE607F800
0FEC07F800
0FF807F800
0FF807F800
0FF007F800
0FF007F800
0FE007F800
0FE007F800
0FE007F800
1FF007F800
FFFE7FFF80
ENDCHAR
STARTCHAR 041A
ENCODING 1050
SWIDTH 720 0
DWIDTH 32 0
BBX 31 30 1 0
BITMAP
000000E0
FFFE03F8
0FF007FC
0FE00CFC
0FE00C7C
0FE0187C
0FE01878
0FE01800
0FE03000
0FE03000
0FE03000
0FE06000
0FE06000
0FE0C000
0FFFC000
0FFFF000
0FE7F800
0FE3F800
0FE3FC00
0FE1FC00
0FE0FE00
0FE0FF00
0FE07F00
0FE07F80
0FE03F80
0FE03FC0
0FE01FC0
0FE01FE0
1FF00FF0
FFFE0FFE
ENDCHAR
STARTCHAR 041B
ENCODING 1051
SWIDTH 742 0
DWIDTH 33 0
BBX 32 29 0 0
BITMAP
00FFFFFE
000C07F8
000C07F0
000C07F0
000C07F0
000C07F0
000C07F0
000C07F0
000C07F0
000C07F0
000C07F0
000C07F0
000C07F0
000C07F0
000C07F0
000C07F0
000C07F0
000C07F0
000C07F0
000C07F0
000807F0
000807F0
301807F0
781007F0
FC3007F0
FC6007F0
FCE007F0
7FC00FF8
3F007FFF
ENDCHAR
STARTCHAR 041C
ENCODING 1052
SWIDTH 945 0
DWIDTH 42 0
BBX 40 29 1 0
BITMAP
FFF0000FFF
0FF8001FF0
0FF8001FF0
0FFC0017F0
0DFC0037F0
0DFC0027F0
0DFE0067F0
0CFE0067F0
0CFF00C7F0
0C7F00C7F0
0C7F8087F0
0C3F8187F0
0C3F8187F0
0C3FC307F0
0C1FC307F0
0C1FE207F0
0C0FE607F0
0C0FF407F0
0C07FC07F0
0C07FC07F0
0C07F807F0
0C03F807F0
0C03F007F0
0C01F007F0
0C01F007F0
0C00E007F0
0C00E007F0
1E00C00FF8
FFC0407FFF
ENDCHAR
STARTCHAR 041D
ENCODING 1053
SWIDTH 787 0
DWIDTH 35 0
BBX 33 29 1 0
BITMAP
FFFE3FFF00
0FF007F800
0FE007F800
0FE003F800
0FE003F800
0FE003F800
0FE003F800
0FE003F800
0FE003F800
0FE003F800
0FE003F800
0FE003F800
0FE003F800
0FFFFFF800
0FFFFFF800
0FE003F800
0FE003F800
0FE003F800
0FE003F800
0FE003F800
0FE003F800
0FE003F800
0FE003F800
0FE003F800
0FE003F800
0FE003F800
0FE007F800
1FF007F800
FFFE7FFF80
ENDCHAR
STARTCHAR 041E
ENCODING 1054
SWIDTH 787 0
DWIDTH 35 0
BBX 31 31 2 -1
BITMAP
001FF000
00FFFE00
03F01F00
07E00FC0
0FC007E0
1F8007F0
3F8003F8
3F8003F8
7F0001FC
7F0001FC
FF0001FC
FF0001FE
FF0001FE
FF0001FE
FF0001FE
FF0001FE
FF0001FE
FF0001FE
FF0001FE
FF0001FC
7F0001FC
7F0001FC
7F0003F8
3F8003F8
1F8003F0
1FC007E0
0FC007C0
07E00F80
01F83F00
007FFC00
00078000
ENDCHAR
STARTCHAR 041F
ENCODING 1055
SWIDTH 787 0
DWIDTH 35 0
BBX 33 29 1 0
BITMAP
FFFFFFFF00
0FE007F800
0FE007F800
0FE007F800
0FE007F800
0FE007F800
0FE007F800
0FE007F800
0FE007F800
0FE007F800
0FE007F800
0FE007F800
0FE007F800
0FE007F800
0FE007F800
0FE007F800
0FE007F800
0FE007F800
0FE007F800
0FE007F800
0FE007F800
0FE007F800
0FE007F800
0FE007F800
0FE007F800
0FE007F800
0FE007F800
1FF007F800
FFFE7FFF80
ENDCHAR
STARTCHAR 0420
ENCODING 1056
SWIDTH 607 0
DWIDTH 27 0
BBX 25 29 1 0
BITMAP
7FFFF000
0FE7FC00
0FE0FE00
0FE07F00
0FE07F00
0FE07F80
0FE03F80
0FE03F80
0FE03F80
0FE07F80
0FE07F00
0FE07F00
0FE0FE00
0FE1FC00
0FFFF000
0FFF0000
0FE00000
0FE00000
0FE00000
0FE00000
0FE00000
0FE00000
0FE00000
0FE00000
0FE00000
0FE00000
0FE00000
1FF00000
FFFE0000
ENDCHAR
STARTCHAR 0421
ENCODING 1057
SWIDTH 720 0
DWIDTH 32 0
BBX 28 31 2 -1
BITMAP
000FF010
007FFE30
01FC07F0
03F001F0
07E000F0
0FC00070
1F800070
3F800030
3F800030
7F000010
7F000000
FF000000
FF000000
FF000000
FF000000
FF000000
FF000000
FF000000
FF000000
FF000000
FF000000
7F000000
7F800000
3F800000
3FC00020
1FC00060
0FE000C0
07F80380
01FF3F00
007FFC00
0003C000
ENDCHAR
STARTCHAR 0422
ENCODING 1058
SWIDTH 675 0
DWIDTH 30 0
BBX 26 29 2 0
BITMAP
FFFFFFC0
F87F0FC0
E07F01C0
C07F00C0
807F00C0
807F0040
807F0040
007F0040
007F0000
007F0000
007F0000
007F0000
007F0000
007F0000
007F0000
007F0000
007F0000
007F0000
007F0000
007F0000
007F0000
007F0000
007F0000
007F0000
007F0000
007F0000
007F8000
00FF8000
07FFF800
ENDCHAR
STARTCHAR 0423
ENCODING 1059
SWIDTH 742 0
DWIDTH 33 0
BBX 31 30 1 -1
BITMAP
FFFC03FE
1FE00078
1FE00070
0FF00060
07F00060
07F800C0
03F800C0
03FC0180
01FC0180
01FE0300
00FF0300
007F0600
007F8600
003F8C00
003FCC00
001FD800
001FF800
000FF000
000FF000
0007E000
0007E000
0003C000
0001C000
03C18000
07C18000
07C30000
07E60000
07FE0000
03FC0000
00E00000
ENDCHAR
STARTCHAR 0424
ENCODING 1060
SWIDTH 855 0
DWIDTH 38 0
BBX 35 29 2 0
BITMAP
003FFF0000
0007F80000
0007F80000
0003F80000
01FFFFE000
07F3FBF800
1F83F87E00
3F03F83F00
7F03F83F80
7E03F81F80
FE03F81FC0
FE03F81FC0
FE03F81FC0
FE03F81FE0
FE03F81FE0
FE03F81FC0
FE03F81FC0
FE03F81FC0
7E03F81FC0
7F03F83F80
3F03F83F00
1F83F87E00
0FE3F8FC00
03FFFFF000
0007FC0000
0003F80000
0007F80000
0007FC0000
007FFF8000
ENDCHAR
STARTCHAR 0425
ENCODING 1061
SWIDTH 720 0
DWIDTH 32 0
BBX 32 29 0 0
BITMAP
7FFE07FC
1FF801F0
0FF801C0
07F801C0
07FC0180
03FE0300
01FE0600
00FF0C00
00FF9800
007F9800
003FF000
003FE000
001FE000
000FF000
000FF800
0007F800
0007FC00
000FFE00
0019FE00
0030FF00
0070FF80
00607F80
00C03FC0
01803FE0
03001FE0
07000FF0
0F000FF8
1F800FFC
FFF07FFF
ENDCHAR
STARTCHAR 0426
ENCODING 1062
SWIDTH 787 0
DWIDTH 35 0
BBX 32 38 1 -9
BITMAP
FFFE3FFF
0FF007F8
0FE007F8
0FE007F8
0FE007F8
0FE007F8
0FE007F8
0FE007F8
0FE007F8
0FE007F8
0FE007F8
0FE007F8
0FE007F8
0FE007F8
0FE007F8
0FE007F8
0FE007F8
0FE007F8
0FE007F8
0FE007F8
0FE007F8
0FE007F8
0FE007F8
0FE007F8
0FE007F8
0FE007F8
0FE007F8
1FFFFFF8
FFFFFFFF
0000007F
0000001F
00000007
00000007
00000003
00000001
00000001
00000001
00000001
ENDCHAR
STARTCHAR 0427
ENCODING 1063
SWIDTH 742 0
DWIDTH 33 0
BBX 31 29 1 0
BITMAP
FFF87FFC
1FE01FE0
1FC01FE0
1FC00FE0
1FC00FE0
1FC00FE0
1FC00FE0
1FC00FE0
1FC00FE0
1FC00FE0
1FC00FE0
1FC00FE0
1FC00FE0
1FE00FE0
0FF07FE0
0FFFEFE0
07FF8FE0
01FC0FE0
00000FE0
00000FE0
00000FE0
00000FE0
00000FE0
00000FE0
00000FE0
00000FE0
00001FE0
00001FE0
0001FFFE
ENDCHAR
STARTCHAR 0428
ENCODING 1064
SWIDTH 1102 0
DWIDTH 49 0
BBX 45 29 2 0
BITMAP
FFF8FFF8FFF0
1FC03FC03FC0
1FC01FC01FC0
1FC01FC01FC0
1FC01FC01FC0
1FC01FC01FC0
1FC01FC01FC0
1FC01FC01FC0
1FC01FC01FC0
1FC01FC01FC0
1FC01FC01FC0
1FC01FC01FC0
1FC01FC01FC0
1FC01FC01FC0
1FC01FC01FC0
1FC01FC01FC0
1FC01FC01FC0
1FC01FC01FC0
1FC01FC01FC0
1FC01FC01FC0
1FC01FC01FC0
1FC01FC01FC0
1FC01FC01FC0
1FC01FC01FC0
1FC01FC01FC0
1FC01FC01FC0
1FC01FC01FC0
3FFFFFFFFFC0
FFFFFFFFFFF8
ENDCHAR
STARTCHAR 0429
ENCODING 1065
SWIDTH 1102 0
DWIDTH 49 0
BBX 45 38 2 -9
BITMAP
FFF8FFF8FFF0
1FC03FC03FC0
1FC01FC01FC0
1FC01FC01FC0
1FC01FC01FC0
1FC01FC01FC0
1FC01FC01FC0
1FC01FC01FC0
1FC01FC01FC0
1FC01FC01FC0
1FC01FC01FC0
1FC01FC01FC0
1FC01FC01FC0
1FC01FC01FC0
1FC01FC01FC0
1FC01FC01FC0
1FC01FC01FC0
1FC01FC01FC0
1FC01FC01FC0
1FC01FC01FC0
1FC01FC01FC0
1FC01FC01FC0
1FC01FC01FC0
1FC01FC01FC0
1FC01FC01FC0
1FC01FC01FC0
1FC01FC01FC0
3FFFFFFFFFC0
FFFFFFFFFFF8
0000000003F8
0000000000F8
000000000078
000000000038
000000000018
000000000018
000000000008
000000000008
000000000008
ENDCHAR
STARTCHAR 042A
ENCODING 1066
SWIDTH 765 0
DWIDTH 34 0
BBX 31 29 2 0
BITMAP
FFFFC000
FFFE0000
E0FE0000
C0FE0000
80FE0000
80FE0000
80FE0000
00FE0000
00FE0000
00FE0000
00FE0000
00FE0000
00FE0000
00FFFF00
00FFFFE0
00FE1FF0
00FE07F8
00FE07FC
00FE03FC
00FE03FC
00FE01FE
00FE01FE
00FE01FC
00FE03FC
00FE03FC
00FE03F8
01FE07F0
01FFBFE0
1FFFFF00
ENDCHAR
STARTCHAR 042B
ENCODING 1067
SWIDTH 990 0
DWIDTH 44 0
BBX 42 29 1 0
BITMAP
FFFE001FFF80
0FF00003FC00
0FE00003FC00
0FE00001FC00
0FE00001FC00
0FE00001FC00
0FE00001FC00
0FE00001FC00
0FE00001FC00
0FE00001FC00
0FE00001FC00
0FE00001FC00
0FE00001FC00
0FFFF001FC00
0FFFFE01FC00
0FE0FF81FC00
0FE07FC1FC00
0FE03FC1FC00
0FE03FE1FC00
0FE01FE1FC00
0FE01FE1FC00
0FE01FE1FC00
0FE01FE1FC00
0FE01FE1FC00
0FE03FC1FC00
0FE03F81FC00
0FF07F03FC00
1FFFFE03FC00
FFFFF83FFFC0
ENDCHAR
STARTCHAR 042C
ENCODING 1068
SWIDTH 652 0
DWIDTH 29 0
BBX 27 29 1 0
BITMAP
FFFE0000
0FF00000
0FE00000
0FE00000
0FE00000
0FE00000
0FE00000
0FE00000
0FE00000
0FE00000
0FE00000
0FE00000
0FE00000
0FFFF000
0FFFFE00
0FE0FF80
0FE07FC0
0FE03FC0
0FE03FE0
0FE01FE0
0FE01FE0
0FE01FE0
0FE01FE0
0FE01FE0
0FE03FC0
0FE03F80
0FF07F00
1FFFFE00
FFFFF800
ENDCHAR
STARTCHAR 042D
ENCODING 1069
SWIDTH 675 0
DWIDTH 30 0
BBX 26 31 2 -1
BITMAP
81FF0000
CFFFC000
FC03F000
F801F800
F000FC00
E0007E00
C0007F00
C0003F80
80003F80
00003FC0
00003FC0
00001FC0
00001FC0
00001FC0
01FFFFC0
01FFFFC0
00001FC0
00001FC0
00001FC0
00001FC0
00003FC0
00003F80
00003F80
00003F00
00007F00
C000FE00
6000FC00
3803F800
1E0FF000
07FFC000
007C0000
ENDCHAR
STARTCHAR 042E
ENCODING 1070
SWIDTH 1125 0
DWIDTH 50 0
BBX 47 31 1 -1
BITMAP
0000001FF800
FFFE007FFE00
0FF001F01F80
0FE003E007C0
0FE00FC007E0
0FE01FC003F0
0FE01F8003F8
0FE03F8001F8
0FE03F8001FC
0FE07F0001FC
0FE07F0001FE
0FE07F0001FE
0FE0FF0001FE
0FE0FF0000FE
0FFFFF0000FE
0FFFFF0000FE
0FE0FF0000FE
0FE0FF0000FE
0FE0FF0001FE
0FE07F0001FE
0FE07F0001FE
0FE07F8001FC
0FE03F8001FC
0FE03F8001F8
0FE01F8003F0
0FE00FC003F0
0FE007E007E0
0FE003F00FC0
1FF001F81F00
FFFE007FFC00
00000007C000
ENDCHAR
STARTCHAR 042F
ENCODING 1071
SWIDTH 720 0
DWIDTH 32 0
BBX 31 29 0 0
BITMAP
007FFFFE
01FF0FF0
03F80FE0
07F00FE0
07F00FE0
07F00FE0
0FE00FE0
0FE00FE0
0FE00FE0
0FE00FE0
07F00FE0
07F00FE0
03F80FE0
01FE0FE0
007FFFE0
003FFFE0
003FCFE0
007F8FE0
00FF0FE0
00FF0FE0
01FE0FE0
03FC0FE0
07F80FE0
07F80FE0
0FF00FE0
1FE00FE0
1FE00FE0
3FC01FF0
FF80FFFE
ENDCHAR
STARTCHAR 0430
ENCODING 1072
SWIDTH 495 0
DWIDTH 22 0
BBX 19 21 2 0
BITMAP
03F800
0FFC00
383F00
783F00
7C1F80
FC1F80
FC1F80
7C1F80
383F80
00FF80
039F80
0F1F80
1E1F80
3C1F80
7C1F80
FC1F80
FC1F80
FE7F80
FFDFE0
7F9FC0
3E0F80
ENDCHAR
STARTCHAR 0431
ENCODING 1073
SWIDTH 495 0
DWIDTH 22 0
BBX 19 31 2 -1
BITMAP
0009C0
03FFC0
07FF80
0FFF00
1FFF00
3FFC00
380000
700000
600000
41F000
C7FC00
DE1E00
DE0F00
BC0F80
FC0FC0
FC0FC0
FC0FC0
FC0FC0
FC0FE0
FC0FE0
FC0FE0
FC0FE0
FC0FC0
FC0FC0
7C0FC0
7C0F80
7C0F80
3E1F00
1E1E00
0FFC00
00C000
ENDCHAR
STARTCHAR 0432
ENCODING 1074
SWIDTH 540 0
DWIDTH 24 0
BBX 20 20 2 0
BITMAP
FFFF00
7F1F80
3F0FC0
3F07E0
3F07E0
3F07E0
3F07C0
3F0FC0
3F3F00
3FFF00
3F1FC0
3F07E0
3F03F0
3F03F0
3F03F0
3F03F0
3F03F0
3F07E0
7F9FC0
FFFE00
ENDCHAR
STARTCHAR 0433
ENCODING 1075
SWIDTH 450 0
DWIDTH 20 0
BBX 17 20 2 0
BITMAP
FFFF80
7F0180
3F0080
3F0080
3F0080
3F0000
3F0000
3F0000
3F0000
3F0000
3F0000
3F0000
3F0000
3F0000
3F0000
3F0000
3F0000
3F0000
7F0000
FFC000
ENDCHAR
STARTCHAR 0434
ENCODING 1076
SWIDTH 495 0
DWIDTH 22 0
BBX 21 25 0 -5
BITMAP
1FFFF8
0607E0
0207E0
0207E0
0207E0
0207E0
0207E0
0207E0
0207E0
0607E0
0607E0
0607E0
0407E0
0407E0
0C07E0
0807E0
1807E0
180FE0
301FE0
FFFFF8
F000F8
E00038
C00018
800008
800008
ENDCHAR
STARTCHAR 0435
ENCODING 1077
SWIDTH 450 0
DWIDTH 20 0
BBX 17 22 2 -1
BITMAP
03E000
0FF800
1E3C00
3C1E00
7C1F00
7C1F00
FC1F00
F81F00
F81F80
FFFF80
FC0000
FC0000
FC0000
FC0000
FE0000
FE0080
7F0100
7F8300
3FFE00
1FFC00
0FF800
018000
ENDCHAR
STARTCHAR 0436
ENCODING 1078
SWIDTH 720 0
DWIDTH 32 0
BBX 32 21 0 0
BITMAP
08000018
3E1FF87C
7F07E0FE
7907E09E
7987E09E
7887E19E
3087E10C
00C7E100
0047E300
0077EE00
00FFFF80
03F7EFC0
03F7E7E0
07E7E7E0
0FE7E3F0
0FC7E3F0
1FC7E1F8
1F87E1F8
1F87E0FC
3F07F0FC
FF1FF87F
ENDCHAR
STARTCHAR 0437
ENCODING 1079
SWIDTH 405 0
DWIDTH 18 0
BBX 16 22 1 -1
BITMAP
47E0
7FF8
60FC
607C
407E
407E
007C
007C
00F8
01E0
07E0
01FC
007E
007E
003F
003F
007F
807E
C0FE
7FFC
1FF8
0300
ENDCHAR
STARTCHAR 0438
ENCODING 1080
SWIDTH 585 0
DWIDTH 26 0
BBX 22 20 2 0
BITMAP
FFCFFC
7F07F0
3F03F0
3F03F0
3F07F0
3F0FF0
3F0FF0
3F1BF0
3F13F0
3F33F0
3F23F0
3F63F0
3FC3F0
3FC3F0
3F83F0
3F03F0
3F03F0
3F03F0
7F07F0
FFCFFC
ENDCHAR
STARTCHAR 0439
ENCODING 1081
SWIDTH 585 0
DWIDTH 26 0
BBX 22 30 2 0
BITMAP
000080
1E01C0
1F03C0
1F03C0
0F07C0
07FF00
003000
000000
000000
000000
FFCFFC
7F07F0
3F03F0
3F03F0
3F07F0
3F0FF0
3F0FF0
3F1BF0
3F13F0
3F33F0
3F23F0
3F63F0
3FC3F0
3FC3F0
3F83F0
3F03F0
3F03F0
3F03F0
7F07F0
FFCFFC
ENDCHAR
STARTCHAR 043A
ENCODING 1082
SWIDTH 585 0
DWIDTH 26 0
BBX 23 21 2 0
BITMAP
000020
FFC1FC
7F01FE
3F033E
3F023E
3F063C
3F0418
3F0C00
3F0800
3F3800
3FFC00
3F7F00
3F3F80
3F1F80
3F1FC0
3F0FE0
3F0FE0
3F07F0
3F03F8
7F03F8
FFC1FE
ENDCHAR
STARTCHAR 043B
ENCODING 1083
SWIDTH 562 0
DWIDTH 25 0
BBX 23 20 0 0
BITMAP
07FFFE
0181FC
0081F8
0081F8
0081F8
0081F8
0081F8
0081F8
0081F8
0081F8
0081F8
0081F8
0081F8
0081F8
7881F8
7881F8
F981F8
F981F8
7F01FC
3E07FE
ENDCHAR
STARTCHAR 043C
ENCODING 1084
SWIDTH 675 0
DWIDTH 30 0
BBX 27 20 2 0
BITMAP
FF003FE0
7F803F80
3F807F80
3FC07F00
2FC0FF00
2FC0BF00
27E0BF00
27E1BF00
27F13F00
23F33F00
23F23F00
21FA3F00
21FC3F00
21FC3F00
20FC3F00
20F83F00
20783F00
20703F80
70303F80
FC20FFE0
ENDCHAR
STARTCHAR 043D
ENCODING 1085
SWIDTH 585 0
DWIDTH 26 0
BBX 22 20 2 0
BITMAP
FFCFFC
7F07F0
3F03F0
3F03F0
3F03F0
3F03F0
3F03F0
3F03F0
3F03F0
3FFFF0
3F03F0
3F03F0
3F03F0
3F03F0
3F03F0
3F03F0
3F03F0
3F03F0
7F07F0
FFCFFC
ENDCHAR
STARTCHAR 043E
ENCODING 1086
SWIDTH 495 0
DWIDTH 22 0
BBX 19 22 2 -1
BITMAP
03F000
0FFC00
1E1E00
3E0F00
7C0F80
7C0FC0
FC0FC0
FC0FC0
FC0FC0
FC0FE0
FC0FE0
FC0FE0
FC0FE0
FC0FC0
FC0FC0
FC0FC0
7C0F80
7C0F80
3E1F00
1F1E00
0FFC00
00C000
ENDCHAR
STARTCHAR 043F
ENCODING 1087
SWIDTH 585 0
DWIDTH 26 0
BBX 22 20 2 0
BITMAP
FFFFFC
3F03F0
3F03F0
3F03F0
3F03F0
3F03F0
3F03F0
3F03F0
3F03F0
3F03F0
3F03F0
3F03F0
3F03F0
3F03F0
3F03F0
3F03F0
3F03F0
3F03F0
7F07F0
FFCFFC
ENDCHAR
STARTCHAR 0440
ENCODING 1088
SWIDTH 562 0
DWIDTH 25 0
BBX 22 31 1 -10
BITMAP
000F00
FF3FC0
3F7FE0
3FC3F0
3F83F0
3F81F8
3F01F8
3F01F8
3F01FC
3F01FC
3F01FC
3F01FC
3F01FC
3F01FC
3F01F8
3F01F8
3F01F8
3F81F0
3FC3F0
3F7FE0
3F3FC0
3F0400
3F0000
3F0000
3F0000
3F0000
3F0000
3F0000
3F8000
7FC000
FFE000
ENDCHAR
STARTCHAR 0441
ENCODING 1089
SWIDTH 450 0
DWIDTH 20 0
BBX 17 22 2 -1
BITMAP
01F000
0FFC00
1E3E00
3C3F00
3C3F00
7C3F00
7C1F00
FC0E00
FC0000
FC0000
FC0000
FC0000
FC0000
FE0000
FE0000
FF0000
7F0180
7F8300
3FFE00
1FFC00
0FF800
018000
ENDCHAR
STARTCHAR 0442
ENCODING 1090
SWIDTH 495 0
DWIDTH 22 0
BBX 20 20 1 0
BITMAP
FFFFF0
C1F870
81F830
81F810
81F810
01F800
01F800
01F800
01F800
01F800
01F800
01F800
01F800
01F800
01F800
01F800
01F800
01F800
03F800
07FE00
ENDCHAR
STARTCHAR 0443
ENCODING 1091
SWIDTH 495 0
DWIDTH 22 0
BBX 22 30 0 -10
BITMAP
FFE1FC
3F8070
1F8060
1FC060
0FC060
0FE040
07E0C0
07E080
07F080
03F180
03F900
01FB00
01FE00
00FE00
00FE00
00FC00
007C00
007C00
003800
003800
001000
001000
003000
182000
3C6000
7C4000
7CC000
3F8000
3F0000
040000
ENDCHAR
STARTCHAR 0444
ENCODING 1092
SWIDTH 697 0
DWIDTH 31 0
BBX 27 39 2 -10
BITMAP
007F0000
003F0000
003F0000
003F0000
003F0000
003F0000
003F0000
003F0000
07BF3C00
1FFF7F00
3FFFFF00
3E3F9F80
7E3F0FC0
7C3F0FC0
FC3F07C0
FC3F07E0
FC3F07E0
FC3F07E0
FC3F07E0
FC3F07E0
FC3F07E0
FC3F07E0
FC3F07E0
FC3F07C0
7C3F0FC0
7E3F0FC0
3E3F9F80
3FFFFF00
1FFF7E00
023F1800
003F0000
003F0000
003F0000
003F0000
003F0000
003F8000
003F8000
007F8000
00FFE000
ENDCHAR
STARTCHAR 0445
ENCODING 1093
SWIDTH 495 0
DWIDTH 22 0
BBX 21 20 1 0
BITMAP
FFEFF0
3F8380
1FC300
1FC200
0FE400
07EC00
07F800
03F800
03F800
01FC00
01FC00
00FE00
01FE00
017F00
037F00
063F80
041F80
0C1FC0
1C1FE0
FF7FF8
ENDCHAR
STARTCHAR 0446
ENCODING 1094
SWIDTH 585 0
DWIDTH 26 0
BBX 22 25 2 -5
BITMAP
FFCFFC
3F07F0
3F03F0
3F03F0
3F03F0
3F03F0
3F03F0
3F03F0
3F03F0
3F03F0
3F03F0
3F03F0
3F03F0
3F03F0
3F03F0
3F03F0
3F03F0
3F03F0
7F87F0
FFFFFC
00003C
00000C
00000C
000004
000004
ENDCHAR
STARTCHAR 0447
ENCODING 1095
SWIDTH 562 0
DWIDTH 25 0
BBX 22 20 1 0
BITMAP
FFCFFC
3F83F8
3F03F0
3F03F0
3F03F0
3F03F0
3F03F0
3F03F0
3F83F0
1F87F0
1FFFF0
07E3F0
0003F0
0003F0
0003F0
0003F0
0003F0
0003F0
0003F8
000FFC
ENDCHAR
STARTCHAR 0448
ENCODING 1096
SWIDTH 855 0
DWIDTH 38 0
BBX 34 20 2 0
BITMAP
FFCFFCFFC0
7F07F07F00
3F03F03F00
3F03F03F00
3F03F03F00
3F03F03F00
3F03F03F00
3F03F03F00
3F03F03F00
3F03F03F00
3F03F03F00
3F03F03F00
3F03F03F00
3F03F03F00
3F03F03F00
3F03F03F00
3F03F03F00
3F03F03F00
7F8FF8FF00
FFFFFFFFC0
ENDCHAR
STARTCHAR 0449
ENCODING 1097
SWIDTH 855 0
DWIDTH 38 0
BBX 34 25 2 -5
BITMAP
FFCFFCFFC0
7F07F07F00
3F03F03F00
3F03F03F00
3F03F03F00
3F03F03F00
3F03F03F00
3F03F03F00
3F03F03F00
3F03F03F00
3F03F03F00
3F03F03F00
3F03F03F00
3F03F03F00
3F03F03F00
3F03F03F00
3F03F03F00
3F03F03F00
7F8FF8FF00
FFFFFFFFC0
00000003C0
00000001C0
00000000C0
0000000040
0000000040
ENDCHAR
STARTCHAR 044A
ENCODING 1098
SWIDTH 585 0
DWIDTH 26 0
BBX 24 20 1 0
BITMAP
FFF800
E7F000
87E000
87E000
87E000
07E000
07E000
07E000
07E000
07FFE0
07E3F8
07E0FC
07E07E
07E07E
07E07F
07E07E
07E07E
07E0FC
07F3F8
1FFFC0
ENDCHAR
STARTCHAR 044B
ENCODING 1099
SWIDTH 787 0
DWIDTH 35 0
BBX 31 20 2 0
BITMAP
FFC007FE
7F0003F8
3F0001F8
3F0001F8
3F0001F8
3F0001F8
3F0001F8
3F0001F8
3F0001F8
3FFE01F8
3F1FC1F8
3F07E1F8
3F07F1F8
3F03F1F8
3F03F1F8
3F03F1F8
3F07F1F8
3F07E1F8
7FBFC3F8
FFFE07FE
ENDCHAR
STARTCHAR 044C
ENCODING 1100
SWIDTH 540 0
DWIDTH 24 0
BBX 20 20 2 0
BITMAP
FFC000
7F0000
3F0000
3F0000
3F0000
3F0000
3F0000
3F0000
3F0000
3FFE00
3F1FC0
3F07E0
3F07F0
3F03F0
3F03F0
3F03F0
3F07F0
3F0FE0
7FBFC0
FFFE00
ENDCHAR
STARTCHAR 044D
ENCODING 1101
SWIDTH 427 0
DWIDTH 19 0
BBX 17 22 1 -1
BITMAP
47C000
FFF000
F0F800
E07C00
C03E00
C03F00
803F00
003F00
003F00
003F80
03FF80
003F80
003F80
003F00
003F00
003F00
003E00
803E00
C07C00
70F800
1FF000
030000
ENDCHAR
STARTCHAR 044E
ENCODING 1102
SWIDTH 765 0
DWIDTH 34 0
BBX 30 22 2 -1
BITMAP
00003F00
FFC0FFC0
7F01E1E0
3F03C1F0
3F07C0F8
3F07C0F8
3F0FC0FC
3F0FC0FC
3F0FC0FC
3F1FC0FC
3FFFC0FC
3F1FC0FC
3F1FC0FC
3F0FC0FC
3F0FC0FC
3F0FC0FC
3F07C0F8
3F07C0F8
3F03E1F0
7F01E1E0
FFC0FF80
00001C00
ENDCHAR
STARTCHAR 044F
ENCODING 1103
SWIDTH 540 0
DWIDTH 24 0
BBX 21 20 1 0
BITMAP
0FFFF8
3F87F0
3F07E0
7E07E0
7E07E0
7E07E0
7F07E0
7F07E0
3F87E0
0FF7E0
07FFE0
07E7E0
07E7E0
0FC7E0
0FC7E0
1F87E0
1F87E0
1F87E0
3F0FF0
FF1FF8
ENDCHAR
STARTCHAR 0451
ENCODING 1105
SWIDTH 450 0
DWIDTH 20 0
BBX 17 31 2 -1
BITMAP
080800
3E3E00
3E3E00
3E3E00
3E3E00
1C1C00
000000
000000
000000
03E000
0FF800
1E3C00
3C1E00
7C1F00
7C1F00
FC1F00
F81F00
F81F80
FFFF80
FC0000
FC0000
FC0000
FC0000
FE0000
FE0080
7F0100
7F8300
3FFE00
1FFC00
0FF800
018000
ENDCHAR
STARTCHAR 0452
ENCODING 1106
SWIDTH 540 0
DWIDTH 24 0
BBX 20 38 2 -10
BITMAP
FF0000
3F0000
3F0000
FFFF00
FFFF00
3F0000
3F0000
3F0000
3F1E00
3F7F80
3FFFC0
3F87C0
3F07E0
3F07E0
3F07E0
3F07E0
3F07E0
3F07F0
3F07F0
3F07F0
3F07F0
3F07F0
3F07F0
3F07F0
3F07E0
3F07E0
3F07E0
7F07E0
FFC7E0
0007C0
0007C0
0007C0
000780
000F80
000F00
000E00
001C00
007000
ENDCHAR
STARTCHAR 0453
ENCODING 1107
SWIDTH 450 0
DWIDTH 20 0
BBX 17 30 2 0
BITMAP
00FC00
01F800
01F000
01E000
03C000
038000
030000
000000
000000
000000
FFFF80
7F0180
3F0080
3F0080
3F0080
3F0000
3F0000
3F0000
3F0000
3F0000
3F0000
3F0000
3F0000
3F0000
3F0000
3F0000
3F0000
3F0000
7F0000
FFC000
ENDCHAR
STARTCHAR 0454
ENCODING 1108
SWIDTH 427 0
DWIDTH 19 0
BBX 17 22 2 -1
BITMAP
03E100
0FFF00
1F0F00
3E0700
7C0300
7C0100
FC0100
FC0000
FC0000
FC0000
FFE000
FC0000
FC0000
FC0000
FC0000
FC0000
7C0000
7E0080
3E0300
1F8E00
0FF800
00C000
ENDCHAR
STARTCHAR 0455
ENCODING 1109
SWIDTH 382 0
DWIDTH 17 0
BBX 14 22 2 -1
BITMAP
0F10
3FF0
7870
F030
F018
F818
FE08
FF00
FF80
7FE0
7FF0
1FF8
0FF8
07FC
81FC
80FC
C07C
E078
E078
F8F0
FFE0
8300
ENDCHAR
STARTCHAR 0456
ENCODING 1110
SWIDTH 270 0
DWIDTH 12 0
BBX 11 30 1 0
BITMAP
1E00
1F00
3F80
3F80
3F80
1F00
0400
0000
0000
0000
FF00
3F00
3F00
3F00
3F00
3F00
3F00
3F00
3F00
3F00
3F00
3F00
3F00
3F00
3F00
3F00
3F00
3F80
3F80
FFE0
ENDCHAR
STARTCHAR 0457
ENCODING 1111
SWIDTH 270 0
DWIDTH 12 0
BBX 14 30 -1 0
BITMAP
3030
787C
FCFC
FCFC
7C7C
7878
0000
0000
0000
0000
3FC0
0FC0
0FC0
0FC0
0FC0
0FC0
0FC0
0FC0
0FC0
0FC0
0FC0
0FC0
0FC0
0FC0
0FC0
0FC0
0FC0
0FE0
0FE0
3FF8
ENDCHAR
STARTCHAR 0458
ENCODING 1112
SWIDTH 337 0
DWIDTH 15 0
BBX 12 40 -1 -10
BITMAP
01E0
03F0
07F0
07F0
03F0
03E0
0080
0000
0000
0000
1FF0
07F0
03F0
03F0
03F0
03F0
03F0
03F0
03F0
03F0
03F0
03F0
03F0
03F0
03F0
03F0
03F0
03F0
03F0
03F0
03F0
03F0
03F0
03F0
F3F0
F3E0
F3E0
F3C0
7F80
0C00
ENDCHAR
STARTCHAR 0459
ENCODING 1113
SWIDTH 787 0
DWIDTH 35 0
BBX 33 20 0 0
BITMAP
07FFFE0000
0181F80000
0081F80000
0081F80000
0081F80000
0081F80000
0081F80000
0081F80000
0081F80000
0081FFF800
0081F8FE00
0081F83F00
0081F81F80
0081F81F80
7881F81F80
7881F81F80
F981F83F80
F981F83F00
7F03FCFE00
3E07FFF000
ENDCHAR
STARTCHAR 045A
ENCODING 1114
SWIDTH 787 0
DWIDTH 35 0
BBX 32 20 2 0
BITMAP
FFCFFC00
7F07F000
3F03F000
3F03F000
3F03F000
3F03F000
3F03F000
3F03F000
3F03F000
3FFFFFE0
3F03F1FC
3F03F07E
3F03F07F
3F03F03F
3F03F03F
3F03F03F
3F03F07F
3F03F0FE
7F07FBFC
FFCFFFE0
ENDCHAR
STARTCHAR 045B
ENCODING 1115
SWIDTH 562 0
DWIDTH 25 0
BBX 22 29 2 0
BITMAP
FF0000
3F0000
3F0000
FFFF00
FFFF00
3F0000
3F0000
3F0000
3F0F00
3F3FC0
3F7FC0
3FC7E0
3F87E0
3F07E0
3F07E0
3F07E0
3F07E0
3F07E0
3F07E0
3F07E0
3F07E0
3F07E0
3F07E0
3F07E0
3F07E0
3F07E0
3F07E0
7F07F0
FFDFFC
ENDCHAR
STARTCHAR 045C
ENCODING 1116
SWIDTH 585 0
DWIDTH 26 0
BBX 23 30 2 0
BITMAP
001F80
003F00
003E00
003C00
007800
007000
006000
000000
000000
000020
FFC1FC
7F01FE
3F033E
3F023E
3F063C
3F0418
3F0C00
3F0800
3F3800
3FFC00
3F7F00
3F3F80
3F1F80
3F1FC0
3F0FE0
3F0FE0
3F07F0
3F03F8
7F03F8
FFC1FE
ENDCHAR
STARTCHAR 045D
ENCODING 1117
SWIDTH 585 0
DWIDTH 26 0
BBX 22 30 2 0
BITMAP
0FC000
07E000
03E000
01E000
00F000
007000
003000
000000
000000
000000
FFCFFC
7F07F0
3F03F0
3F03F0
3F07F0
3F0FF0
3F0FF0
3F1BF0
3F13F0
3F33F0
3F23F0
3F63F0
3FC3F0
3FC3F0
3F83F0
3F03F0
3F03F0
3F03F0
7F07F0
FFCFFC
ENDCHAR
STARTCHAR 045E
ENCODING 1118
SWIDTH 495 0
DWIDTH 22 0
BBX 22 40 0 -10
BITMAP
000040
0F00E0
0F01E0
0F81E0
0783C0
03FF80
001800
000000
000000
000000
FFE1FC
3F8070
1F8060
1FC060
0FC060
0FE040
07E0C0
07E080
07F080
03F180
03F900
01FB00
01FE00
00FE00
00FE00
00FC00
007C00
007C00
003800
003800
001000
001000
003000
182000
3C6000
7C4000
7CC000
3F8000
3F0000
040000
ENDCHAR
STARTCHAR 045F
ENCODING 1119
SWIDTH 585 0
DWIDTH 26 0
BBX 22 25 2 -5
BITMAP
FFCFFC
3F07F0
3F03F0
3F03F0
3F03F0
3F03F0
3F03F0
3F03F0
3F03F0
3F03F0
3F03F0
3F03F0
3F03F0
3F03F0
3F03F0
3F03F0
3F03F0
3F03F0
7FC7F0
FFFFFC
00FC00
007000
003000
002000
002000
ENDCHAR
STARTCHAR 0490
ENCODING 1168
SWIDTH 517 0
DWIDTH 23 0
BBX 21 36 1 0
BITMAP
000008
000008
000008
000008
000018
000038
0003F8
FFFFF8
0FFFF8
0FE000
0FE000
0FE000
0FE000
0FE000
0FE000
0FE000
0FE000
0FE000
0FE000
0FE000
0FE000
0FE000
0FE000
0FE000
0FE000
0FE000
0FE000
0FE000
0FE000
0FE000
0FE000
0FE000
0FE000
0FE000
1FF000
FFFE00
ENDCHAR
STARTCHAR 0491
ENCODING 1169
SWIDTH 382 0
DWIDTH 17 0
BBX 15 24 2 0
BITMAP
0002
0006
0006
001E
FFFE
3F00
3F00
3F00
3F00
3F00
3F00
3F00
3F00
3F00
3F00
3F00
3F00
3F00
3F00
3F00
3F00
3F00
7F00
FFC0
ENDCHAR
STARTCHAR 0492
ENCODING 1170
SWIDTH 630 0
DWIDTH 28 0
BBX 26 29 1 0
BITMAP
FFFFFFC0
0FE07FC0
0FE001C0
0FE000C0
0FE000C0
0FE00040
0FE00040
0FE00040
0FE00000
0FE00000
0FE00000
0FE00000
0FE00000
FFFFC000
0FE00000
0FE00000
0FE00000
0FE00000
0FE00000
0FE00000
0FE00000
0FE00000
0FE00000
0FE00000
0FE00000
0FE00000
0FE00000
1FF00000
FFFE0000
ENDCHAR
STARTCHAR 0493
ENCODING 1171
SWIDTH 450 0
DWIDTH 20 0
BBX 18 20 1 0
BITMAP
7FFFC0
3F80C0
1F8040
1F8040
1F8040
1F8000
1F8000
1F8000
FFF800
FFF800
1F8000
1F8000
1F8000
1F8000
1F8000
1F8000
1F8000
1F8000
3F8000
7FE000
ENDCHAR
STARTCHAR 0496
ENCODING 1174
SWIDTH 990 0
DWIDTH 44 0
BBX 42 39 1 -9
BITMAP
1E0000000E00
7F03FFF03F80
FF807F807FC0
FCC07F00CFC0
F8C03F01CFC0
F8603F0187C0
78603F018780
00603F030000
00303F030000
00303F030000
00303F030000
00183F060000
00183F060000
000E3F0C0000
0007FFF80000
001FFFFE0000
007F3F3F8000
007E3F1F8000
00FE3F1FC000
01FC3F0FC000
01FC3F0FE000
03F83F07F000
03F83F07F000
07F03F03F800
07F03F03F800
0FE03F01FC00
0FE03F01FC00
1FC07F00FE00
3FC07F80FF00
FF87FFF07FC0
000000000FC0
0000000003C0
0000000001C0
0000000000C0
0000000000C0
000000000040
000000000040
000000000040
000000000040
ENDCHAR
STARTCHAR 0497
ENCODING 1175
SWIDTH 720 0
DWIDTH 32 0
BBX 32 26 0 -5
BITMAP
08000018
3E1FF87E
7F07E07E
7907E09E
7987E09E
7887E19E
3087E10C
00C7E100
0047E300
0077EE00
00FFFF80
03F7EFC0
03F7E7E0
07E7E7E0
0FE7E3F0
0FC7E3F0
1FC7E1F8
1F87E1F8
1F87E0FC
3F07F0FC
FF1FF87F
0000000F
00000007
00000003
00000001
00000001
ENDCHAR
STARTCHAR 049A
ENCODING 1178
SWIDTH 720 0
DWIDTH 32 0
BBX 31 39 1 -9
BITMAP
000000E0
FFFE03F8
0FF007FC
0FE00CFC
0FE00C7C
0FE0187C
0FE01878
0FE01800
0FE03000
0FE03000
0FE03000
0FE06000
0FE06000
0FE0C000
0FFFC000
0FFFF000
0FE7F800
0FE3F800
0FE3FC00
0FE1FC00
0FE0FE00
0FE0FF00
0FE07F00
0FE07F80
0FE03F80
0FE03FC0
0FE01FC0
0FE01FE0
1FF00FF0
FFFE0FFE
000000FE
0000003E
0000001E
0000000E
0000000E
00000006
00000006
00000004
00000002
ENDCHAR
STARTCHAR 049B
ENCODING 1179
SWIDTH 585 0
DWIDTH 26 0
BBX 23 26 2 -5
BITMAP
000020
FFC1FC
7F01FC
3F033E
3F023E
3F063C
3F0418
3F0C00
3F0800
3F3800
3FFC00
3F7F00
3F3F80
3F1F80
3F1FC0
3F0FE0
3F0FE0
3F07F0
3F03F8
7F83F8
FFC1FE
00003E
00000E
000006
000002
000002
ENDCHAR
STARTCHAR 049C
ENCODING 1180
SWIDTH 720 0
DWIDTH 32 0
BBX 31 30 1 0
BITMAP
000000E0
FFFE03F8
0FF007FC
0FE00CFC
0FE00C7C
0FE3187C
0FE31878
0FE31800
0FE33000
0FE33000
0FE33000
0FE36000
0FE36000
0FE3C000
0FFFC000
0FFFF000
0FE7F800
0FE3F800
0FE3FC00
0FE3FC00
0FE3FE00
0FE3FF00
0FE37F00
0FE37F80
0FE33F80
0FE33FC0
0FE01FC0
0FE01FE0
1FF00FF0
FFFE0FFE
ENDCHAR
STARTCHAR 049D
ENCODING 1181
SWIDTH 585 0
DWIDTH 26 0
BBX 23 21 2 0
BITMAP
000020
FFC1FC
7F01FC
3F033E
3F223E
3F263C
3F2418
3F2C00
3F2800
3F3800
3FFC00
3F7F00
3F3F80
3F3F80
3F3FC0
3F2FE0
3F2FE0
3F07F0
3F03F8
7F83F8
FFC1FE
ENDCHAR
STARTCHAR 04A2
ENCODING 1186
SWIDTH 787 0
DWIDTH 35 0
BBX 33 38 1 -9
BITMAP
FFFE3FFF00
0FF007F800
0FE007F800
0FE003F800
0FE003F800
0FE003F800
0FE003F800
0FE003F800
0FE003F800
0FE003F800
0FE003F800
0FE003F800
0FE003F800
0FFFFFF800
0FFFFFF800
0FE003F800
0FE003F800
0FE003F800
0FE003F800
0FE003F800
0FE003F800
0FE003F800
0FE003F800
0FE003F800
0FE003F800
0FE003F800
0FE007F800
1FF007FC00
FFFE7FFF80
0000003F80
0000000F80
0000000780
0000000380
0000000180
0000000180
0000000180
0000000080
0000000080
ENDCHAR
STARTCHAR 04A3
ENCODING 1187
SWIDTH 585 0
DWIDTH 26 0
BBX 22 25 2 -5
BITMAP
FFCFFC
7F07F0
3F03F0
3F03F0
3F03F0
3F03F0
3F03F0
3F03F0
3F03F0
3FFFF0
3F03F0
3F03F0
3F03F0
3F03F0
3F03F0
3F03F0
3F03F0
3F03F0
7F07F0
FFCFFC
00003C
00000C
00000C
000004
000004
ENDCHAR
STARTCHAR 04AE
ENCODING 1198
SWIDTH 720 0
DWIDTH 32 0
BBX 30 29 1 0
BITMAP
FFF803FC
3FE00070
1FE00060
1FE000E0
0FF000C0
07F00180
07F80180
03F80300
03FC0300
01FE0600
01FE0C00
00FF0C00
00FF1800
007F9800
007FB000
003FE000
001FE000
001FE000
001FE000
001FE000
001FE000
001FE000
001FE000
001FE000
001FE000
001FE000
001FE000
001FE000
01FFFE00
ENDCHAR
STARTCHAR 04AF
ENCODING 1199
SWIDTH 495 0
DWIDTH 22 0
BBX 22 30 0 -10
BITMAP
FFE1FC
3F8070
1F8060
1FC060
1FC060
0FC040
0FE0C0
0FE0C0
07E080
07F180
03F180
03F100
03F900
01FB00
01FA00
01FE00
00FE00
00FC00
00FC00
00FC00
00FC00
00FC00
00FC00
00FC00
00FC00
00FC00
00FC00
00FC00
01FF00
03FF80
ENDCHAR
STARTCHAR 04B0
ENCODING 1200
SWIDTH 720 0
DWIDTH 32 0
BBX 30 29 1 0
BITMAP
FFF803FC
3FE00070
1FE00060
1FE000E0
0FF000C0
07F00180
07F80180
03F80300
03FC0300
01FE0600
01FE0C00
00FF0C00
00FF1800
007F9800
007FB000
003FE000
001FE000
001FE000
07FFFF80
07FFFF80
001FE000
001FE000
001FE000
001FE000
001FE000
001FE000
001FE000
001FE000
01FFFE00
ENDCHAR
STARTCHAR 04B1
ENCODING 1201
SWIDTH 495 0
DWIDTH 22 0
BBX 22 30 0 -10
BITMAP
FFE1FC
3F8070
1F8060
1FC060
1FC060
0FC040
0FE0C0
0FE0C0
07E080
07F180
03F180
03F100
03F900
01FB00
01FA00
01FE00
00FE00
00FC00
FFFFFC
FFFFFC
00FC00
00FC00
00FC00
00FC00
00FC00
00FC00
00FC00
00FC00
01FF00
03FF80
ENDCHAR
STARTCHAR 04B2
ENCODING 1202
SWIDTH 720 0
DWIDTH 32 0
BBX 32 38 0 -9
BITMAP
7FFE07FC
1FF801F0
0FF801C0
07F801C0
07FC0180
03FE0300
01FE0600
00FF0C00
00FF9800
007F9800
003FF000
003FE000
001FE000
000FF000
000FF800
0007F800
0007FC00
000FFE00
0019FE00
0030FF00
0070FF80
00607F80
00C03FC0
01803FE0
03001FE0
07000FF0
0F000FF8
1F000FFC
FFF07FFF
0000007F
0000001F
0000000F
00000007
00000003
00000003
00000003
00000001
00000001
ENDCHAR
STARTCHAR 04B3
ENCODING 1203
SWIDTH 495 0
DWIDTH 22 0
BBX 21 25 1 -5
BITMAP
FFEFF0
3F8380
1FC300
0FC200
0FE400
07EC00
07F800
03F800
03F800
01FC00
01FC00
00FE00
01FE00
017F00
037F00
063F80
041F80
0C1FC0
1C1FE0
FF7FF8
0000F8
000038
000018
000018
000008
ENDCHAR
STARTCHAR 04B8
ENCODING 1208
SWIDTH 742 0
DWIDTH 33 0
BBX 31 29 1 0
BITMAP
FFF87FFC
1FE01FE0
1FC01FE0
1FC00FE0
1FC00FE0
1FC30FE0
1FC30FE0
1FC30FE0
1FC30FE0
1FC30FE0
1FC30FE0
1FC30FE0
1FC30FE0
1FE30FE0
0FF37FE0
0FFFEFE0
07FF8FE0
01FF0FE0
00030FE0
00030FE0
00030FE0
00030FE0
00030FE0
00000FE0
00000FE0
00000FE0
00001FE0
00001FE0
0001FFFE
ENDCHAR
STARTCHAR 04B9
ENCODING 1209
SWIDTH 562 0
DWIDTH 25 0
BBX 22 20 1 0
BITMAP
FFCFFC
3F83F8
3F03F0
3F03F0
3F33F0
3F33F0
3F33F0
3F33F0
3FB3F0
1FB7F0
1FFFF0
07F3F0
0033F0
0033F0
0033F0
0003F0
0003F0
0003F0
0003F8
000FFC
ENDCHAR
STARTCHAR 04BA
ENCODING 1210
SWIDTH 742 0
DWIDTH 33 0
BBX 31 29 1 0
BITMAP
FFFE0000
0FF00000
0FE00000
0FE00000
0FE00000
0FE00000
0FE00000
0FE00000
0FE00000
0FE00000
0FE00800
0FE1FF80
0FEFFFC0
0FFFFFE0
0FF00FE0
0FE00FE0
0FE00FE0
0FE00FE0
0FE00FE0
0FE00FE0
0FE00FE0
0FE00FE0
0FE00FE0
0FE00FE0
0FE00FE0
0FE00FE0
0FE00FF0
1FF01FF0
FFFC7FFE
ENDCHAR
STARTCHAR 04BB
ENCODING 1211
SWIDTH 562 0
DWIDTH 25 0
BBX 21 29 2 0
BITMAP
FF0000
7F0000
3F0000
3F0000
3F0000
3F0000
3F0000
3F0000
3F0F00
3F3F80
3F7FC0
3FCFE0
3F87E0
3F07E0
3F07E0
3F07E0
3F07E0
3F07E0
3F07E0
3F07E0
3F07E0
3F07E0
3F07E0
3F07E0
3F07E0
3F07E0
3F07E0
7F07F0
FFDFF8
ENDCHAR
STARTCHAR 04D8
ENCODING 1240
SWIDTH 742 0
DWIDTH 33 0
BBX 29 31 2 -1
BITMAP
101FE000
19FFFC00
1F80FE00
1E003F00
1C001F80
1C001FC0
18000FE0
18000FE0
100007F0
000007F0
000007F8
000007F8
000007F8
000007F8
FFFFFFF8
FFFFFFF8
FF0007F8
FF0007F8
FF0007F8
FF0007F8
FF0007F8
7F0007F0
7F0007F0
7F0007E0
3F000FE0
1F800FC0
0F801F80
07C03F00
03F07C00
00FFF000
000F0000
ENDCHAR
STARTCHAR 04D9
ENCODING 1241
SWIDTH 450 0
DWIDTH 20 0
BBX 17 22 1 -1
BITMAP
03E000
0FF800
1FFE00
3BFE00
60FF00
407F00
003F80
001F80
001F80
001F80
001F80
001F80
FFFF80
FC1F80
7C1F80
7C1F00
7C1F00
3C1E00
3C1E00
1E3C00
0FF000
018000
ENDCHAR
STARTCHAR 04E8
ENCODING 1256
SWIDTH 787 0
DWIDTH 35 0
BBX 31 31 2 -1
BITMAP
000FE000
00FFFE00
03F01F00
07E00FC0
0FC007E0
1F8007F0
3F8003F8
3F8003F8
7F0003FC
7F0001FC
FF0001FC
FF0001FE
FF0001FE
FF0001FE
FFFFFFFE
FFFFFFFE
FF0001FE
FF0001FE
FF0001FE
FF0001FC
7F0001FC
7F0001FC
7F0003F8
3F8003F8
1F8003F0
1FC007E0
0FC007C0
07E00F80
01F83F00
007FFC00
00078000
ENDCHAR
STARTCHAR 04E9
ENCODING 1257
SWIDTH 495 0
DWIDTH 22 0
BBX 19 22 2 -1
BITMAP
03F000
0FFC00
1E1E00
3E0F00
7C0F80
7C0FC0
FC0FC0
FC0FC0
FC0FC0
FC0FE0
FFFFE0
FC0FE0
FC0FE0
FC0FC0
FC0FC0
FC0FC0
7C0F80
7C0F80
3E0F00
1E1E00
0FFC00
00C000
ENDCHAR
STARTCHAR 05B0
ENCODING 1456
SWIDTH 337 0
DWIDTH 15 0
BBX 3 9 6 -10
BITMAP
C0
E0
E0
C0
00
E0
E0
E0
40
ENDCHAR
STARTCHAR 05B1
ENCODING 1457
SWIDTH 337 0
DWIDTH 15 0
BBX 13 9 1 -10
BITMAP
E738
E738
E738
4210
0000
1838
3C38
3C38
0010
ENDCHAR
STARTCHAR 05B2
ENCODING 1458
SWIDTH 337 0
DWIDTH 15 0
BBX 13 8 1 -10
BITMAP
FE30
FE78
FE78
0030
0000
0030
0078
0078
ENDCHAR
STARTCHAR 05B3
ENCODING 1459
SWIDTH 337 0
DWIDTH 15 0
BBX 14 9 0 -10
BITMAP
FF8C
FF9C
FF9C
0C08
0C00
1C1C
1C1C
0C1C
0008
ENDCHAR
STARTCHAR 05B4
ENCODING 1460
SWIDTH 337 0
DWIDTH 15 0
BBX 3 4 6 -7
BITMAP
C0
E0
E0
C0
ENDCHAR
STARTCHAR 05B5
ENCODING 1461
SWIDTH 337 0
DWIDTH 15 0
BBX 9 4 3 -7
BITMAP
6300
F780
F780
6300
ENDCHAR
STARTCHAR 05B6
ENCODING 1462
SWIDTH 337 0
DWIDTH 15 0
BBX 9 9 3 -10
BITMAP
6300
F780
F780
6300
0000
1C00
1C00
1C00
0800
ENDCHAR
STARTCHAR 05B7
ENCODING 1463
SWIDTH 337 0
DWIDTH 15 0
BBX 9 2 3 -6
BITMAP
FF80
FF80
ENDCHAR
STARTCHAR 05B8
ENCODING 1464
SWIDTH 337 0
DWIDTH 15 0
BBX 9 8 3 -10
BITMAP
FF80
FF80
FF80
0800
1C00
1C00
1C00
0800
ENDCHAR
STARTCHAR 05B9
ENCODING 1465
SWIDTH 337 0
DWIDTH 15 0
BBX 3 4 6 26
BITMAP
40
E0
E0
E0
ENDCHAR
STARTCHAR 05BA
ENCODING 1466
SWIDTH 337 0
DWIDTH 15 0
BBX 3 4 6 26
BITMAP
40
E0
E0
E0
ENDCHAR
STARTCHAR 05BB
ENCODING 1467
SWIDTH 337 0
DWIDTH 15 0
BBX 13 9 1 -10
BITMAP
E000
E000
E000
4700
0700
0738
0038
0038
0010
ENDCHAR
STARTCHAR 05BC
ENCODING 1468
SWIDTH 337 0
DWIDTH 15 0
BBX 3 3 6 10
BITMAP
E0
E0
E0
ENDCHAR
STARTCHAR 05BD
ENCODING 1469
SWIDTH 337 0
DWIDTH 15 0
BBX 3 8 6 -10
BITMAP
E0
E0
E0
E0
E0
E0
E0
E0
ENDCHAR
STARTCHAR 05BE
ENCODING 1470
SWIDTH 360 0
DWIDTH 16 0
BBX 12 8 2 15
BITMAP
FFF0
FFF0
FFF0
FFF0
FFF0
FFF0
FFF0
FFF0
ENDCHAR
STARTCHAR 05BF
ENCODING 1471
SWIDTH 337 0
DWIDTH 15 0
BBX 9 3 3 26
BITMAP
FF80
FF80
FF80
ENDCHAR
STARTCHAR 05C0
ENCODING 1472
SWIDTH 337 0
DWIDTH 15 0
BBX 5 27 5 -2
BITMAP
F8
F8
F8
F8
F8
F8
F8
F8
F8
F8
F8
F8
F8
F8
F8
F8
F8
F8
F8
F8
F8
F8
F8
F8
F8
F8
F8
ENDCHAR
STARTCHAR 05C1
ENCODING 1473
SWIDTH 337 0
DWIDTH 15 0
BBX 3 4 15 26
BITMAP
40
E0
E0
60
ENDCHAR
STARTCHAR 05C2
ENCODING 1474
SWIDTH 337 0
DWIDTH 15 0
BBX 3 4 -3 26
BITMAP
40
E0
E0
E0
ENDCHAR
STARTCHAR 05C3
ENCODING 1475
SWIDTH 337 0
DWIDTH 15 0
BBX 7 24 4 -1
BITMAP
7C
FE
FE
FE
FE
7C
38
00
00
00
00
00
00
00
00
00
30
7C
FE
FE
FE
FE
7C
10
ENDCHAR
STARTCHAR 05D0
ENCODING 1488
SWIDTH 517 0
DWIDTH 23 0
BBX 21 25 1 0
BITMAP
100C00
380FE0
780FF0
7C0FF8
7E0FF8
7F0FF8
7F87F8
3FE3F8
1FF1C0
0FF980
0FFD80
1FFF80
39FF80
38FF80
787FC0
783FE0
7C1FF0
7E0FF0
7F07F8
7F83F8
3F81F8
3F80F8
7F8070
FF8030
000020
ENDCHAR
STARTCHAR 05D1
ENCODING 1489
SWIDTH 450 0
DWIDTH 20 0
BBX 19 24 1 0
BITMAP
200000
7FF800
7FFE00
7FFE00
7FFF00
7FFF00
7FFF00
3FFF00
07FF00
000700
000300
000300
000300
000300
000300
000300
7FFFE0
7FFFE0
7FFFC0
7FFFC0
7FFFC0
FFFFC0
FFFFC0
FFFF80
ENDCHAR
STARTCHAR 05D2
ENCODING 1490
SWIDTH 360 0
DWIDTH 16 0
BBX 15 25 1 0
BITMAP
1000
1800
3FC0
3FE0
3FF0
3FF0
3FF0
3FF0
1FE0
03E0
00E0
0060
0060
0060
0070
00F0
00F8
7FFC
7FBC
7F3E
7F1E
FF1E
FE1C
FE0C
FE0C
ENDCHAR
STARTCHAR 05D3
ENCODING 1491
SWIDTH 472 0
DWIDTH 21 0
BBX 18 24 1 0
BITMAP
600000
7FFF80
7FFFC0
FFFFC0
FFFFC0
FFFFC0
7FFFC0
3FFFC0
0FFF80
000E00
001C00
001800
003800
003800
003800
003800
003C00
003C00
003C00
003C00
003C00
003800
003800
007000
ENDCHAR
STARTCHAR 05D4
ENCODING 1492
SWIDTH 517 0
DWIDTH 23 0
BBX 19 24 2 0
BITMAP
400000
FFFFE0
FFFFE0
FFFFE0
FFFFE0
FFFFE0
FFFFE0
7FFFE0
0FFFC0
000180
000180
000380
000380
1C0380
780380
780380
F803C0
F803C0
F803C0
F803C0
F803C0
F80380
F00380
E00700
ENDCHAR
STARTCHAR 05D5
ENCODING 1493
SWIDTH 292 0
DWIDTH 13 0
BBX 10 24 1 1
BITMAP
6000
7E00
FF80
FFC0
FFC0
FFC0
7FC0
3FC0
0FC0
01C0
01C0
01C0
01C0
01C0
01C0
01C0
01C0
01C0
01C0
01C0
01C0
01C0
01C0
0180
ENDCHAR
STARTCHAR 05D6
ENCODING 1494
SWIDTH 315 0
DWIDTH 14 0
BBX 12 24 1 1
BITMAP
6000
7F80
FFE0
FFE0
FFF0
FFF0
7FF0
3FF0
0FE0
0600
0600
0E00
0E00
0E00
0E00
0F00
0F00
0F00
0F00
0F00
0F00
0700
0F00
0E00
ENDCHAR
STARTCHAR 05D7
ENCODING 1495
SWIDTH 495 0
DWIDTH 22 0
BBX 20 24 1 0
BITMAP
600000
7FFFE0
7FFFF0
7FFFF0
FFFFF0
7FFFF0
7FFFF0
7FFFF0
0FFFE0
0C00C0
1C0180
1C0180
380180
380380
3C03C0
3C03C0
7C03C0
7C03C0
7C03C0
7C03C0
7C03C0
7803C0
780380
600300
ENDCHAR
STARTCHAR 05D8
ENCODING 1496
SWIDTH 540 0
DWIDTH 24 0
BBX 21 25 1 0
BITMAP
400000
600000
7E03C0
FF07E0
FF87F0
FF8FF0
FF8FF0
7F8FF0
3F9FF8
1F1C78
1C1838
181838
181038
180038
180038
180030
1C0030
1FFFF0
1FFFF0
1FFFF0
1FFFF0
1FFFE0
1FFFE0
0FFFE0
0FFFE0
ENDCHAR
STARTCHAR 05D9
ENCODING 1497
SWIDTH 315 0
DWIDTH 14 0
BBX 11 17 1 8
BITMAP
4000
6000
7F80
FFC0
FFE0
FFE0
FFE0
7FE0
3FE0
07E0
00E0
0060
0060
0060
00C0
0180
0100
ENDCHAR
STARTCHAR 05DA
ENCODING 1498
SWIDTH 450 0
DWIDTH 20 0
BBX 18 31 1 -8
BITMAP
600000
7FFF80
FFFFC0
FFFFC0
FFFFC0
FFFFC0
7FFFC0
7FFF80
0FFF00
000700
000700
000700
000700
000700
000700
000700
000700
000700
000700
000700
000700
000700
000700
000700
000780
000780
000780
000700
000700
000700
000600
ENDCHAR
STARTCHAR 05DB
ENCODING 1499
SWIDTH 450 0
DWIDTH 20 0
BBX 17 24 1 0
BITMAP
200000
7FF000
7FFC00
7FFE00
7FFE00
7FFF00
7FFF00
3FFF80
07FF80
000380
000180
000180
000180
000180
000180
000380
7FFF80
7FFF80
7FFF00
7FFF00
7FFE00
FFFE00
FFFC00
FFF000
ENDCHAR
STARTCHAR 05DC
ENCODING 1500
SWIDTH 427 0
DWIDTH 19 0
BBX 19 33 -1 0
BITMAP
600000
780000
FE0000
FE0000
7E0000
3E0000
0C0000
0C0000
1C0000
1C0000
1FFF80
1FFFC0
3FFFC0
3FFFC0
3FFFE0
1FFFE0
1FFFE0
07FFE0
0001E0
0000E0
0000C0
0000C0
0001C0
000380
000700
000E00
001C00
003800
007000
007000
007000
007000
007000
ENDCHAR
STARTCHAR 05DD
ENCODING 1501
SWIDTH 517 0
DWIDTH 23 0
BBX 18 24 2 0
BITMAP
400000
FFFE00
FFFF80
FFFF80
FFFFC0
FFFFC0
FFFFC0
7FFFC0
1FFFC0
1C01C0
3800C0
7000C0
6000C0
E000C0
E000C0
E000C0
FFFFC0
FFFFC0
FFFFC0
FFFFC0
FFFFC0
FFFFC0
FFFFC0
FFFFC0
ENDCHAR
STARTCHAR 05DE
ENCODING 1502
SWIDTH 540 0
DWIDTH 24 0
BBX 21 24 1 1
BITMAP
600000
7E0600
FF0F80
FF0FC0
FF0FE0
FF1FE0
7F3FF0
3F7FF0
07FFF0
03C0F8
070078
060038
0E0038
1C0018
180018
380018
387FF8
307FF8
307FF0
707FF0
70FFF0
70FFF0
70FFF0
70FFE0
ENDCHAR
STARTCHAR 05DF
ENCODING 1503
SWIDTH 315 0
DWIDTH 14 0
BBX 12 31 1 -7
BITMAP
6000
7F80
FFC0
FFE0
FFF0
FFF0
7FF0
3FF0
03E0
00E0
00C0
00C0
00C0
00C0
01C0
01C0
01C0
01E0
01E0
01E0
01E0
01E0
01E0
00F0
00F0
00F0
00E0
00E0
00E0
00C0
00C0
ENDCHAR
STARTCHAR 05E0
ENCODING 1504
SWIDTH 315 0
DWIDTH 14 0
BBX 11 25 1 0
BITMAP
2000
3000
7F80
7FC0
7FE0
7FE0
7FE0
3FE0
3FE0
07C0
00C0
00C0
00C0
00C0
00C0
00C0
00E0
7FE0
7FE0
7FE0
7FE0
FFE0
FFE0
FFE0
FFE0
ENDCHAR
STARTCHAR 05E1
ENCODING 1505
SWIDTH 472 0
DWIDTH 21 0
BBX 17 25 2 -1
BITMAP
400000
FFF800
FFFE00
FFFF00
FFFF00
FFFF80
FFFF80
FFFF80
3FFF80
300380
600180
600180
E00180
E00180
E00180
F00380
F80F80
FFFF80
7FFF80
7FFF00
7FFF00
3FFE00
1FFE00
0FF800
01C000
ENDCHAR
STARTCHAR 05E2
ENCODING 1506
SWIDTH 517 0
DWIDTH 23 0
BBX 20 26 1 -1
BITMAP
400000
600C00
7E0F80
FF8FE0
FF9FF0
FF9FF0
7FCFF0
7FCFF0
3F87F0
0C00E0
0C00E0
0E00C0
0F80C0
0FC1C0
0FC1C0
07C380
01C380
00DF80
1FFF80
7FFF80
7FFF80
7FFF80
7FFF00
FFFE00
FFFC00
FF0000
ENDCHAR
STARTCHAR 05E3
ENCODING 1507
SWIDTH 495 0
DWIDTH 22 0
BBX 19 31 1 -8
BITMAP
600000
7FFE00
FFFF80
FFFF80
FFFFC0
FFFFC0
7FFFC0
7FFFC0
1FFFC0
1801C0
1801C0
3801C0
3800C0
3C00C0
3F80C0
3F80C0
3F80E0
3F80E0
3F00E0
0000E0
0000E0
0000E0
0000E0
0000E0
0000E0
0000E0
0000E0
0000E0
0000E0
0000C0
0000C0
ENDCHAR
STARTCHAR 05E4
ENCODING 1508
SWIDTH 450 0
DWIDTH 20 0
BBX 17 24 1 0
BITMAP
300000
7FF800
7FFC00
7FFE00
7FFF00
7FFF00
7FFF80
3FFF80
1FFF80
300380
300180
3F0180
3F0180
3F0180
200180
000180
3FFF80
7FFF80
7FFF80
7FFF00
7FFF00
FFFE00
FFFC00
FFF000
ENDCHAR
STARTCHAR 05E5
ENCODING 1509
SWIDTH 562 0
DWIDTH 25 0
BBX 23 31 1 -7
BITMAP
600600
7F07F0
FFC7FC
FFE7FC
FFE7FE
FFE7FE
7FC7FE
3FC3FE
03C0F8
0181C0
018300
018E00
019C00
03B800
03F000
03F000
03E000
03C000
03C000
03C000
03C000
03C000
03C000
03C000
03C000
03C000
03C000
03C000
03C000
038000
030000
ENDCHAR
STARTCHAR 05E6
ENCODING 1510
SWIDTH 517 0
DWIDTH 23 0
BBX 21 25 1 0
BITMAP
400800
600C00
7E1FE0
FF9FF0
FF9FF0
FF9FF8
FF9FF8
7F8FF8
3F87F0
0181C0
00C380
00E300
00F600
00FE00
007E00
003F00
000F80
3FFFC0
3FFFE0
3FFFF0
3FFFE0
7FFFE0
7FFFE0
7FFFE0
7FFFE0
ENDCHAR
STARTCHAR 05E7
ENCODING 1511
SWIDTH 472 0
DWIDTH 21 0
BBX 19 31 1 -8
BITMAP
600000
7FFF80
7FFFC0
7FFFC0
FFFFE0
7FFFE0
7FFFE0
3FFFE0
0FFFE0
0000E0
0000E0
0000C0
1000C0
3001C0
300380
300F00
301C00
303800
307000
30F000
30E000
30E000
30E000
30E000
300000
300000
300000
300000
300000
300000
300000
ENDCHAR
STARTCHAR 05E8
ENCODING 1512
SWIDTH 472 0
DWIDTH 21 0
BBX 17 24 1 0
BITMAP
600000
7FFC00
FFFF00
FFFF80
FFFF80
FFFF80
7FFF80
7FFF80
0FFF80
000380
000180
000180
000180
000180
000180
000180
000180
000180
000180
000180
000180
000180
000180
000180
ENDCHAR
STARTCHAR 05E9
ENCODING 1513
SWIDTH 697 0
DWIDTH 31 0
BBX 28 25 1 0
BITMAP
40100200
60180700
FE3F87C0
FF3FCFE0
FFBFCFF0
FFBFEFF0
FFBFEFF0
7F9FE7F0
3F9FE7F0
1E0781F0
180601E0
180600C0
180E01C0
180C0180
181C0300
1C180700
1C380600
1FFFFE00
1FFFFE00
1FFFFE00
1FFFFC00
1FFFFC00
1FFFFC00
0FFFFC00
0FFFFC00
ENDCHAR
STARTCHAR 05EA
ENCODING 1514
SWIDTH 517 0
DWIDTH 23 0
BBX 20 24 1 0
BITMAP
100000
3FFF00
3FFFC0
3FFFE0
3FFFE0
3FFFE0
3FFFF0
1FFFF0
03FFF0
0300F0
030070
070070
060070
0E0070
0E0070
0F0070
7F0070
7F0070
7F0070
FF0070
FF0070
FF0070
FF0070
FF0060
ENDCHAR
STARTCHAR 05F0
ENCODING 1520
SWIDTH 607 0
DWIDTH 27 0
BBX 23 25 1 0
BITMAP
000100
600300
7E03F8
FF83FC
FFC7FE
FFC3FE
FFC3FE
7FC3FE
3FC1FE
0FC03E
01C00E
01C00E
01C006
01C006
01C006
01C006
01C006
01C006
01C006
01C006
01C006
01C006
01C006
01C006
018004
ENDCHAR
STARTCHAR 05F1
ENCODING 1521
SWIDTH 607 0
DWIDTH 27 0
BBX 24 25 1 0
BITMAP
400100
600180
7F83F8
FFC3FE
FFE3FE
FFE3FF
FFE3FF
7FE1FF
3FE0FF
07E03F
00E007
006007
006007
006007
00C007
018007
010007
000007
000007
000007
000007
000007
000007
000007
000006
ENDCHAR
STARTCHAR 05F2
ENCODING 1522
SWIDTH 630 0
DWIDTH 28 0
BBX 25 17 1 8
BITMAP
40010000
60010000
7F83FC00
FFC3FF00
FFE3FF80
FFE3FF80
FFE3FF80
7FE1FF80
3FE1FF80
07E03F80
00E00380
00600180
00600180
00600300
00C00300
01800600
01000400
ENDCHAR
STARTCHAR 05F3
ENCODING 1523
SWIDTH 247 0
DWIDTH 11 0
BBX 6 14 3 10
BITMAP
18
7C
7C
FC
FC
F8
F8
F8
F0
E0
E0
C0
C0
80
ENDCHAR
STARTCHAR 05F4
ENCODING 1524
SWIDTH 450 0
DWIDTH 20 0
BBX 16 14 3 10
BITMAP
180C
7C3E
7C3F
FC3E
FC7E
F87E
F87C
F87C
F078
E078
E070
C070
C060
8060
ENDCHAR
STARTCHAR 060C
ENCODING 1548
SWIDTH 315 0
DWIDTH 14 0
BBX 7 14 4 6
BITMAP
08
18
30
60
60
C0
C0
E0
FC
FC
FE
FE
7C
38
ENDCHAR
STARTCHAR 061B
ENCODING 1563
SWIDTH 315 0
DWIDTH 14 0
BBX 7 21 3 6
BITMAP
0C
18
38
30
60
60
60
78
FE
7E
7E
7E
3E
08
00
00
1C
3E
3E
3E
1C
ENDCHAR
STARTCHAR 061F
ENCODING 1567
SWIDTH 360 0
DWIDTH 16 0
BBX 13 26 1 6
BITMAP
0300
1FE0
3C30
7838
7878
78F8
F8F8
FCF8
7C70
7E00
7E00
3F00
1F00
0F00
0700
0300
0100
0100
0100
0000
0000
0780
0F80
0FC0
0780
0700
ENDCHAR
STARTCHAR 0621
ENCODING 1569
SWIDTH 472 0
DWIDTH 21 0
BBX 16 21 3 2
BITMAP
0300
0FE0
1FF0
1FF0
3FF0
7FE0
70C0
F040
F803
FC3E
FFFE
FFFE
7FFC
3FF8
1FC0
3F00
3C00
7800
7000
E000
C000
ENDCHAR
STARTCHAR 0622
ENCODING 1570
SWIDTH 247 0
DWIDTH 11 0
BBX 10 32 0 5
BITMAP
7000
FFC0
0F80
0000
0400
0400
0C00
0C00
0C00
1C00
1E00
1E00
1E00
1E00
0E00
0E00
0F00
0F00
0F00
0F00
0700
0700
0700
0700
0700
0700
0700
0700
0600
0600
0600
0400
ENDCHAR
STARTCHAR 0623
ENCODING 1571
SWIDTH 225 0
DWIDTH 10 0
BBX 5 34 3 5
BITMAP
30
70
80
C0
78
C0
20
20
60
60
60
E0
F0
F0
F0
70
70
70
78
78
78
78
38
38
38
38
38
38
38
38
30
30
30
20
ENDCHAR
STARTCHAR 0624
ENCODING 1572
SWIDTH 450 0
DWIDTH 20 0
BBX 20 32 0 -3
BITMAP
00E000
01E000
010000
01F000
01E000
020000
000000
000000
0003C0
0007E0
000FE0
000FF0
001FF0
001CF0
001C70
001C70
001E70
001FF0
001FF0
001FF0
000FF0
0007F0
000070
0000F0
0001E0
0007E0
E00FC0
7C3FC0
1FFF80
0FFF00
03FE00
00F800
ENDCHAR
STARTCHAR 0625
ENCODING 1573
SWIDTH 225 0
DWIDTH 10 0
BBX 6 37 2 -4
BITMAP
10
10
30
30
30
70
78
78
78
78
38
38
3C
3C
3C
3C
1C
1C
1C
1C
1C
1C
1C
1C
18
18
18
10
00
00
00
38
78
40
7C
78
80
ENDCHAR
STARTCHAR 0626
ENCODING 1574
SWIDTH 652 0
DWIDTH 29 0
BBX 23 27 3 -3
BITMAP
1C0000
1C0000
200000
3E0000
1C007C
6000FC
0001FE
0003FE
0007FC
0C0784
180E04
100C00
301C00
201FF8
601FFC
601FFC
600FFC
400078
C00018
E00078
E003F0
F81FF0
FFFFE0
7FFF80
7FFE00
3FF800
038000
ENDCHAR
STARTCHAR 0627
ENCODING 1575
SWIDTH 225 0
DWIDTH 10 0
BBX 5 28 3 5
BITMAP
20
20
60
60
60
E0
F0
F0
F0
F0
70
70
78
78
78
78
38
38
38
38
38
38
38
38
30
30
30
20
ENDCHAR
STARTCHAR 0628
ENCODING 1576
SWIDTH 652 0
DWIDTH 29 0
BBX 28 25 1 -3
BITMAP
00000040
30000040
300000E0
600000E0
600000E0
600001F0
E00000F0
E0000070
F0000070
FE000030
FFFFFFF0
7FFFFFF0
7FFFFFF0
3FFFFFF0
1FFFFFF0
03FFFFF0
00000000
00020000
00030000
0007C000
0007E000
000FE000
000FC000
0003C000
00008000
ENDCHAR
STARTCHAR 0629
ENCODING 1577
SWIDTH 337 0
DWIDTH 15 0
BBX 11 28 2 6
BITMAP
0200
0380
47C0
77C0
FF80
FB80
F000
7000
0000
0000
0000
1800
1C00
3F00
3F80
3FC0
3FE0
3FE0
67E0
61E0
C0E0
E0E0
F3E0
FFE0
FFE0
FFC0
FF80
7E00
ENDCHAR
STARTCHAR 062A
ENCODING 1578
SWIDTH 652 0
DWIDTH 29 0
BBX 28 23 1 6
BITMAP
00008000
0001E000
0019F000
003FE000
003FE000
007CC000
003C0000
00080040
30000040
300000E0
600000E0
600000E0
600001F0
E00000F0
E0000070
F0000070
FE000030
FFFFFFF0
7FFFFFF0
7FFFFFF0
3FFFFFF0
1FFFFFF0
03FFFFF0
ENDCHAR
STARTCHAR 062B
ENCODING 1579
SWIDTH 652 0
DWIDTH 29 0
BBX 28 28 1 6
BITMAP
00080000
001E0000
001F0000
003E0000
003E0000
000C8000
0001E000
0011F000
003FE000
003FE000
007CC000
003C0000
00180040
30000040
300000E0
600000E0
600000E0
600000F0
E00000F0
E0000070
F0000070
FE000030
7FFFFFF0
7FFFFFF0
7FFFFFF0
3FFFFFF0
1FFFFFF0
00FFFFF0
ENDCHAR
STARTCHAR 062C
ENCODING 1580
SWIDTH 585 0
DWIDTH 26 0
BBX 24 32 1 -9
BITMAP
0FFFFC
1FFFF8
3FFFF8
7FFFF8
7FFFF8
7EFFF0
E1FF00
07F000
0FC000
0F0000
1E0000
3C0000
380000
300C00
701F00
603F80
603F00
607F00
601E00
700600
700000
700000
780000
7C0000
7F0000
3FE000
3FFFFF
1FFFFE
0FFFF8
07FFF0
01FFC0
003F00
ENDCHAR
STARTCHAR 062D
ENCODING 1581
SWIDTH 585 0
DWIDTH 26 0
BBX 24 32 1 -9
BITMAP
0FFFFC
1FFFF8
3FFFF8
7FFFF8
7FFFF8
7EFFF0
E1FF00
07F000
0FC000
0F0000
1E0000
3C0000
380000
300000
700000
600000
600000
600000
600000
700000
700000
700000
780000
7C0000
7F0000
3FE000
3FFFFF
1FFFFE
0FFFF8
07FFF0
01FFC0
003F00
ENDCHAR
STARTCHAR 062E
ENCODING 1582
SWIDTH 585 0
DWIDTH 26 0
BBX 24 42 1 -9
BITMAP
006000
007000
00FC00
01FC00
01F800
00F800
003000
000000
000000
000000
0FFFFC
1FFFF8
3FFFF8
7FFFF8
7FFFF8
7EFFF0
E1FF00
07F000
0FC000
0F0000
1E0000
3C0000
380000
300000
700000
600000
600000
600000
600000
700000
700000
700000
780000
7C0000
7F0000
3FE000
3FFFFF
1FFFFE
0FFFF8
07FFF0
01FFC0
003F00
ENDCHAR
STARTCHAR 062F
ENCODING 1583
SWIDTH 337 0
DWIDTH 15 0
BBX 13 21 2 6
BITMAP
0080
00C0
00E0
01E0
01F0
01F0
01F0
01F8
00F8
0078
0038
0038
0018
4018
E018
FFF8
FFF8
FFF8
FFF8
7FF8
3FF8
ENDCHAR
STARTCHAR 0630
ENCODING 1584
SWIDTH 337 0
DWIDTH 15 0
BBX 13 31 2 7
BITMAP
0C00
1F00
1F80
3F80
3F00
0F00
0200
0000
0000
0000
0080
00C0
00E0
01E0
01F0
01F0
01F0
01F8
00F8
0078
0038
0038
0018
4018
E018
FFF8
FFF8
FFF8
FFF8
7FF8
3FF8
ENDCHAR
STARTCHAR 0631
ENCODING 1585
SWIDTH 427 0
DWIDTH 19 0
BBX 19 23 0 -3
BITMAP
000080
0000C0
0000C0
0001E0
0001E0
0001E0
0000E0
000060
000060
000060
000020
000060
000060
0000E0
0001E0
0003E0
0007C0
401FC0
F03F80
3FFF00
1FFE00
07FC00
01F800
ENDCHAR
STARTCHAR 0632
ENCODING 1586
SWIDTH 427 0
DWIDTH 19 0
BBX 19 34 0 -3
BITMAP
000400
000E00
000F80
001FC0
001F80
001F80
000700
000100
000000
000000
000000
000080
0000C0
0000C0
0001E0
0001E0
0001E0
0000E0
000060
000060
000060
000020
000060
000060
0000E0
0001E0
0003E0
0007C0
401FC0
F03F80
3FFF00
1FFE00
07FC00
01F800
ENDCHAR
STARTCHAR 0633
ENCODING 1587
SWIDTH 900 0
DWIDTH 40 0
BBX 39 23 1 -3
BITMAP
0000080000
00000C0004
00000C018E
04001C018E
0C001E019E
08001E018E
18001E038E
30000E0FFE
30000FFFFE
700007FFFE
600007FFFE
600007FFFE
600007FE7E
600007F006
F0000E0000
F8001E0000
FC003E0000
7FE7FC0000
7FFFFC0000
3FFFF80000
1FFFF00000
0FFFE00000
00FE000000
ENDCHAR
STARTCHAR 0634
ENCODING 1588
SWIDTH 900 0
DWIDTH 40 0
BBX 39 37 1 -3
BITMAP
0000000E00
0000000F80
0000001F80
0000001F00
0000000F00
0000000660
00000000F8
0000000CF8
0000001FF0
0000001FF0
0000003E60
0000001E00
0000000400
0000000000
0000080000
00000C0004
00000C018E
04001C018E
0C001E019E
08001E018E
18001E038E
30000E0FFE
30000FFFFE
700007FFFE
600007FFFE
600007FFFE
600007FE7E
600007F006
F0000E0000
F8001E0000
FC003E0000
7FE7FC0000
7FFFFC0000
3FFFF80000
1FFFF00000
0FFFE00000
00FE000000
ENDCHAR
STARTCHAR 0635
ENCODING 1589
SWIDTH 1057 0
DWIDTH 47 0
BBX 46 25 1 -3
BITMAP
0000000003F0
000000000FF8
000008001FF8
00000C007FFC
00000C00FFFC
04001C01FDFC
0C001E07E01C
08001E0FC01C
18001E3F001C
30000E7E00FC
30000FFFFFFC
700007FFFFFC
600007FFFFFC
600007FFFFFC
600007FFFFFC
600007FFFFFC
F0000E000000
F8001E000000
FC003E000000
7FE7FC000000
7FFFFC000000
3FFFF8000000
1FFFF0000000
0FFFE0000000
00FE00000000
ENDCHAR
STARTCHAR 0636
ENCODING 1590
SWIDTH 1057 0
DWIDTH 47 0
BBX 46 35 1 -3
BITMAP
000000070000
000000078000
0000000FE000
0000000FC000
0000001FC000
000000078000
000000018000
000000000000
000000000000
000000000000
0000000003F0
000000000FF8
000008001FF8
00000C007FFC
00000C00FFFC
04001C01FDFC
0C001E07E01C
08001E0FC01C
18001E3F001C
30000E7E00FC
30000FFFFFFC
700007FFFFFC
600007FFFFFC
600007FFFFFC
600007FFFFFC
600007FFFFFC
F0000E000000
F8001E000000
FC003E000000
7FE7FC000000
7FFFFC000000
3FFFF8000000
1FFFF0000000
0FFFE0000000
00FE00000000
ENDCHAR
STARTCHAR 0637
ENCODING 1591
SWIDTH 517 0
DWIDTH 23 0
BBX 25 30 -2 6
BITMAP
01000000
01800000
03C00000
03F80000
03F80000
03F00000
03F00000
01F00000
01E00000
01E00000
01E00000
00E00000
00E00000
00E00000
00E07E00
00E1FF00
00E3FF80
006FFF80
007FFF80
007FBF80
00FC0780
01F80380
03E00380
0FC01F80
FFFFFF80
FFFFFF80
FFFFFF80
FFFFFF80
FFFFFF80
FFFFFF80
ENDCHAR
STARTCHAR 0638
ENCODING 1592
SWIDTH 517 0
DWIDTH 23 0
BBX 25 30 -2 6
BITMAP
01000000
01800000
03C00000
03F80000
03F8C000
03F0F000
03F1FC00
01F1F800
01E3F800
01E0F000
01E03000
00E00000
00E00000
00E00000
00E07E00
00E1FF00
00E3FF80
006FFF80
007FFF80
007FBF80
00FC0780
01F80380
03E00380
0FC01F80
FFFFFF80
FFFFFF80
FFFFFF80
FFFFFF80
FFFFFF80
FFFFFF80
ENDCHAR
STARTCHAR 0639
ENCODING 1593
SWIDTH 540 0
DWIDTH 24 0
BBX 23 35 1 -9
BITMAP
03FC00
0FFE00
1FFF00
1FFF80
3E0000
380000
380000
780020
7C03E0
7F0FC0
3FFFC0
3FFF80
1FFF80
1FFC00
0FE000
1F8000
3E0000
3C0000
780000
700000
600000
E00000
E00000
E00000
E00000
E00000
F00000
FC0000
7F8000
7FFFFE
3FFFFC
3FFFF0
1FFFE0
07FF80
01FE00
ENDCHAR
STARTCHAR 063A
ENCODING 1594
SWIDTH 540 0
DWIDTH 24 0
BBX 23 45 1 -8
BITMAP
038000
03E000
07F000
07E000
07E000
03C000
00C000
000000
000000
000000
03FC00
0FFE00
1FFF00
1FFF80
3E0000
380000
380000
780020
7C03E0
7F0FC0
3FFFC0
3FFF80
1FFF80
1FFC00
0FE000
1F8000
3E0000
3C0000
780000
700000
600000
E00000
E00000
E00000
E00000
E00000
F00000
FC0000
7F8000
7FFFFE
3FFFFC
3FFFF0
1FFFE0
07FF80
01FE00
ENDCHAR
STARTCHAR 0640
ENCODING 1600
SWIDTH 202 0
DWIDTH 9 0
BBX 11 6 -2 6
BITMAP
FFE0
FFE0
FFE0
FFE0
FFE0
FFE0
ENDCHAR
STARTCHAR 0641
ENCODING 1601
SWIDTH 765 0
DWIDTH 34 0
BBX 33 28 1 7
BITMAP
0000007000
0000007C00
000000FE00
000000FC00
000000FC00
0000003800
0000000800
0000000000
0000000000
0000000000
0000003C00
0000007E00
300000FF00
300000FF00
200001FF00
600001FF00
600003CF00
600003C780
E00003F780
E00003FF80
F00003FF80
FC0001FF80
FFFFFFFF80
FFFFFFFF80
FFFFFFFF80
7FFFFFFF80
3FFFFFFF80
1FFFFFFF80
ENDCHAR
STARTCHAR 0642
ENCODING 1602
SWIDTH 607 0
DWIDTH 27 0
BBX 26 35 1 -6
BITMAP
00000600
00000F00
0000CF80
0001FF00
0001FF00
0003E600
0001E000
00004000
00000400
00001F00
00003F00
00003F80
00007F80
00007FC0
0000E7C0
0C00C3C0
1800E3C0
1800FFC0
3000FFC0
3000FFC0
6000FFC0
60007FC0
E0001FC0
E00000C0
E00000C0
E00000C0
F00001C0
F80007C0
FE001FC0
FFFFFF80
7FFFFF80
7FFFFF00
1FFFFC00
0FFFF000
007F0000
ENDCHAR
STARTCHAR 0643
ENCODING 1603
SWIDTH 540 0
DWIDTH 24 0
BBX 23 28 1 6
BITMAP
000020
000030
000078
00047E
000C7E
001CFE
001C7C
00303C
00303C
003E38
007F38
007F18
003F18
200E1C
300E1C
603C1C
63F81C
61C00C
E0000C
E0000E
E0000E
FC000E
FFFFFE
FFFFFE
FFFFFE
7FFFFE
3FFFFE
01FFFE
ENDCHAR
STARTCHAR 0644
ENCODING 1604
SWIDTH 450 0
DWIDTH 20 0
BBX 19 36 1 -2
BITMAP
000300
000300
000780
0007E0
0007E0
0007E0
0007C0
0003C0
0003C0
000380
000380
000180
000180
0001C0
0001C0
0001C0
0001C0
1800C0
1800E0
3000E0
3000E0
6000E0
6000E0
C000E0
C000E0
C000E0
C000E0
E001E0
F003E0
FC7FE0
FFFFC0
FFFF80
7FFF00
3FFE00
1FF800
018000
ENDCHAR
STARTCHAR 0645
ENCODING 1605
SWIDTH 360 0
DWIDTH 16 0
BBX 15 28 1 -9
BITMAP
03C0
07E0
0FF0
0FF8
1FF8
19FC
30FE
00FE
1FFE
3FFE
7FFE
7FFE
FFFE
F000
C000
C000
E000
E000
6000
7000
7000
3000
3000
3000
3000
3000
1000
2000
ENDCHAR
STARTCHAR 0646
ENCODING 1606
SWIDTH 540 0
DWIDTH 24 0
BBX 23 30 1 -3
BITMAP
003000
003C00
007F00
007E00
00FE00
003C00
000C00
000008
00000C
00000C
04001C
0C001E
08001E
18001E
30000E
30000E
600006
600006
600006
600006
E00006
F0000E
F8001E
FC003E
7FE7FC
7FFFFC
3FFFF8
1FFFF0
0FFFC0
00FE00
ENDCHAR
STARTCHAR 0647
ENCODING 1607
SWIDTH 337 0
DWIDTH 15 0
BBX 11 17 2 6
BITMAP
1800
1C00
3F00
3F80
3FC0
3FE0
3FE0
67E0
61E0
C0E0
E0E0
F3E0
FFE0
FFE0
FFC0
FF80
7E00
ENDCHAR
STARTCHAR 0648
ENCODING 1608
SWIDTH 450 0
DWIDTH 20 0
BBX 20 24 0 -2
BITMAP
0003C0
0007E0
000FE0
000FF0
001FF0
001CF0
001C70
001C70
001E70
001FF0
001FF0
001FF0
000FF0
0007F0
000070
0000F0
0001E0
0007E0
E00FC0
7C3FC0
1FFF80
0FFF00
03FE00
00F800
ENDCHAR
STARTCHAR 0649
ENCODING 1609
SWIDTH 652 0
DWIDTH 29 0
BBX 23 23 3 -2
BITMAP
00007C
0000FC
0001FE
0003FE
0007FC
0C0784
180E04
100C00
301C00
201FF8
601FFC
601FFC
600FFC
400078
C00018
E00078
E003F0
F81FF0
FFFFE0
7FFF80
7FFE00
3FF800
038000
ENDCHAR
STARTCHAR 064A
ENCODING 1610
SWIDTH 652 0
DWIDTH 29 0
BBX 23 28 3 -8
BITMAP
00007C
0000FC
0001FE
0003FE
0007FC
0C0784
180E04
100C00
301C00
201FF8
601FFC
601FFC
600FFC
400078
C00018
E00078
E003F0
F81FF0
FFFFE0
7FFF80
7FFE00
3FF800
038000
000600
00CF80
00FF00
01E700
00E000
ENDCHAR
STARTCHAR 064B
ENCODING 1611
SWIDTH 202 0
DWIDTH 9 0
BBX 7 7 2 30
BITMAP
02
1C
70
C2
0C
78
C0
ENDCHAR
STARTCHAR 064C
ENCODING 1612
SWIDTH 247 0
DWIDTH 11 0
BBX 9 9 2 30
BITMAP
0300
0780
0D00
ED00
E700
2700
2D00
7800
4000
ENDCHAR
STARTCHAR 064D
ENCODING 1613
SWIDTH 202 0
DWIDTH 9 0
BBX 7 8 2 -6
BITMAP
02
0C
78
C0
0E
3C
E0
80
ENDCHAR
STARTCHAR 064E
ENCODING 1614
SWIDTH 202 0
DWIDTH 9 0
BBX 7 4 2 30
BITMAP
02
0C
78
C0
ENDCHAR
STARTCHAR 064F
ENCODING 1615
SWIDTH 202 0
DWIDTH 9 0
BBX 7 10 2 30
BITMAP
04
0E
16
1A
1C
0E
0E
10
20
C0
ENDCHAR
STARTCHAR 0650
ENCODING 1616
SWIDTH 202 0
DWIDTH 9 0
BBX 7 4 2 -3
BITMAP
02
0C
78
C0
ENDCHAR
STARTCHAR 0651
ENCODING 1617
SWIDTH 202 0
DWIDTH 9 0
BBX 7 7 2 30
BITMAP
02
12
92
9E
FE
E0
C0
ENDCHAR
STARTCHAR 0652
ENCODING 1618
SWIDTH 157 0
DWIDTH 7 0
BBX 5 7 2 30
BITMAP
70
F8
98
88
F8
F0
60
ENDCHAR
STARTCHAR 0653
ENCODING 1619
SWIDTH 247 0
DWIDTH 11 0
BBX 10 3 0 34
BITMAP
7000
FFC0
0F80
ENDCHAR
STARTCHAR 0654
ENCODING 1620
SWIDTH 225 0
DWIDTH 10 0
BBX 6 6 2 34
BITMAP
38
48
60
7C
70
80
ENDCHAR
STARTCHAR 0655
ENCODING 1621
SWIDTH 225 0
DWIDTH 10 0
BBX 5 6 3 -5
BITMAP
30
70
80
E0
78
C0
ENDCHAR
STARTCHAR 0660
ENCODING 1632
SWIDTH 562 0
DWIDTH 25 0
BBX 7 11 9 9
BITMAP
60
70
78
FC
FE
FE
FC
FC
3C
1C
04
ENDCHAR
ENDFONT
